<svg width="38" height="30" viewBox="0 0 38 30" fill="none" xmlns="http://www.w3.org/2000/svg">
<g filter="url(#filter0_d_566_17133)">
<g clip-path="url(#clip0_566_17133)">
<mask id="mask0_566_17133" style="mask-type:luminance" maskUnits="userSpaceOnUse" x="3" y="1" width="32" height="24">
<rect x="3" y="1" width="32" height="24" fill="white"/>
</mask>
<g mask="url(#mask0_566_17133)">
<path fill-rule="evenodd" clip-rule="evenodd" d="M3 1V25H35V1H3Z" fill="#F7FCFF"/>
<mask id="mask1_566_17133" style="mask-type:luminance" maskUnits="userSpaceOnUse" x="3" y="1" width="32" height="24">
<path fill-rule="evenodd" clip-rule="evenodd" d="M3 1V25H35V1H3Z" fill="white"/>
</mask>
<g mask="url(#mask1_566_17133)">
<path fill-rule="evenodd" clip-rule="evenodd" d="M10.5997 15.3208C10.1716 15.0232 10.3641 14.3704 10.3641 14.3704C10.3641 14.3704 10.9996 14.7315 11.2224 14.8991C11.4452 15.0667 11.6059 15.7583 11.6059 15.7583C11.6059 15.7583 11.0278 15.6183 10.5997 15.3208ZM11.7438 16.2542C11.7222 16.0656 11.7751 15.897 11.7751 15.897C11.7751 15.897 12.3115 16.1837 12.4996 16.3167C12.6877 16.4498 12.8233 16.9988 12.8233 16.9988C12.8233 16.9988 12.3353 16.8876 11.9739 16.6514C11.8425 16.5656 11.7804 16.4424 11.7545 16.3204C11.6466 16.3535 11.3715 16.4252 11.0876 16.3979C10.7231 16.3628 10.46 15.8513 10.46 15.8513C10.46 15.8513 10.9574 15.8493 11.1541 15.8761C11.3073 15.8969 11.6152 16.1454 11.7438 16.2542ZM13.4354 17.2302C13.4354 17.2302 13.474 17.7676 13.863 17.8773C14.252 17.9871 14.7063 17.94 14.7063 17.94C14.7063 17.94 14.4028 17.4663 14.1969 17.3996C13.991 17.333 13.4354 17.2302 13.4354 17.2302ZM15.7413 18.6687C15.3392 18.6281 15.2078 18.1056 15.2078 18.1056C15.2078 18.1056 15.7728 18.1104 15.9872 18.1403C16.2016 18.1701 16.5827 18.584 16.5827 18.584C16.5827 18.584 16.1435 18.7093 15.7413 18.6687ZM16.4554 17.7013C16.4554 17.7013 16.4009 18.3282 16.8049 18.5384C17.2089 18.7485 17.7122 18.7922 17.7122 18.7922C17.7122 18.7922 17.4667 18.1814 17.2544 18.0604C17.0421 17.9393 16.4554 17.7013 16.4554 17.7013ZM16.738 19.3022C16.2917 19.3931 15.9395 18.8716 15.9395 18.8716C15.9395 18.8716 16.5453 18.6873 16.7865 18.6478C17.0277 18.6083 17.6027 18.9284 17.6027 18.9284C17.6027 18.9284 17.1842 19.2112 16.738 19.3022ZM13.5114 18.1768C13.5114 18.1768 13.7228 18.6724 14.1264 18.6495C14.5299 18.6267 14.9441 18.4342 14.9441 18.4342C14.9441 18.4342 14.503 18.0851 14.2866 18.0891C14.0702 18.0931 13.5114 18.1768 13.5114 18.1768ZM14.683 17.6094C14.322 17.4274 14.3867 16.8925 14.3867 16.8925C14.3867 16.8925 14.9125 17.0995 15.1019 17.2042C15.2913 17.3089 15.4988 17.8318 15.4988 17.8318C15.4988 17.8318 15.0439 17.7914 14.683 17.6094ZM12.6497 15.6529C12.6497 15.6529 12.6506 16.3137 12.9222 16.5719C13.1938 16.8302 13.5197 16.9203 13.5197 16.9203C13.5197 16.9203 13.327 16.2506 13.1837 16.1036C13.0403 15.9566 12.6497 15.6529 12.6497 15.6529ZM11.6536 17.1128C11.6536 17.1128 12.0594 17.6411 12.4773 17.614C12.8952 17.5868 13.2618 17.3784 13.2618 17.3784C13.2618 17.3784 12.6673 17.0081 12.4402 17.0138C12.2131 17.0196 11.6536 17.1128 11.6536 17.1128ZM11.7514 16.9926C11.5292 17.013 11.3211 16.7361 11.3211 16.7361C11.3211 16.7361 11.6195 16.6784 11.7401 16.6722C11.8608 16.6659 12.1713 16.8556 12.1713 16.8556C12.1713 16.8556 11.9737 16.9723 11.7514 16.9926ZM11.9364 14.8545C11.9364 14.8545 11.6999 15.1074 11.7585 15.3228C11.8171 15.5381 11.9663 15.7124 11.9663 15.7124C11.9663 15.7124 12.0992 15.3737 12.0721 15.256C12.045 15.1383 11.9364 14.8545 11.9364 14.8545ZM13.8953 17.0833C13.7577 17.0317 13.7896 16.8655 13.7896 16.8655C13.7896 16.8655 13.9907 16.9228 14.0628 16.9527C14.1349 16.9827 14.2086 17.1417 14.2086 17.1417C14.2086 17.1417 14.0329 17.135 13.8953 17.0833ZM13.1809 17.7242C13.1809 17.7242 13.149 17.8904 13.2866 17.9421C13.4242 17.9938 13.5999 18.0005 13.5999 18.0005C13.5999 18.0005 13.5262 17.8414 13.4541 17.8115C13.382 17.7815 13.1809 17.7242 13.1809 17.7242ZM15.8228 17.9421C15.6853 17.8904 15.7171 17.7242 15.7171 17.7242C15.7171 17.7242 15.9183 17.7815 15.9903 17.8115C16.0624 17.8414 16.1362 18.0005 16.1362 18.0005C16.1362 18.0005 15.9604 17.9938 15.8228 17.9421ZM15.2099 18.7738C15.2099 18.7738 15.178 18.94 15.3156 18.9917C15.4531 19.0433 15.6289 19.0501 15.6289 19.0501C15.6289 19.0501 15.5552 18.891 15.4831 18.8611C15.411 18.8311 15.2099 18.7738 15.2099 18.7738ZM17.9307 19.9121L17.485 19.5409C17.7626 19.3804 18.0486 19.2526 18.2933 19.1567C18.226 19.1104 18.1651 19.0756 18.116 19.0587V18.9371C18.116 18.9371 18.2824 18.9803 18.5318 19.068C18.7811 18.9803 18.9476 18.9371 18.9476 18.9371V19.0587C18.8984 19.0756 18.8376 19.1104 18.7703 19.1567C19.0149 19.2526 19.3009 19.3804 19.5786 19.5409L19.1329 19.9121C19.1329 19.9121 18.8269 19.5931 18.5318 19.3426C18.2366 19.5931 17.9307 19.9121 17.9307 19.9121ZM26.6994 14.3704C26.6994 14.3704 26.892 15.0232 26.4639 15.3208C26.0358 15.6183 25.4576 15.7583 25.4576 15.7583C25.4576 15.7583 25.6183 15.0667 25.8411 14.8991C26.0639 14.7315 26.6994 14.3704 26.6994 14.3704ZM25.3197 16.2542C25.3413 16.0656 25.2885 15.897 25.2885 15.897C25.2885 15.897 24.752 16.1837 24.5639 16.3167C24.3759 16.4498 24.2402 16.9988 24.2402 16.9988C24.2402 16.9988 24.7283 16.8876 25.0896 16.6514C25.221 16.5656 25.2832 16.4424 25.309 16.3204C25.4169 16.3535 25.6921 16.4252 25.9759 16.3979C26.3405 16.3628 26.6035 15.8513 26.6035 15.8513C26.6035 15.8513 26.1061 15.8493 25.9094 15.8761C25.7563 15.8969 25.4483 16.1454 25.3197 16.2542ZM23.6281 17.2302C23.6281 17.2302 23.5895 17.7676 23.2005 17.8773C22.8115 17.9871 22.3573 17.94 22.3573 17.94C22.3573 17.94 22.6607 17.4663 22.8666 17.3996C23.0725 17.333 23.6281 17.2302 23.6281 17.2302ZM21.3222 18.6687C21.7244 18.6281 21.8557 18.1056 21.8557 18.1056C21.8557 18.1056 21.2907 18.1104 21.0763 18.1403C20.862 18.1701 20.4809 18.584 20.4809 18.584C20.4809 18.584 20.9201 18.7093 21.3222 18.6687ZM20.6081 17.7013C20.6081 17.7013 20.6626 18.3282 20.2586 18.5384C19.8546 18.7485 19.3514 18.7922 19.3514 18.7922C19.3514 18.7922 19.5968 18.1814 19.8091 18.0604C20.0214 17.9393 20.6081 17.7013 20.6081 17.7013ZM20.3256 19.3022C20.7718 19.3931 21.124 18.8716 21.124 18.8716C21.124 18.8716 20.5183 18.6873 20.2771 18.6478C20.0359 18.6083 19.4608 18.9284 19.4608 18.9284C19.4608 18.9284 19.8794 19.2112 20.3256 19.3022ZM23.5522 18.1768C23.5522 18.1768 23.3407 18.6724 22.9371 18.6495C22.5336 18.6267 22.1194 18.4342 22.1194 18.4342C22.1194 18.4342 22.5606 18.0851 22.777 18.0891C22.9934 18.0931 23.5522 18.1768 23.5522 18.1768ZM22.3806 17.6094C22.7415 17.4274 22.6769 16.8925 22.6769 16.8925C22.6769 16.8925 22.1511 17.0995 21.9617 17.2042C21.7723 17.3089 21.5648 17.8318 21.5648 17.8318C21.5648 17.8318 22.0197 17.7914 22.3806 17.6094ZM24.4139 15.6529C24.4139 15.6529 24.413 16.3137 24.1414 16.5719C23.8697 16.8302 23.5438 16.9203 23.5438 16.9203C23.5438 16.9203 23.7365 16.2506 23.8799 16.1036C24.0232 15.9566 24.4139 15.6529 24.4139 15.6529ZM25.4099 17.1128C25.4099 17.1128 25.0041 17.6411 24.5863 17.614C24.1684 17.5868 23.8017 17.3784 23.8017 17.3784C23.8017 17.3784 24.3962 17.0081 24.6233 17.0138C24.8504 17.0196 25.4099 17.1128 25.4099 17.1128ZM25.3121 16.9926C25.5344 17.013 25.7424 16.7361 25.7424 16.7361C25.7424 16.7361 25.4441 16.6784 25.3234 16.6722C25.2028 16.6659 24.8923 16.8556 24.8923 16.8556C24.8923 16.8556 25.0899 16.9723 25.3121 16.9926ZM25.1271 14.8545C25.1271 14.8545 25.3637 15.1074 25.305 15.3228C25.2464 15.5381 25.0973 15.7124 25.0973 15.7124C25.0973 15.7124 24.9643 15.3737 24.9914 15.256C25.0185 15.1383 25.1271 14.8545 25.1271 14.8545ZM23.1683 17.0833C23.3058 17.0317 23.2739 16.8655 23.2739 16.8655C23.2739 16.8655 23.0728 16.9228 23.0007 16.9527C22.9287 16.9827 22.8549 17.1417 22.8549 17.1417C22.8549 17.1417 23.0307 17.135 23.1683 17.0833ZM23.8826 17.7242C23.8826 17.7242 23.9145 17.8904 23.7769 17.9421C23.6394 17.9938 23.4636 18.0005 23.4636 18.0005C23.4636 18.0005 23.5373 17.8414 23.6094 17.8115C23.6815 17.7815 23.8826 17.7242 23.8826 17.7242ZM21.2407 17.9421C21.3783 17.8904 21.3464 17.7242 21.3464 17.7242C21.3464 17.7242 21.1453 17.7815 21.0732 17.8115C21.0011 17.8414 20.9274 18.0005 20.9274 18.0005C20.9274 18.0005 21.1032 17.9938 21.2407 17.9421ZM21.8537 18.7738C21.8537 18.7738 21.8855 18.94 21.748 18.9917C21.6104 19.0433 21.4346 19.0501 21.4346 19.0501C21.4346 19.0501 21.5084 18.891 21.5804 18.8611C21.6525 18.8311 21.8537 18.7738 21.8537 18.7738Z" fill="#006B49"/>
<path fill-rule="evenodd" clip-rule="evenodd" d="M30.806 4.01704C30.806 4.01704 31.1522 4.4619 30.806 4.4619C30.4599 4.4619 29.5796 4.94324 29.5796 4.94324C29.5796 4.94324 29.1609 5.56816 28.6538 5.70954C28.1466 5.85092 27.9756 6.37596 27.2333 6.59478C26.4909 6.81361 26.4151 6.87335 26.4151 7.09482C26.4151 7.31629 26.5416 7.69137 26.0347 7.69137C25.5278 7.69137 25.1695 6.98162 24.8952 7.69137C24.6209 8.40111 24.343 8.60917 24.723 9.04336C25.103 9.47754 25.6064 9.8933 25.8205 10.144C26.0347 10.3948 27.4633 11.1286 26.4151 11.1286C25.3669 11.1286 25.8939 10.4644 25.087 10.707C24.28 10.9497 24.7433 11.3076 24.1266 11.1286C23.5099 10.9497 23.0988 10.7864 22.9074 10.868C22.7161 10.9497 22.4087 10.4144 22.4087 11.1286C22.4087 11.8428 22.9842 11.5533 21.7502 12.3422C20.5162 13.1312 20.7613 12.9132 20.1949 12.9132C19.6285 12.9132 19.4295 13.2703 19.0519 13.2703C18.6742 13.2703 18.7203 13.2703 18.295 13.2703C17.8696 13.2703 18.3253 12.8185 17.6 13.2703C16.8747 13.722 16.6148 13.812 16.6148 13.9856C16.6148 14.1592 16.6148 14.6194 16.6148 14.6194C16.6148 14.6194 15.9503 14.9996 15.9503 14.6194C15.9503 14.2392 15.7454 14.1419 15.4699 13.9856C15.1943 13.8292 14.6437 13.9418 14.0557 13.9856C13.4677 14.0294 12.8029 13.3925 12.2925 13.3925C11.782 13.3925 11.6871 12.9132 11.5474 12.9132C11.4078 12.9132 11.6931 12.5035 11.0988 12.1359C10.5044 11.7683 10.2964 11.7226 10.2964 11.1286C10.2964 10.5346 10.0234 10.3722 10.0234 10.0112C10.0234 9.6503 10.3143 10.144 10.9309 10.144C11.5474 10.144 11.5879 9.76208 12.2925 9.40272C12.9971 9.04336 13.2362 8.8467 13.8237 9.04336C14.4113 9.24002 14.9895 9.97284 15.4699 9.26948C15.9503 8.56612 15.9503 7.76179 15.9503 7.3557C15.9503 6.94961 15.6662 6.83395 16.433 7.09482C17.1999 7.3557 17.6461 7.3557 18.9205 7.3557C20.1949 7.3557 21.7187 7.77246 22.1883 7.3557C22.6579 6.93893 23.1599 6.59478 24.3783 6.59478C25.5967 6.59478 25.9948 5.99595 26.8141 5.70954C27.6334 5.42312 26.4252 6.02861 28.2629 5.24525C30.1007 4.4619 30.806 4.01704 30.806 4.01704Z" fill="#F57A01"/>
</g>
</g>
<rect x="3" y="1" width="32" height="24" fill="url(#paint0_linear_566_17133)" style="mix-blend-mode:overlay"/>
</g>
<rect x="3.5" y="1.5" width="31" height="23" rx="1.5" stroke="black" stroke-opacity="0.1" style="mix-blend-mode:multiply"/>
</g>
<defs>
<filter id="filter0_d_566_17133" x="0" y="0" width="38" height="30" filterUnits="userSpaceOnUse" color-interpolation-filters="sRGB">
<feFlood flood-opacity="0" result="BackgroundImageFix"/>
<feColorMatrix in="SourceAlpha" type="matrix" values="0 0 0 0 0 0 0 0 0 0 0 0 0 0 0 0 0 0 127 0" result="hardAlpha"/>
<feOffset dy="2"/>
<feGaussianBlur stdDeviation="1.5"/>
<feColorMatrix type="matrix" values="0 0 0 0 0 0 0 0 0 0 0 0 0 0 0 0 0 0 0.1 0"/>
<feBlend mode="normal" in2="BackgroundImageFix" result="effect1_dropShadow_566_17133"/>
<feBlend mode="normal" in="SourceGraphic" in2="effect1_dropShadow_566_17133" result="shape"/>
</filter>
<linearGradient id="paint0_linear_566_17133" x1="19" y1="1" x2="19" y2="25" gradientUnits="userSpaceOnUse">
<stop stop-color="white" stop-opacity="0.7"/>
<stop offset="1" stop-opacity="0.3"/>
</linearGradient>
<clipPath id="clip0_566_17133">
<rect x="3" y="1" width="32" height="24" rx="2" fill="white"/>
</clipPath>
</defs>
</svg>
