<svg width="38" height="30" viewBox="0 0 38 30" fill="none" xmlns="http://www.w3.org/2000/svg">
<g filter="url(#filter0_d_566_17133)">
<g clip-path="url(#clip0_566_17133)">
<rect x="3" y="1" width="32" height="24" fill="#F7FCFF"/>
<mask id="mask0_566_17133" style="mask-type:luminance" maskUnits="userSpaceOnUse" x="3" y="1" width="32" height="24">
<rect x="3" y="1" width="32" height="24" fill="white"/>
</mask>
<g mask="url(#mask0_566_17133)">
<mask id="path-5-inside-1_566_17133" fill="white">
<path fill-rule="evenodd" clip-rule="evenodd" d="M13 5H9V7.99254C8.55943 8.09705 8.23168 8.49303 8.23168 8.96556C8.23168 8.97709 8.23188 8.98857 8.23226 9H5V13H8.33074C8.45991 13.2674 8.70459 13.4685 9 13.5386V17H13V13.5514C13.3236 13.4966 13.5943 13.2863 13.7326 13H17V9H13.8311C13.8315 8.98857 13.8317 8.97709 13.8317 8.96556C13.8317 8.47065 13.4721 8.05971 13 7.97967V5Z"/>
</mask>
<path fill-rule="evenodd" clip-rule="evenodd" d="M13 5H9V7.99254C8.55943 8.09705 8.23168 8.49303 8.23168 8.96556C8.23168 8.97709 8.23188 8.98857 8.23226 9H5V13H8.33074C8.45991 13.2674 8.70459 13.4685 9 13.5386V17H13V13.5514C13.3236 13.4966 13.5943 13.2863 13.7326 13H17V9H13.8311C13.8315 8.98857 13.8317 8.97709 13.8317 8.96556C13.8317 8.47065 13.4721 8.05971 13 7.97967V5Z" fill="#A0A0A0"/>
<path d="M9 5V4H8V5H9ZM13 5H14V4H13V5ZM9 7.99254L9.23081 8.96554L10 8.78307V7.99254H9ZM8.23226 9V10H9.26668L9.23169 8.96617L8.23226 9ZM5 9V8H4V9H5ZM5 13H4V14H5V13ZM8.33074 13L9.23116 12.565L8.95821 12H8.33074V13ZM9 13.5386H10V12.748L9.23081 12.5656L9 13.5386ZM9 17H8V18H9V17ZM13 17V18H14V17H13ZM13 13.5514L12.8329 12.5655L12 12.7067V13.5514H13ZM13.7326 13V12H13.1051L12.8322 12.565L13.7326 13ZM17 13V14H18V13H17ZM17 9H18V8H17V9ZM13.8311 9L12.8316 8.96615L12.7966 10H13.8311V9ZM13 7.97967H12V8.82442L12.8329 8.9656L13 7.97967ZM9 6H13V4H9V6ZM10 7.99254V5H8V7.99254H10ZM9.23168 8.96556L9.23081 8.96554L8.76919 7.01954C7.88802 7.22856 7.23168 8.01919 7.23168 8.96556H9.23168ZM9.23169 8.96617L9.23168 8.96556H7.23168C7.23168 8.98837 7.23207 9.01113 7.23284 9.03383L9.23169 8.96617ZM5 10H8.23226V8H5V10ZM6 13V9H4V13H6ZM8.33074 12H5V14H8.33074V12ZM9.23081 12.5656L9.23116 12.565L7.43031 13.435C7.68808 13.9686 8.17589 14.3708 8.76919 14.5116L9.23081 12.5656ZM10 17V13.5386H8V17H10ZM13 16H9V18H13V16ZM12 13.5514V17H14V13.5514H12ZM13.1671 14.5374C13.8174 14.4271 14.3572 14.0059 14.633 13.435L12.8322 12.565L12.8329 12.5655L13.1671 14.5374ZM17 12H13.7326V14H17V12ZM16 9V13H18V9H16ZM13.8311 10H17V8H13.8311V10ZM12.8317 8.96556C12.8317 8.96583 12.8317 8.96603 12.8316 8.96615L14.8305 9.03385C14.8313 9.01111 14.8317 8.98834 14.8317 8.96556H12.8317ZM12.8329 8.9656C12.8304 8.96518 12.8305 8.96418 12.832 8.96591C12.8325 8.96647 12.8323 8.96648 12.832 8.96561C12.8315 8.96427 12.8317 8.96374 12.8317 8.96556H14.8317C14.8317 7.97473 14.1121 7.15394 13.1671 6.99374L12.8329 8.9656ZM12 5V7.97967H14V5H12Z" fill="#FECA00" mask="url(#path-5-inside-1_566_17133)"/>
<path fill-rule="evenodd" clip-rule="evenodd" d="M19 1H35V25H19V1Z" fill="#E31D1C"/>
<mask id="mask1_566_17133" style="mask-type:luminance" maskUnits="userSpaceOnUse" x="19" y="1" width="16" height="24">
<path fill-rule="evenodd" clip-rule="evenodd" d="M19 1H35V25H19V1Z" fill="white"/>
</mask>
<g mask="url(#mask1_566_17133)">
</g>
</g>
<rect x="3" y="1" width="32" height="24" fill="url(#paint0_linear_566_17133)" style="mix-blend-mode:overlay"/>
</g>
<rect x="3.5" y="1.5" width="31" height="23" rx="1.5" stroke="black" stroke-opacity="0.1" style="mix-blend-mode:multiply"/>
</g>
<defs>
<filter id="filter0_d_566_17133" x="0" y="0" width="38" height="30" filterUnits="userSpaceOnUse" color-interpolation-filters="sRGB">
<feFlood flood-opacity="0" result="BackgroundImageFix"/>
<feColorMatrix in="SourceAlpha" type="matrix" values="0 0 0 0 0 0 0 0 0 0 0 0 0 0 0 0 0 0 127 0" result="hardAlpha"/>
<feOffset dy="2"/>
<feGaussianBlur stdDeviation="1.5"/>
<feColorMatrix type="matrix" values="0 0 0 0 0 0 0 0 0 0 0 0 0 0 0 0 0 0 0.1 0"/>
<feBlend mode="normal" in2="BackgroundImageFix" result="effect1_dropShadow_566_17133"/>
<feBlend mode="normal" in="SourceGraphic" in2="effect1_dropShadow_566_17133" result="shape"/>
</filter>
<linearGradient id="paint0_linear_566_17133" x1="19" y1="1" x2="19" y2="25" gradientUnits="userSpaceOnUse">
<stop stop-color="white" stop-opacity="0.7"/>
<stop offset="1" stop-opacity="0.3"/>
</linearGradient>
<clipPath id="clip0_566_17133">
<rect x="3" y="1" width="32" height="24" rx="2" fill="white"/>
</clipPath>
</defs>
</svg>
