<svg width="38" height="30" viewBox="0 0 38 30" fill="none" xmlns="http://www.w3.org/2000/svg">
<g filter="url(#filter0_d_566_17133)">
<g clip-path="url(#clip0_566_17133)">
<mask id="mask0_566_17133" style="mask-type:luminance" maskUnits="userSpaceOnUse" x="3" y="1" width="32" height="24">
<rect x="3" y="1" width="32" height="24" fill="white"/>
</mask>
<g mask="url(#mask0_566_17133)">
<path fill-rule="evenodd" clip-rule="evenodd" d="M3 1V25H35V1H3Z" fill="#2E42A5"/>
<mask id="mask1_566_17133" style="mask-type:luminance" maskUnits="userSpaceOnUse" x="3" y="1" width="32" height="24">
<path fill-rule="evenodd" clip-rule="evenodd" d="M3 1V25H35V1H3Z" fill="white"/>
</mask>
<g mask="url(#mask1_566_17133)">
<rect x="3" y="1" width="18" height="14" fill="#2B409A"/>
<mask id="mask2_566_17133" style="mask-type:luminance" maskUnits="userSpaceOnUse" x="3" y="1" width="18" height="14">
<rect x="3" y="1" width="18" height="14" fill="white"/>
</mask>
<g mask="url(#mask2_566_17133)">
<path d="M0.995728 13.9998L4.95668 15.737L21.0899 2.88874L23.1792 0.307205L18.9435 -0.273418L12.3632 5.26327L7.06667 8.99371L0.995728 13.9998Z" fill="#F7FCFF"/>
<path d="M1.53796 15.2169L3.55589 16.2251L22.4289 0.0673523H19.5955L1.53796 15.2169Z" fill="#F50100"/>
<path d="M23.0043 13.9998L19.0433 15.737L2.91013 2.88874L0.820814 0.307205L5.05648 -0.273418L11.6368 5.26327L16.9333 8.99371L23.0043 13.9998Z" fill="#F7FCFF"/>
<path d="M22.8691 14.8733L20.8512 15.8815L12.8149 8.96351L10.4323 8.19059L0.619799 0.316053H3.45319L13.2602 8.00368L15.8651 8.9305L22.8691 14.8733Z" fill="#F50100"/>
<mask id="path-12-outside-1_566_17133" maskUnits="userSpaceOnUse" x="1" y="-1" width="22" height="18" fill="black">
<rect fill="white" x="1" y="-1" width="22" height="18"/>
<path fill-rule="evenodd" clip-rule="evenodd" d="M12.9845 1H10.9845V7H3V9H10.9845V15H12.9845V9H21V7H12.9845V1Z"/>
</mask>
<path fill-rule="evenodd" clip-rule="evenodd" d="M12.9845 1H10.9845V7H3V9H10.9845V15H12.9845V9H21V7H12.9845V1Z" fill="#F50100"/>
<path d="M10.9845 1V-0.5H9.48451V1H10.9845ZM12.9845 1H14.4845V-0.5H12.9845V1ZM10.9845 7V8.5H12.4845V7H10.9845ZM3 7V5.5H1.5V7H3ZM3 9H1.5V10.5H3V9ZM10.9845 9H12.4845V7.5H10.9845V9ZM10.9845 15H9.48451V16.5H10.9845V15ZM12.9845 15V16.5H14.4845V15H12.9845ZM12.9845 9V7.5H11.4845V9H12.9845ZM21 9V10.5H22.5V9H21ZM21 7H22.5V5.5H21V7ZM12.9845 7H11.4845V8.5H12.9845V7ZM10.9845 2.5H12.9845V-0.5H10.9845V2.5ZM12.4845 7V1H9.48451V7H12.4845ZM3 8.5H10.9845V5.5H3V8.5ZM4.5 9V7H1.5V9H4.5ZM10.9845 7.5H3V10.5H10.9845V7.5ZM12.4845 15V9H9.48451V15H12.4845ZM12.9845 13.5H10.9845V16.5H12.9845V13.5ZM11.4845 9V15H14.4845V9H11.4845ZM21 7.5H12.9845V10.5H21V7.5ZM19.5 7V9H22.5V7H19.5ZM12.9845 8.5H21V5.5H12.9845V8.5ZM11.4845 1V7H14.4845V1H11.4845Z" fill="#F7FCFF" mask="url(#path-12-outside-1_566_17133)"/>
</g>
<path fill-rule="evenodd" clip-rule="evenodd" d="M27.1 8.47062L26.8403 9.98464L28.2 9.26981L29.5597 9.98464L29.3 8.47062L30.4 7.39838L28.8798 7.17749L28.2 5.79999L27.5202 7.17749L26 7.39838L27.1 8.47062ZM23.1 14.0706L22.8403 15.5846L24.2 14.8698L25.5597 15.5846L25.3 14.0706L26.4 12.9984L24.8798 12.7775L24.2 11.4L23.5202 12.7775L22 12.9984L23.1 14.0706ZM26.4266 20.4635L26.0898 22.4271L27.8532 21.5L29.6165 22.4271L29.2798 20.4635L30.7063 19.0729L28.7348 18.7865L27.8532 17L26.9715 18.7865L25 19.0729L26.4266 20.4635ZM29.8394 15.58L30.0988 14.0677L29 12.9966L30.5185 12.776L31.1976 11.4L31.8766 12.776L33.3951 12.9966L32.2963 14.0677L32.5557 15.58L31.1976 14.866L29.8394 15.58Z" fill="#F50100"/>
<path d="M26.8403 9.98464L26.6432 9.95083L26.5747 10.3502L26.9334 10.1617L26.8403 9.98464ZM27.1 8.47062L27.2971 8.50443L27.3149 8.40079L27.2396 8.3274L27.1 8.47062ZM28.2 9.26981L28.2931 9.09279L28.2 9.04386L28.1069 9.09279L28.2 9.26981ZM29.5597 9.98464L29.4666 10.1617L29.8253 10.3502L29.7568 9.95083L29.5597 9.98464ZM29.3 8.47062L29.1604 8.3274L29.0851 8.40079L29.1029 8.50443L29.3 8.47062ZM30.4 7.39838L30.5396 7.5416L30.8298 7.25873L30.4288 7.20046L30.4 7.39838ZM28.8798 7.17749L28.7005 7.266L28.747 7.36029L28.8511 7.37541L28.8798 7.17749ZM28.2 5.79999L28.3793 5.71147L28.2 5.34808L28.0207 5.71147L28.2 5.79999ZM27.5202 7.17749L27.5489 7.37541L27.653 7.36029L27.6995 7.266L27.5202 7.17749ZM26 7.39838L25.9712 7.20046L25.5702 7.25873L25.8604 7.5416L26 7.39838ZM22.8403 15.5846L22.6432 15.5508L22.5747 15.9502L22.9334 15.7617L22.8403 15.5846ZM23.1 14.0706L23.2971 14.1044L23.3149 14.0008L23.2396 13.9274L23.1 14.0706ZM24.2 14.8698L24.2931 14.6928L24.2 14.6439L24.1069 14.6928L24.2 14.8698ZM25.5597 15.5846L25.4666 15.7617L25.8253 15.9502L25.7568 15.5508L25.5597 15.5846ZM25.3 14.0706L25.1604 13.9274L25.0851 14.0008L25.1029 14.1044L25.3 14.0706ZM26.4 12.9984L26.5396 13.1416L26.8298 12.8587L26.4288 12.8005L26.4 12.9984ZM24.8798 12.7775L24.7005 12.866L24.747 12.9603L24.8511 12.9754L24.8798 12.7775ZM24.2 11.4L24.3793 11.3115L24.2 10.9481L24.0207 11.3115L24.2 11.4ZM23.5202 12.7775L23.5489 12.9754L23.653 12.9603L23.6995 12.866L23.5202 12.7775ZM22 12.9984L21.9712 12.8005L21.5702 12.8587L21.8604 13.1416L22 12.9984ZM26.0898 22.4271L25.8927 22.3932L25.8242 22.7927L26.1829 22.6041L26.0898 22.4271ZM26.4266 20.4635L26.6237 20.4973L26.6415 20.3937L26.5662 20.3203L26.4266 20.4635ZM27.8532 21.5L27.9462 21.323L27.8532 21.274L27.7601 21.323L27.8532 21.5ZM29.6165 22.4271L29.5235 22.6041L29.8822 22.7927L29.8136 22.3932L29.6165 22.4271ZM29.2798 20.4635L29.1402 20.3203L29.0649 20.3937L29.0826 20.4973L29.2798 20.4635ZM30.7063 19.0729L30.8459 19.2162L31.1361 18.9333L30.7351 18.875L30.7063 19.0729ZM28.7348 18.7865L28.5555 18.875L28.602 18.9693L28.7061 18.9844L28.7348 18.7865ZM27.8532 17L28.0325 16.9115L27.8532 16.5481L27.6738 16.9115L27.8532 17ZM26.9715 18.7865L27.0003 18.9844L27.1043 18.9693L27.1508 18.875L26.9715 18.7865ZM25 19.0729L24.9712 18.875L24.5702 18.9333L24.8604 19.2162L25 19.0729ZM30.0988 14.0677L30.2959 14.1015L30.3137 13.9978L30.2384 13.9244L30.0988 14.0677ZM29.8394 15.58L29.6423 15.5462L29.5738 15.9456L29.9325 15.757L29.8394 15.58ZM29 12.9966L28.9712 12.7987L28.5702 12.857L28.8604 13.1398L29 12.9966ZM30.5185 12.776L30.5472 12.9739L30.6513 12.9588L30.6978 12.8645L30.5185 12.776ZM31.1976 11.4L31.3769 11.3115L31.1976 10.9481L31.0182 11.3115L31.1976 11.4ZM31.8766 12.776L31.6973 12.8645L31.7438 12.9588L31.8479 12.9739L31.8766 12.776ZM33.3951 12.9966L33.5347 13.1398L33.8249 12.857L33.4239 12.7987L33.3951 12.9966ZM32.2963 14.0677L32.1567 13.9244L32.0814 13.9978L32.0992 14.1015L32.2963 14.0677ZM32.5557 15.58L32.4627 15.757L32.8213 15.9456L32.7528 15.5462L32.5557 15.58ZM31.1976 14.866L31.2906 14.6889L31.1976 14.64L31.1045 14.6889L31.1976 14.866ZM27.0374 10.0184L27.2971 8.50443L26.9029 8.43681L26.6432 9.95083L27.0374 10.0184ZM28.1069 9.09279L26.7473 9.80761L26.9334 10.1617L28.2931 9.44684L28.1069 9.09279ZM29.6527 9.80761L28.2931 9.09279L28.1069 9.44684L29.4666 10.1617L29.6527 9.80761ZM29.1029 8.50443L29.3626 10.0184L29.7568 9.95083L29.4971 8.43681L29.1029 8.50443ZM30.2604 7.25516L29.1604 8.3274L29.4396 8.61383L30.5396 7.5416L30.2604 7.25516ZM28.8511 7.37541L30.3712 7.5963L30.4288 7.20046L28.9086 6.97957L28.8511 7.37541ZM28.0207 5.8885L28.7005 7.266L29.0592 7.08898L28.3793 5.71147L28.0207 5.8885ZM27.6995 7.266L28.3793 5.8885L28.0207 5.71147L27.3408 7.08898L27.6995 7.266ZM26.0288 7.5963L27.5489 7.37541L27.4914 6.97957L25.9712 7.20046L26.0288 7.5963ZM27.2396 8.3274L26.1396 7.25516L25.8604 7.5416L26.9604 8.61383L27.2396 8.3274ZM23.0374 15.6185L23.2971 14.1044L22.9029 14.0368L22.6432 15.5508L23.0374 15.6185ZM24.1069 14.6928L22.7473 15.4076L22.9334 15.7617L24.2931 15.0468L24.1069 14.6928ZM25.6527 15.4076L24.2931 14.6928L24.1069 15.0468L25.4666 15.7617L25.6527 15.4076ZM25.1029 14.1044L25.3626 15.6185L25.7568 15.5508L25.4971 14.0368L25.1029 14.1044ZM26.2604 12.8552L25.1604 13.9274L25.4396 14.2138L26.5396 13.1416L26.2604 12.8552ZM24.8511 12.9754L26.3712 13.1963L26.4288 12.8005L24.9086 12.5796L24.8511 12.9754ZM24.0207 11.4885L24.7005 12.866L25.0592 12.689L24.3793 11.3115L24.0207 11.4885ZM23.6995 12.866L24.3793 11.4885L24.0207 11.3115L23.3408 12.689L23.6995 12.866ZM22.0288 13.1963L23.5489 12.9754L23.4914 12.5796L21.9712 12.8005L22.0288 13.1963ZM23.2396 13.9274L22.1396 12.8552L21.8604 13.1416L22.9604 14.2138L23.2396 13.9274ZM26.2869 22.4609L26.6237 20.4973L26.2295 20.4297L25.8927 22.3932L26.2869 22.4609ZM27.7601 21.323L25.9967 22.25L26.1829 22.6041L27.9462 21.677L27.7601 21.323ZM29.7096 22.25L27.9462 21.323L27.7601 21.677L29.5235 22.6041L29.7096 22.25ZM29.0826 20.4973L29.4194 22.4609L29.8136 22.3932L29.4769 20.4297L29.0826 20.4973ZM30.5667 18.9297L29.1402 20.3203L29.4194 20.6067L30.8459 19.2162L30.5667 18.9297ZM28.7061 18.9844L30.6776 19.2709L30.7351 18.875L28.7636 18.5886L28.7061 18.9844ZM27.6738 17.0885L28.5555 18.875L28.9142 18.698L28.0325 16.9115L27.6738 17.0885ZM27.1508 18.875L28.0325 17.0885L27.6738 16.9115L26.7921 18.698L27.1508 18.875ZM25.0288 19.2709L27.0003 18.9844L26.9427 18.5886L24.9712 18.875L25.0288 19.2709ZM26.5662 20.3203L25.1396 18.9297L24.8604 19.2162L26.287 20.6067L26.5662 20.3203ZM29.9017 14.0338L29.6423 15.5462L30.0365 15.6138L30.2959 14.1015L29.9017 14.0338ZM28.8604 13.1398L29.9592 14.2109L30.2384 13.9244L29.1396 12.8534L28.8604 13.1398ZM30.4897 12.578L28.9712 12.7987L29.0288 13.1945L30.5472 12.9739L30.4897 12.578ZM31.0182 11.3115L30.3391 12.6875L30.6978 12.8645L31.3769 11.4885L31.0182 11.3115ZM32.056 12.6875L31.3769 11.3115L31.0182 11.4885L31.6973 12.8645L32.056 12.6875ZM33.4239 12.7987L31.9054 12.578L31.8479 12.9739L33.3664 13.1945L33.4239 12.7987ZM32.4359 14.2109L33.5347 13.1398L33.2555 12.8534L32.1567 13.9244L32.4359 14.2109ZM32.7528 15.5462L32.4935 14.0338L32.0992 14.1015L32.3586 15.6138L32.7528 15.5462ZM31.1045 15.043L32.4627 15.757L32.6488 15.403L31.2906 14.6889L31.1045 15.043ZM29.9325 15.757L31.2906 15.043L31.1045 14.6889L29.7463 15.403L29.9325 15.757Z" fill="#F7FCFF"/>
</g>
</g>
<rect x="3" y="1" width="32" height="24" fill="url(#paint0_linear_566_17133)" style="mix-blend-mode:overlay"/>
</g>
<rect x="3.5" y="1.5" width="31" height="23" rx="1.5" stroke="black" stroke-opacity="0.1" style="mix-blend-mode:multiply"/>
</g>
<defs>
<filter id="filter0_d_566_17133" x="0" y="0" width="38" height="30" filterUnits="userSpaceOnUse" color-interpolation-filters="sRGB">
<feFlood flood-opacity="0" result="BackgroundImageFix"/>
<feColorMatrix in="SourceAlpha" type="matrix" values="0 0 0 0 0 0 0 0 0 0 0 0 0 0 0 0 0 0 127 0" result="hardAlpha"/>
<feOffset dy="2"/>
<feGaussianBlur stdDeviation="1.5"/>
<feColorMatrix type="matrix" values="0 0 0 0 0 0 0 0 0 0 0 0 0 0 0 0 0 0 0.1 0"/>
<feBlend mode="normal" in2="BackgroundImageFix" result="effect1_dropShadow_566_17133"/>
<feBlend mode="normal" in="SourceGraphic" in2="effect1_dropShadow_566_17133" result="shape"/>
</filter>
<linearGradient id="paint0_linear_566_17133" x1="19" y1="1" x2="19" y2="25" gradientUnits="userSpaceOnUse">
<stop stop-color="white" stop-opacity="0.7"/>
<stop offset="1" stop-opacity="0.3"/>
</linearGradient>
<clipPath id="clip0_566_17133">
<rect x="3" y="1" width="32" height="24" rx="2" fill="white"/>
</clipPath>
</defs>
</svg>
