<svg width="38" height="30" viewBox="0 0 38 30" fill="none" xmlns="http://www.w3.org/2000/svg">
<g filter="url(#filter0_d_566_17133)">
<g clip-path="url(#clip0_566_17133)">
<mask id="mask0_566_17133" style="mask-type:luminance" maskUnits="userSpaceOnUse" x="3" y="1" width="32" height="24">
<rect x="3" y="1" width="32" height="24" fill="white"/>
</mask>
<g mask="url(#mask0_566_17133)">
<path fill-rule="evenodd" clip-rule="evenodd" d="M3 1V25H35V1H3Z" fill="#3D58DB"/>
<mask id="mask1_566_17133" style="mask-type:luminance" maskUnits="userSpaceOnUse" x="3" y="1" width="32" height="24">
<path fill-rule="evenodd" clip-rule="evenodd" d="M3 1V25H35V1H3Z" fill="white"/>
</mask>
<g mask="url(#mask1_566_17133)">
<path fill-rule="evenodd" clip-rule="evenodd" d="M3 1V9H35V1H3Z" fill="#F7FCFF"/>
<path fill-rule="evenodd" clip-rule="evenodd" d="M3 17V25H35V17H3Z" fill="#E31D1C"/>
<path d="M18.6039 7.03035L19.1011 6.97745L19.0535 6.53035H18.6039H9.34483H8.87741L8.84596 6.99671L9.34483 7.03035L8.84595 6.9968L8.84594 6.99702L8.84589 6.99781L8.84568 7.00088L8.84489 7.01281L8.84183 7.05906L8.8305 7.23526C8.82084 7.38764 8.8073 7.60689 8.79171 7.87484C8.76054 8.41059 8.72116 9.14181 8.68834 9.92297C8.62366 11.4626 8.58077 13.2649 8.69278 14.1067C8.91136 15.7492 9.91149 19.4363 13.7798 21.1072L13.9816 21.1944L14.1822 21.1047C17.8564 19.4618 19.0853 16.1532 19.3687 14.1094C19.5118 13.078 19.4391 11.2731 19.3387 9.77334C19.2878 9.01332 19.2284 8.31497 19.1818 7.80678C19.1585 7.55258 19.1384 7.34571 19.1241 7.20218C19.1169 7.13041 19.1112 7.07447 19.1073 7.03635L19.1027 6.99279L19.1015 6.9815L19.1012 6.97856L19.1011 6.97777L19.1011 6.97755C19.1011 6.97749 19.1011 6.97745 18.6039 7.03035Z" fill="#E31D1C" stroke="white"/>
<mask id="mask2_566_17133" style="mask-type:luminance" maskUnits="userSpaceOnUse" x="8" y="6" width="12" height="16">
<path d="M18.6039 7.03035L19.1011 6.97745L19.0535 6.53035H18.6039H9.34483H8.87741L8.84596 6.99671L9.34483 7.03035L8.84595 6.9968L8.84594 6.99702L8.84589 6.99781L8.84568 7.00088L8.84489 7.01281L8.84183 7.05906L8.8305 7.23526C8.82084 7.38764 8.8073 7.60689 8.79171 7.87484C8.76054 8.41059 8.72116 9.14181 8.68834 9.92297C8.62366 11.4626 8.58077 13.2649 8.69278 14.1067C8.91136 15.7492 9.91149 19.4363 13.7798 21.1072L13.9816 21.1944L14.1822 21.1047C17.8564 19.4618 19.0853 16.1532 19.3687 14.1094C19.5118 13.078 19.4391 11.2731 19.3387 9.77334C19.2878 9.01332 19.2284 8.31497 19.1818 7.80678C19.1585 7.55258 19.1384 7.34571 19.1241 7.20218C19.1169 7.13041 19.1112 7.07447 19.1073 7.03635L19.1027 6.99279L19.1015 6.9815L19.1012 6.97856L19.1011 6.97777L19.1011 6.97755C19.1011 6.97749 19.1011 6.97745 18.6039 7.03035Z" fill="white" stroke="white"/>
</mask>
<g mask="url(#mask2_566_17133)">
<path fill-rule="evenodd" clip-rule="evenodd" d="M13.2571 7.58976C13.2571 7.58976 13.4636 7.90438 13.556 8.38546C13.6485 8.86655 13.6644 9.70946 13.6644 9.70946L11.7055 9.46828V10.9536L13.7082 10.6985L13.6756 12.1083C13.6756 12.1083 13.0765 12.1704 12.5851 12.1083C12.0938 12.0462 11.1257 11.786 11.1257 11.786V13.4863C11.1257 13.4863 12.1092 13.1717 12.5851 13.0995C13.061 13.0273 13.6756 13.0995 13.6756 13.0995V15.1878H14.4887V13.0995C14.4887 13.0995 15.3774 13.0222 15.9076 13.1059C16.4378 13.1895 16.9407 13.4863 16.9407 13.4863V11.786C16.9407 11.786 16.4312 12.0398 15.9506 12.103C15.4701 12.1661 14.4887 12.1083 14.4887 12.1083L14.5212 10.6985C14.5212 10.6985 15.1865 10.6297 15.5597 10.6803C15.9329 10.731 16.4 10.9536 16.4 10.9536V9.46828C16.4 9.46828 15.9447 9.71602 15.5865 9.76096C15.2283 9.8059 14.4775 9.70946 14.4775 9.70946C14.4775 9.70946 14.4908 8.8396 14.5678 8.41604C14.6448 7.99248 14.8629 7.58976 14.8629 7.58976H13.2571Z" fill="#F7FCFF"/>
<path fill-rule="evenodd" clip-rule="evenodd" d="M9.89734 17.2453C9.89734 17.2453 10.3368 16.302 11.052 16.1227C11.7671 15.9433 12.517 16.684 12.517 16.684C12.517 16.684 12.9749 15.1875 14.091 15.1875C15.2071 15.1875 15.5988 16.684 15.5988 16.684C15.5988 16.684 16.075 16.1227 16.7598 16.1227C17.4445 16.1227 18.079 17.2453 18.079 17.2453C18.079 17.2453 16.0336 20.9587 13.9882 20.9587C11.9427 20.9587 9.89734 17.2453 9.89734 17.2453Z" fill="#2E42A5"/>
</g>
</g>
</g>
<rect x="3" y="1" width="32" height="24" fill="url(#paint0_linear_566_17133)" style="mix-blend-mode:overlay"/>
</g>
<rect x="3.5" y="1.5" width="31" height="23" rx="1.5" stroke="black" stroke-opacity="0.1" style="mix-blend-mode:multiply"/>
</g>
<defs>
<filter id="filter0_d_566_17133" x="0" y="0" width="38" height="30" filterUnits="userSpaceOnUse" color-interpolation-filters="sRGB">
<feFlood flood-opacity="0" result="BackgroundImageFix"/>
<feColorMatrix in="SourceAlpha" type="matrix" values="0 0 0 0 0 0 0 0 0 0 0 0 0 0 0 0 0 0 127 0" result="hardAlpha"/>
<feOffset dy="2"/>
<feGaussianBlur stdDeviation="1.5"/>
<feColorMatrix type="matrix" values="0 0 0 0 0 0 0 0 0 0 0 0 0 0 0 0 0 0 0.1 0"/>
<feBlend mode="normal" in2="BackgroundImageFix" result="effect1_dropShadow_566_17133"/>
<feBlend mode="normal" in="SourceGraphic" in2="effect1_dropShadow_566_17133" result="shape"/>
</filter>
<linearGradient id="paint0_linear_566_17133" x1="19" y1="1" x2="19" y2="25" gradientUnits="userSpaceOnUse">
<stop stop-color="white" stop-opacity="0.7"/>
<stop offset="1" stop-opacity="0.3"/>
</linearGradient>
<clipPath id="clip0_566_17133">
<rect x="3" y="1" width="32" height="24" rx="2" fill="white"/>
</clipPath>
</defs>
</svg>
