<svg width="38" height="30" viewBox="0 0 38 30" fill="none" xmlns="http://www.w3.org/2000/svg">
<g filter="url(#filter0_d_566_17133)">
<g clip-path="url(#clip0_566_17133)">
<mask id="mask0_566_17133" style="mask-type:luminance" maskUnits="userSpaceOnUse" x="3" y="1" width="32" height="24">
<rect x="3" y="1" width="32" height="24" fill="white"/>
</mask>
<g mask="url(#mask0_566_17133)">
<path fill-rule="evenodd" clip-rule="evenodd" d="M3 1V25H35V1H3Z" fill="#2E42A5"/>
<mask id="mask1_566_17133" style="mask-type:luminance" maskUnits="userSpaceOnUse" x="3" y="1" width="32" height="24">
<path fill-rule="evenodd" clip-rule="evenodd" d="M3 1V25H35V1H3Z" fill="white"/>
</mask>
<g mask="url(#mask1_566_17133)">
<path fill-rule="evenodd" clip-rule="evenodd" d="M3 1V9H35V1H3Z" fill="#F7FCFF"/>
<path fill-rule="evenodd" clip-rule="evenodd" d="M3 17V25H35V17H3Z" fill="#C51918"/>
<path fill-rule="evenodd" clip-rule="evenodd" d="M16.7402 6.03625C16.7402 6.03625 14.6355 5.04231 12.0177 5.04231C9.3999 5.04231 7.29517 6.03625 7.29517 6.03625C7.29517 6.03625 7.52939 10.031 7.89959 12.1472C8.05766 13.0507 8.81739 14.3686 9.5052 14.9923C10.2892 15.7033 12.0177 16.5456 12.0177 16.5456C12.5179 16.2009 13.4532 16.0459 14.6486 14.9923C15.844 13.9387 16.1412 12.1472 16.1412 12.1472L16.7402 6.03625Z" fill="#2E42A5"/>
<path d="M16.462 5.90568L17.3386 6.3434L16.7368 12.366C16.5261 13.6407 15.9988 14.6459 15.1555 15.3891C14.698 15.7922 14.2515 16.0935 13.7728 16.3438C13.5026 16.485 12.3722 17.0673 12.3821 17.0626C12.2688 17.1171 12.1829 17.165 12.1132 17.213L12.0038 17.2884L11.8858 17.2308C10.715 16.6604 9.62274 15.8926 9.07993 15.4004C8.33895 14.7284 7.55766 13.3533 7.3911 12.4012C7.14205 10.9775 6.9187 9.01661 6.76196 6.3434L7.54936 5.93146C7.70492 8.58454 7.89271 10.6995 8.13726 12.0974C8.28195 12.9245 9.0024 14.1925 9.65963 14.7885C10.1454 15.229 10.9279 15.7174 12.0038 16.2486C12.068 16.211 12.1391 16.1738 12.2205 16.1346C12.2228 16.1335 12.9547 15.8085 13.2091 15.6755C13.6552 15.4422 14.0699 15.1625 14.4969 14.7862C15.2455 14.1264 15.7127 13.238 15.9016 12.1093L16.462 5.90568Z" fill="#C51918"/>
<path fill-rule="evenodd" clip-rule="evenodd" d="M8.54211 12.0242C8.54211 12.0242 8.7329 12.6079 9.0856 13.2634C9.60355 13.3999 9.92047 13.3928 10.0206 13.2806C10.3104 12.9563 11.3415 12.8177 11.5338 13.0948C11.6525 13.2657 12.0697 13.3839 12.5259 13.2275L12.475 13.2365C12.5542 13.2077 12.7398 13.1342 12.8542 13.0888C12.902 13.0699 12.9374 13.0558 12.9474 13.0521C13.1191 12.9873 13.2453 12.9533 13.3739 12.9437C13.535 12.9317 13.6895 12.9617 13.8532 13.0397C14.2132 13.2111 14.6572 13.2909 14.9596 13.239C15.3293 12.5952 15.5929 12.0242 15.5929 12.0242L13.8376 10.3396L13.1399 11.0967L11.9808 9.44411L11.0103 11.0967L10.2662 10.3396L8.54211 12.0242ZM9.55688 14.0145C9.47584 13.9053 9.39927 13.7924 9.32729 13.6785C9.77655 13.7604 10.0816 13.7173 10.2513 13.5274C10.3315 13.4376 10.5693 13.3506 10.8399 13.3142C10.9661 13.2973 11.0871 13.2931 11.1799 13.3019C11.2225 13.306 11.2568 13.3126 11.2799 13.3206C11.2874 13.3232 11.2872 13.3229 11.2794 13.3118L11.278 13.3097C11.4849 13.6056 12.0467 13.7642 12.5767 13.5715L12.5259 13.5805C12.6692 13.5364 12.9274 13.4349 13.0202 13.3984L13.0202 13.3984L13.0525 13.3857C13.1997 13.3302 13.3011 13.3029 13.3957 13.2959C13.5048 13.2877 13.6077 13.3077 13.7245 13.3633C14.0432 13.5151 14.4137 13.6054 14.7402 13.6077C14.6706 13.7203 14.5988 13.8323 14.5254 13.941C14.2716 14 13.8789 13.9225 13.5621 13.7495C13.414 13.6686 13.2726 13.6372 13.1252 13.6497C13.0086 13.6597 12.8956 13.6946 12.7428 13.7607C12.7339 13.7646 12.7026 13.7788 12.6603 13.798C12.5604 13.8434 12.3997 13.9165 12.3313 13.945L12.3888 13.9334C11.9923 14.0863 11.6453 13.9736 11.5462 13.8099C11.3694 13.5179 10.4428 13.6608 10.1821 13.9954C10.1126 14.0846 9.90287 14.1009 9.55688 14.0145ZM9.90187 14.4235C9.9214 14.4435 9.94113 14.4633 9.96104 14.4827C10.8642 15.3633 11.9808 15.795 11.9808 15.795C11.9808 15.795 13.3106 15.3926 14.0654 14.5453C14.1298 14.4731 14.1943 14.3947 14.2585 14.312C13.9833 14.2983 13.6807 14.2087 13.418 14.0653C13.3215 14.0126 13.2384 13.9941 13.1502 14.0016C13.0723 14.0083 12.9868 14.0347 12.8615 14.0889C12.8581 14.0904 12.8499 14.0941 12.8379 14.0995C12.7611 14.134 12.528 14.239 12.3888 14.2864L12.4462 14.2748C11.979 14.4696 11.4829 14.3158 11.2895 14.024C11.2723 14.0173 11.2454 14.0113 11.2113 14.0076C11.1337 13.9991 11.0312 14.0032 10.924 14.0197C10.6944 14.0551 10.4939 14.1392 10.4276 14.2244C10.3161 14.3675 10.1413 14.4307 9.90187 14.4235Z" fill="white"/>
<path fill-rule="evenodd" clip-rule="evenodd" d="M10.1468 6.88619H9.44373L9.98907 6.37531L9.44373 5.83546H10.1468L10.4437 5.31143L10.7418 5.83546H11.4437L10.9257 6.34289L11.3857 6.88619H10.7418L10.4437 7.43919L10.1468 6.88619Z" fill="#FECA00"/>
<path fill-rule="evenodd" clip-rule="evenodd" d="M13.4606 6.88619H12.7574L13.3028 6.37531L12.7574 5.83546H13.4606L13.7574 5.31143L14.0555 5.83546H14.7574L14.2394 6.34289L14.6994 6.88619H14.0555L13.7574 7.43919L13.4606 6.88619Z" fill="#FECA00"/>
<path fill-rule="evenodd" clip-rule="evenodd" d="M11.6 8.56748H10.8969L11.4422 8.0566L10.8969 7.51675H11.6L11.8969 6.99272L12.1949 7.51675H12.8969L12.3788 8.02418L12.8388 8.56748H12.1949L11.8969 9.12048L11.6 8.56748Z" fill="#FECA00"/>
</g>
</g>
<rect x="3" y="1" width="32" height="24" fill="url(#paint0_linear_566_17133)" style="mix-blend-mode:overlay"/>
</g>
<rect x="3.5" y="1.5" width="31" height="23" rx="1.5" stroke="black" stroke-opacity="0.1" style="mix-blend-mode:multiply"/>
</g>
<defs>
<filter id="filter0_d_566_17133" x="0" y="0" width="38" height="30" filterUnits="userSpaceOnUse" color-interpolation-filters="sRGB">
<feFlood flood-opacity="0" result="BackgroundImageFix"/>
<feColorMatrix in="SourceAlpha" type="matrix" values="0 0 0 0 0 0 0 0 0 0 0 0 0 0 0 0 0 0 127 0" result="hardAlpha"/>
<feOffset dy="2"/>
<feGaussianBlur stdDeviation="1.5"/>
<feColorMatrix type="matrix" values="0 0 0 0 0 0 0 0 0 0 0 0 0 0 0 0 0 0 0.1 0"/>
<feBlend mode="normal" in2="BackgroundImageFix" result="effect1_dropShadow_566_17133"/>
<feBlend mode="normal" in="SourceGraphic" in2="effect1_dropShadow_566_17133" result="shape"/>
</filter>
<linearGradient id="paint0_linear_566_17133" x1="19" y1="1" x2="19" y2="25" gradientUnits="userSpaceOnUse">
<stop stop-color="white" stop-opacity="0.7"/>
<stop offset="1" stop-opacity="0.3"/>
</linearGradient>
<clipPath id="clip0_566_17133">
<rect x="3" y="1" width="32" height="24" rx="2" fill="white"/>
</clipPath>
</defs>
</svg>
