<svg width="222" height="222" viewBox="0 0 222 222" fill="none" xmlns="http://www.w3.org/2000/svg">
<path d="M1.15152 1.15152H8.72727V8.72727H1.15152V1.15152Z" fill="black"/>
<path d="M8.72727 1.15152H16.303V8.72727H8.72727V1.15152Z" fill="black"/>
<path d="M16.303 1.15152H23.8788V8.72727H16.303V1.15152Z" fill="black"/>
<path d="M23.8788 1.15152H31.4545V8.72727H23.8788V1.15152Z" fill="black"/>
<path d="M31.4545 1.15152H39.0303V8.72727H31.4545V1.15152Z" fill="black"/>
<path d="M39.0303 1.15152H46.6061V8.72727H39.0303V1.15152Z" fill="black"/>
<path d="M46.6061 1.15152H54.1818V8.72727H46.6061V1.15152Z" fill="black"/>
<path d="M76.9091 1.15152H84.4849V8.72727H76.9091V1.15152Z" fill="black"/>
<path d="M92.0606 1.15152H99.6364V8.72727H92.0606V1.15152Z" fill="black"/>
<path d="M99.6364 1.15152H107.212V8.72727H99.6364V1.15152Z" fill="black"/>
<path d="M107.212 1.15152H114.788V8.72727H107.212V1.15152Z" fill="black"/>
<path d="M114.788 1.15152H122.364V8.72727H114.788V1.15152Z" fill="black"/>
<path d="M137.515 1.15152H145.091V8.72727H137.515V1.15152Z" fill="black"/>
<path d="M152.667 1.15152H160.242V8.72727H152.667V1.15152Z" fill="black"/>
<path d="M167.818 1.15152H175.394V8.72727H167.818V1.15152Z" fill="black"/>
<path d="M175.394 1.15152H182.97V8.72727H175.394V1.15152Z" fill="black"/>
<path d="M182.97 1.15152H190.545V8.72727H182.97V1.15152Z" fill="black"/>
<path d="M190.545 1.15152H198.121V8.72727H190.545V1.15152Z" fill="black"/>
<path d="M198.121 1.15152H205.697V8.72727H198.121V1.15152Z" fill="black"/>
<path d="M205.697 1.15152H213.273V8.72727H205.697V1.15152Z" fill="black"/>
<path d="M213.273 1.15152H220.848V8.72727H213.273V1.15152Z" fill="black"/>
<path d="M1.15152 8.72727H8.72727V16.303H1.15152V8.72727Z" fill="black"/>
<path d="M46.6061 8.72727H54.1818V16.303H46.6061V8.72727Z" fill="black"/>
<path d="M69.3333 8.72727H76.9091V16.303H69.3333V8.72727Z" fill="black"/>
<path d="M99.6364 8.72727H107.212V16.303H99.6364V8.72727Z" fill="black"/>
<path d="M107.212 8.72727H114.788V16.303H107.212V8.72727Z" fill="black"/>
<path d="M114.788 8.72727H122.364V16.303H114.788V8.72727Z" fill="black"/>
<path d="M122.364 8.72727H129.939V16.303H122.364V8.72727Z" fill="black"/>
<path d="M129.939 8.72727H137.515V16.303H129.939V8.72727Z" fill="black"/>
<path d="M137.515 8.72727H145.091V16.303H137.515V8.72727Z" fill="black"/>
<path d="M145.091 8.72727H152.667V16.303H145.091V8.72727Z" fill="black"/>
<path d="M152.667 8.72727H160.242V16.303H152.667V8.72727Z" fill="black"/>
<path d="M167.818 8.72727H175.394V16.303H167.818V8.72727Z" fill="black"/>
<path d="M213.273 8.72727H220.848V16.303H213.273V8.72727Z" fill="black"/>
<path d="M1.15152 16.303H8.72727V23.8788H1.15152V16.303Z" fill="black"/>
<path d="M16.303 16.303H23.8788V23.8788H16.303V16.303Z" fill="black"/>
<path d="M23.8788 16.303H31.4545V23.8788H23.8788V16.303Z" fill="black"/>
<path d="M31.4545 16.303H39.0303V23.8788H31.4545V16.303Z" fill="black"/>
<path d="M46.6061 16.303H54.1818V23.8788H46.6061V16.303Z" fill="black"/>
<path d="M76.9091 16.303H84.4849V23.8788H76.9091V16.303Z" fill="black"/>
<path d="M84.4849 16.303H92.0606V23.8788H84.4849V16.303Z" fill="black"/>
<path d="M99.6364 16.303H107.212V23.8788H99.6364V16.303Z" fill="black"/>
<path d="M114.788 16.303H122.364V23.8788H114.788V16.303Z" fill="black"/>
<path d="M122.364 16.303H129.939V23.8788H122.364V16.303Z" fill="black"/>
<path d="M137.515 16.303H145.091V23.8788H137.515V16.303Z" fill="black"/>
<path d="M152.667 16.303H160.242V23.8788H152.667V16.303Z" fill="black"/>
<path d="M167.818 16.303H175.394V23.8788H167.818V16.303Z" fill="black"/>
<path d="M182.97 16.303H190.545V23.8788H182.97V16.303Z" fill="black"/>
<path d="M190.545 16.303H198.121V23.8788H190.545V16.303Z" fill="black"/>
<path d="M198.121 16.303H205.697V23.8788H198.121V16.303Z" fill="black"/>
<path d="M213.273 16.303H220.848V23.8788H213.273V16.303Z" fill="black"/>
<path d="M1.15152 23.8788H8.72727V31.4545H1.15152V23.8788Z" fill="black"/>
<path d="M16.303 23.8788H23.8788V31.4545H16.303V23.8788Z" fill="black"/>
<path d="M23.8788 23.8788H31.4545V31.4545H23.8788V23.8788Z" fill="black"/>
<path d="M31.4545 23.8788H39.0303V31.4545H31.4545V23.8788Z" fill="black"/>
<path d="M46.6061 23.8788H54.1818V31.4545H46.6061V23.8788Z" fill="black"/>
<path d="M107.212 23.8788H114.788V31.4545H107.212V23.8788Z" fill="black"/>
<path d="M129.939 23.8788H137.515V31.4545H129.939V23.8788Z" fill="black"/>
<path d="M145.091 23.8788H152.667V31.4545H145.091V23.8788Z" fill="black"/>
<path d="M152.667 23.8788H160.242V31.4545H152.667V23.8788Z" fill="black"/>
<path d="M167.818 23.8788H175.394V31.4545H167.818V23.8788Z" fill="black"/>
<path d="M182.97 23.8788H190.545V31.4545H182.97V23.8788Z" fill="black"/>
<path d="M190.545 23.8788H198.121V31.4545H190.545V23.8788Z" fill="black"/>
<path d="M198.121 23.8788H205.697V31.4545H198.121V23.8788Z" fill="black"/>
<path d="M213.273 23.8788H220.848V31.4545H213.273V23.8788Z" fill="black"/>
<path d="M1.15152 31.4545H8.72727V39.0303H1.15152V31.4545Z" fill="black"/>
<path d="M16.303 31.4545H23.8788V39.0303H16.303V31.4545Z" fill="black"/>
<path d="M23.8788 31.4545H31.4545V39.0303H23.8788V31.4545Z" fill="black"/>
<path d="M31.4545 31.4545H39.0303V39.0303H31.4545V31.4545Z" fill="black"/>
<path d="M46.6061 31.4545H54.1818V39.0303H46.6061V31.4545Z" fill="black"/>
<path d="M61.7576 31.4545H69.3333V39.0303H61.7576V31.4545Z" fill="black"/>
<path d="M84.4849 31.4545H92.0606V39.0303H84.4849V31.4545Z" fill="black"/>
<path d="M107.212 31.4545H114.788V39.0303H107.212V31.4545Z" fill="black"/>
<path d="M114.788 31.4545H122.364V39.0303H114.788V31.4545Z" fill="black"/>
<path d="M122.364 31.4545H129.939V39.0303H122.364V31.4545Z" fill="black"/>
<path d="M129.939 31.4545H137.515V39.0303H129.939V31.4545Z" fill="black"/>
<path d="M145.091 31.4545H152.667V39.0303H145.091V31.4545Z" fill="black"/>
<path d="M167.818 31.4545H175.394V39.0303H167.818V31.4545Z" fill="black"/>
<path d="M182.97 31.4545H190.545V39.0303H182.97V31.4545Z" fill="black"/>
<path d="M190.545 31.4545H198.121V39.0303H190.545V31.4545Z" fill="black"/>
<path d="M198.121 31.4545H205.697V39.0303H198.121V31.4545Z" fill="black"/>
<path d="M213.273 31.4545H220.848V39.0303H213.273V31.4545Z" fill="black"/>
<path d="M1.15152 39.0303H8.72727V46.6061H1.15152V39.0303Z" fill="black"/>
<path d="M46.6061 39.0303H54.1818V46.6061H46.6061V39.0303Z" fill="black"/>
<path d="M76.9091 39.0303H84.4849V46.6061H76.9091V39.0303Z" fill="black"/>
<path d="M99.6364 39.0303H107.212V46.6061H99.6364V39.0303Z" fill="black"/>
<path d="M114.788 39.0303H122.364V46.6061H114.788V39.0303Z" fill="black"/>
<path d="M145.091 39.0303H152.667V46.6061H145.091V39.0303Z" fill="black"/>
<path d="M152.667 39.0303H160.242V46.6061H152.667V39.0303Z" fill="black"/>
<path d="M167.818 39.0303H175.394V46.6061H167.818V39.0303Z" fill="black"/>
<path d="M213.273 39.0303H220.848V46.6061H213.273V39.0303Z" fill="black"/>
<path d="M1.15152 46.6061H8.72727V54.1818H1.15152V46.6061Z" fill="black"/>
<path d="M8.72727 46.6061H16.303V54.1818H8.72727V46.6061Z" fill="black"/>
<path d="M16.303 46.6061H23.8788V54.1818H16.303V46.6061Z" fill="black"/>
<path d="M23.8788 46.6061H31.4545V54.1818H23.8788V46.6061Z" fill="black"/>
<path d="M31.4545 46.6061H39.0303V54.1818H31.4545V46.6061Z" fill="black"/>
<path d="M39.0303 46.6061H46.6061V54.1818H39.0303V46.6061Z" fill="black"/>
<path d="M46.6061 46.6061H54.1818V54.1818H46.6061V46.6061Z" fill="black"/>
<path d="M61.7576 46.6061H69.3333V54.1818H61.7576V46.6061Z" fill="black"/>
<path d="M76.9091 46.6061H84.4849V54.1818H76.9091V46.6061Z" fill="black"/>
<path d="M92.0606 46.6061H99.6364V54.1818H92.0606V46.6061Z" fill="black"/>
<path d="M107.212 46.6061H114.788V54.1818H107.212V46.6061Z" fill="black"/>
<path d="M122.364 46.6061H129.939V54.1818H122.364V46.6061Z" fill="black"/>
<path d="M137.515 46.6061H145.091V54.1818H137.515V46.6061Z" fill="black"/>
<path d="M152.667 46.6061H160.242V54.1818H152.667V46.6061Z" fill="black"/>
<path d="M167.818 46.6061H175.394V54.1818H167.818V46.6061Z" fill="black"/>
<path d="M175.394 46.6061H182.97V54.1818H175.394V46.6061Z" fill="black"/>
<path d="M182.97 46.6061H190.545V54.1818H182.97V46.6061Z" fill="black"/>
<path d="M190.545 46.6061H198.121V54.1818H190.545V46.6061Z" fill="black"/>
<path d="M198.121 46.6061H205.697V54.1818H198.121V46.6061Z" fill="black"/>
<path d="M205.697 46.6061H213.273V54.1818H205.697V46.6061Z" fill="black"/>
<path d="M213.273 46.6061H220.848V54.1818H213.273V46.6061Z" fill="black"/>
<path d="M61.7576 54.1818H69.3333V61.7576H61.7576V54.1818Z" fill="black"/>
<path d="M76.9091 54.1818H84.4849V61.7576H76.9091V54.1818Z" fill="black"/>
<path d="M92.0606 54.1818H99.6364V61.7576H92.0606V54.1818Z" fill="black"/>
<path d="M107.212 54.1818H114.788V61.7576H107.212V54.1818Z" fill="black"/>
<path d="M114.788 54.1818H122.364V61.7576H114.788V54.1818Z" fill="black"/>
<path d="M129.939 54.1818H137.515V61.7576H129.939V54.1818Z" fill="black"/>
<path d="M137.515 54.1818H145.091V61.7576H137.515V54.1818Z" fill="black"/>
<path d="M152.667 54.1818H160.242V61.7576H152.667V54.1818Z" fill="black"/>
<path d="M16.303 61.7576H23.8788V69.3333H16.303V61.7576Z" fill="black"/>
<path d="M23.8788 61.7576H31.4545V69.3333H23.8788V61.7576Z" fill="black"/>
<path d="M46.6061 61.7576H54.1818V69.3333H46.6061V61.7576Z" fill="black"/>
<path d="M54.1818 61.7576H61.7576V69.3333H54.1818V61.7576Z" fill="black"/>
<path d="M61.7576 61.7576H69.3333V69.3333H61.7576V61.7576Z" fill="black"/>
<path d="M92.0606 61.7576H99.6364V69.3333H92.0606V61.7576Z" fill="black"/>
<path d="M122.364 61.7576H129.939V69.3333H122.364V61.7576Z" fill="black"/>
<path d="M145.091 61.7576H152.667V69.3333H145.091V61.7576Z" fill="black"/>
<path d="M152.667 61.7576H160.242V69.3333H152.667V61.7576Z" fill="black"/>
<path d="M160.242 61.7576H167.818V69.3333H160.242V61.7576Z" fill="black"/>
<path d="M167.818 61.7576H175.394V69.3333H167.818V61.7576Z" fill="black"/>
<path d="M182.97 61.7576H190.545V69.3333H182.97V61.7576Z" fill="black"/>
<path d="M1.15152 69.3333H8.72727V76.9091H1.15152V69.3333Z" fill="black"/>
<path d="M16.303 69.3333H23.8788V76.9091H16.303V69.3333Z" fill="black"/>
<path d="M23.8788 69.3333H31.4545V76.9091H23.8788V69.3333Z" fill="black"/>
<path d="M31.4545 69.3333H39.0303V76.9091H31.4545V69.3333Z" fill="black"/>
<path d="M39.0303 69.3333H46.6061V76.9091H39.0303V69.3333Z" fill="black"/>
<path d="M61.7576 69.3333H69.3333V76.9091H61.7576V69.3333Z" fill="black"/>
<path d="M69.3333 69.3333H76.9091V76.9091H69.3333V69.3333Z" fill="black"/>
<path d="M84.4849 69.3333H92.0606V76.9091H84.4849V69.3333Z" fill="black"/>
<path d="M92.0606 69.3333H99.6364V76.9091H92.0606V69.3333Z" fill="black"/>
<path d="M99.6364 69.3333H107.212V76.9091H99.6364V69.3333Z" fill="black"/>
<path d="M107.212 69.3333H114.788V76.9091H107.212V69.3333Z" fill="black"/>
<path d="M114.788 69.3333H122.364V76.9091H114.788V69.3333Z" fill="black"/>
<path d="M122.364 69.3333H129.939V76.9091H122.364V69.3333Z" fill="black"/>
<path d="M129.939 69.3333H137.515V76.9091H129.939V69.3333Z" fill="black"/>
<path d="M167.818 69.3333H175.394V76.9091H167.818V69.3333Z" fill="black"/>
<path d="M175.394 69.3333H182.97V76.9091H175.394V69.3333Z" fill="black"/>
<path d="M182.97 69.3333H190.545V76.9091H182.97V69.3333Z" fill="black"/>
<path d="M190.545 69.3333H198.121V76.9091H190.545V69.3333Z" fill="black"/>
<path d="M198.121 69.3333H205.697V76.9091H198.121V69.3333Z" fill="black"/>
<path d="M213.273 69.3333H220.848V76.9091H213.273V69.3333Z" fill="black"/>
<path d="M1.15152 76.9091H8.72727V84.4849H1.15152V76.9091Z" fill="black"/>
<path d="M8.72727 76.9091H16.303V84.4849H8.72727V76.9091Z" fill="black"/>
<path d="M16.303 76.9091H23.8788V84.4849H16.303V76.9091Z" fill="black"/>
<path d="M46.6061 76.9091H54.1818V84.4849H46.6061V76.9091Z" fill="black"/>
<path d="M54.1818 76.9091H61.7576V84.4849H54.1818V76.9091Z" fill="black"/>
<path d="M69.3333 76.9091H76.9091V84.4849H69.3333V76.9091Z" fill="black"/>
<path d="M84.4849 76.9091H92.0606V84.4849H84.4849V76.9091Z" fill="black"/>
<path d="M92.0606 76.9091H99.6364V84.4849H92.0606V76.9091Z" fill="black"/>
<path d="M107.212 76.9091H114.788V84.4849H107.212V76.9091Z" fill="black"/>
<path d="M114.788 76.9091H122.364V84.4849H114.788V76.9091Z" fill="black"/>
<path d="M122.364 76.9091H129.939V84.4849H122.364V76.9091Z" fill="black"/>
<path d="M129.939 76.9091H137.515V84.4849H129.939V76.9091Z" fill="black"/>
<path d="M167.818 76.9091H175.394V84.4849H167.818V76.9091Z" fill="black"/>
<path d="M205.697 76.9091H213.273V84.4849H205.697V76.9091Z" fill="black"/>
<path d="M8.72727 84.4849H16.303V92.0606H8.72727V84.4849Z" fill="black"/>
<path d="M16.303 84.4849H23.8788V92.0606H16.303V84.4849Z" fill="black"/>
<path d="M23.8788 84.4849H31.4545V92.0606H23.8788V84.4849Z" fill="black"/>
<path d="M39.0303 84.4849H46.6061V92.0606H39.0303V84.4849Z" fill="black"/>
<path d="M54.1818 84.4849H61.7576V92.0606H54.1818V84.4849Z" fill="black"/>
<path d="M69.3333 84.4849H76.9091V92.0606H69.3333V84.4849Z" fill="black"/>
<path d="M84.4849 84.4849H92.0606V92.0606H84.4849V84.4849Z" fill="black"/>
<path d="M92.0606 84.4849H99.6364V92.0606H92.0606V84.4849Z" fill="black"/>
<path d="M122.364 84.4849H129.939V92.0606H122.364V84.4849Z" fill="black"/>
<path d="M137.515 84.4849H145.091V92.0606H137.515V84.4849Z" fill="black"/>
<path d="M145.091 84.4849H152.667V92.0606H145.091V84.4849Z" fill="black"/>
<path d="M213.273 84.4849H220.848V92.0606H213.273V84.4849Z" fill="black"/>
<path d="M1.15152 92.0606H8.72727V99.6364H1.15152V92.0606Z" fill="black"/>
<path d="M8.72727 92.0606H16.303V99.6364H8.72727V92.0606Z" fill="black"/>
<path d="M23.8788 92.0606H31.4545V99.6364H23.8788V92.0606Z" fill="black"/>
<path d="M31.4545 92.0606H39.0303V99.6364H31.4545V92.0606Z" fill="black"/>
<path d="M39.0303 92.0606H46.6061V99.6364H39.0303V92.0606Z" fill="black"/>
<path d="M46.6061 92.0606H54.1818V99.6364H46.6061V92.0606Z" fill="black"/>
<path d="M61.7576 92.0606H69.3333V99.6364H61.7576V92.0606Z" fill="black"/>
<path d="M76.9091 92.0606H84.4849V99.6364H76.9091V92.0606Z" fill="black"/>
<path d="M92.0606 92.0606H99.6364V99.6364H92.0606V92.0606Z" fill="black"/>
<path d="M129.939 92.0606H137.515V99.6364H129.939V92.0606Z" fill="black"/>
<path d="M137.515 92.0606H145.091V99.6364H137.515V92.0606Z" fill="black"/>
<path d="M160.242 92.0606H167.818V99.6364H160.242V92.0606Z" fill="black"/>
<path d="M175.394 92.0606H182.97V99.6364H175.394V92.0606Z" fill="black"/>
<path d="M198.121 92.0606H205.697V99.6364H198.121V92.0606Z" fill="black"/>
<path d="M205.697 92.0606H213.273V99.6364H205.697V92.0606Z" fill="black"/>
<path d="M213.273 92.0606H220.848V99.6364H213.273V92.0606Z" fill="black"/>
<path d="M8.72727 99.6364H16.303V107.212H8.72727V99.6364Z" fill="black"/>
<path d="M61.7576 99.6364H69.3333V107.212H61.7576V99.6364Z" fill="black"/>
<path d="M69.3333 99.6364H76.9091V107.212H69.3333V99.6364Z" fill="black"/>
<path d="M76.9091 99.6364H84.4849V107.212H76.9091V99.6364Z" fill="black"/>
<path d="M84.4849 99.6364H92.0606V107.212H84.4849V99.6364Z" fill="black"/>
<path d="M107.212 99.6364H114.788V107.212H107.212V99.6364Z" fill="black"/>
<path d="M114.788 99.6364H122.364V107.212H114.788V99.6364Z" fill="black"/>
<path d="M137.515 99.6364H145.091V107.212H137.515V99.6364Z" fill="black"/>
<path d="M145.091 99.6364H152.667V107.212H145.091V99.6364Z" fill="black"/>
<path d="M167.818 99.6364H175.394V107.212H167.818V99.6364Z" fill="black"/>
<path d="M175.394 99.6364H182.97V107.212H175.394V99.6364Z" fill="black"/>
<path d="M190.545 99.6364H198.121V107.212H190.545V99.6364Z" fill="black"/>
<path d="M198.121 99.6364H205.697V107.212H198.121V99.6364Z" fill="black"/>
<path d="M213.273 99.6364H220.848V107.212H213.273V99.6364Z" fill="black"/>
<path d="M16.303 107.212H23.8788V114.788H16.303V107.212Z" fill="black"/>
<path d="M23.8788 107.212H31.4545V114.788H23.8788V107.212Z" fill="black"/>
<path d="M39.0303 107.212H46.6061V114.788H39.0303V107.212Z" fill="black"/>
<path d="M46.6061 107.212H54.1818V114.788H46.6061V107.212Z" fill="black"/>
<path d="M69.3333 107.212H76.9091V114.788H69.3333V107.212Z" fill="black"/>
<path d="M76.9091 107.212H84.4849V114.788H76.9091V107.212Z" fill="black"/>
<path d="M84.4849 107.212H92.0606V114.788H84.4849V107.212Z" fill="black"/>
<path d="M92.0606 107.212H99.6364V114.788H92.0606V107.212Z" fill="black"/>
<path d="M99.6364 107.212H107.212V114.788H99.6364V107.212Z" fill="black"/>
<path d="M122.364 107.212H129.939V114.788H122.364V107.212Z" fill="black"/>
<path d="M129.939 107.212H137.515V114.788H129.939V107.212Z" fill="black"/>
<path d="M137.515 107.212H145.091V114.788H137.515V107.212Z" fill="black"/>
<path d="M145.091 107.212H152.667V114.788H145.091V107.212Z" fill="black"/>
<path d="M167.818 107.212H175.394V114.788H167.818V107.212Z" fill="black"/>
<path d="M175.394 107.212H182.97V114.788H175.394V107.212Z" fill="black"/>
<path d="M182.97 107.212H190.545V114.788H182.97V107.212Z" fill="black"/>
<path d="M190.545 107.212H198.121V114.788H190.545V107.212Z" fill="black"/>
<path d="M205.697 107.212H213.273V114.788H205.697V107.212Z" fill="black"/>
<path d="M213.273 107.212H220.848V114.788H213.273V107.212Z" fill="black"/>
<path d="M31.4545 114.788H39.0303V122.364H31.4545V114.788Z" fill="black"/>
<path d="M54.1818 114.788H61.7576V122.364H54.1818V114.788Z" fill="black"/>
<path d="M61.7576 114.788H69.3333V122.364H61.7576V114.788Z" fill="black"/>
<path d="M76.9091 114.788H84.4849V122.364H76.9091V114.788Z" fill="black"/>
<path d="M84.4849 114.788H92.0606V122.364H84.4849V114.788Z" fill="black"/>
<path d="M92.0606 114.788H99.6364V122.364H92.0606V114.788Z" fill="black"/>
<path d="M122.364 114.788H129.939V122.364H122.364V114.788Z" fill="black"/>
<path d="M129.939 114.788H137.515V122.364H129.939V114.788Z" fill="black"/>
<path d="M152.667 114.788H160.242V122.364H152.667V114.788Z" fill="black"/>
<path d="M160.242 114.788H167.818V122.364H160.242V114.788Z" fill="black"/>
<path d="M182.97 114.788H190.545V122.364H182.97V114.788Z" fill="black"/>
<path d="M190.545 114.788H198.121V122.364H190.545V114.788Z" fill="black"/>
<path d="M205.697 114.788H213.273V122.364H205.697V114.788Z" fill="black"/>
<path d="M16.303 122.364H23.8788V129.939H16.303V122.364Z" fill="black"/>
<path d="M31.4545 122.364H39.0303V129.939H31.4545V122.364Z" fill="black"/>
<path d="M46.6061 122.364H54.1818V129.939H46.6061V122.364Z" fill="black"/>
<path d="M61.7576 122.364H69.3333V129.939H61.7576V122.364Z" fill="black"/>
<path d="M69.3333 122.364H76.9091V129.939H69.3333V122.364Z" fill="black"/>
<path d="M99.6364 122.364H107.212V129.939H99.6364V122.364Z" fill="black"/>
<path d="M122.364 122.364H129.939V129.939H122.364V122.364Z" fill="black"/>
<path d="M129.939 122.364H137.515V129.939H129.939V122.364Z" fill="black"/>
<path d="M145.091 122.364H152.667V129.939H145.091V122.364Z" fill="black"/>
<path d="M152.667 122.364H160.242V129.939H152.667V122.364Z" fill="black"/>
<path d="M160.242 122.364H167.818V129.939H160.242V122.364Z" fill="black"/>
<path d="M175.394 122.364H182.97V129.939H175.394V122.364Z" fill="black"/>
<path d="M182.97 122.364H190.545V129.939H182.97V122.364Z" fill="black"/>
<path d="M190.545 122.364H198.121V129.939H190.545V122.364Z" fill="black"/>
<path d="M213.273 122.364H220.848V129.939H213.273V122.364Z" fill="black"/>
<path d="M8.72727 129.939H16.303V137.515H8.72727V129.939Z" fill="black"/>
<path d="M16.303 129.939H23.8788V137.515H16.303V129.939Z" fill="black"/>
<path d="M23.8788 129.939H31.4545V137.515H23.8788V129.939Z" fill="black"/>
<path d="M39.0303 129.939H46.6061V137.515H39.0303V129.939Z" fill="black"/>
<path d="M61.7576 129.939H69.3333V137.515H61.7576V129.939Z" fill="black"/>
<path d="M76.9091 129.939H84.4849V137.515H76.9091V129.939Z" fill="black"/>
<path d="M84.4849 129.939H92.0606V137.515H84.4849V129.939Z" fill="black"/>
<path d="M92.0606 129.939H99.6364V137.515H92.0606V129.939Z" fill="black"/>
<path d="M107.212 129.939H114.788V137.515H107.212V129.939Z" fill="black"/>
<path d="M114.788 129.939H122.364V137.515H114.788V129.939Z" fill="black"/>
<path d="M129.939 129.939H137.515V137.515H129.939V129.939Z" fill="black"/>
<path d="M145.091 129.939H152.667V137.515H145.091V129.939Z" fill="black"/>
<path d="M152.667 129.939H160.242V137.515H152.667V129.939Z" fill="black"/>
<path d="M160.242 129.939H167.818V137.515H160.242V129.939Z" fill="black"/>
<path d="M175.394 129.939H182.97V137.515H175.394V129.939Z" fill="black"/>
<path d="M198.121 129.939H205.697V137.515H198.121V129.939Z" fill="black"/>
<path d="M1.15152 137.515H8.72727V145.091H1.15152V137.515Z" fill="black"/>
<path d="M16.303 137.515H23.8788V145.091H16.303V137.515Z" fill="black"/>
<path d="M39.0303 137.515H46.6061V145.091H39.0303V137.515Z" fill="black"/>
<path d="M46.6061 137.515H54.1818V145.091H46.6061V137.515Z" fill="black"/>
<path d="M54.1818 137.515H61.7576V145.091H54.1818V137.515Z" fill="black"/>
<path d="M69.3333 137.515H76.9091V145.091H69.3333V137.515Z" fill="black"/>
<path d="M84.4849 137.515H92.0606V145.091H84.4849V137.515Z" fill="black"/>
<path d="M92.0606 137.515H99.6364V145.091H92.0606V137.515Z" fill="black"/>
<path d="M107.212 137.515H114.788V145.091H107.212V137.515Z" fill="black"/>
<path d="M122.364 137.515H129.939V145.091H122.364V137.515Z" fill="black"/>
<path d="M129.939 137.515H137.515V145.091H129.939V137.515Z" fill="black"/>
<path d="M145.091 137.515H152.667V145.091H145.091V137.515Z" fill="black"/>
<path d="M167.818 137.515H175.394V145.091H167.818V137.515Z" fill="black"/>
<path d="M190.545 137.515H198.121V145.091H190.545V137.515Z" fill="black"/>
<path d="M198.121 137.515H205.697V145.091H198.121V137.515Z" fill="black"/>
<path d="M16.303 145.091H23.8788V152.667H16.303V145.091Z" fill="black"/>
<path d="M31.4545 145.091H39.0303V152.667H31.4545V145.091Z" fill="black"/>
<path d="M69.3333 145.091H76.9091V152.667H69.3333V145.091Z" fill="black"/>
<path d="M84.4849 145.091H92.0606V152.667H84.4849V145.091Z" fill="black"/>
<path d="M99.6364 145.091H107.212V152.667H99.6364V145.091Z" fill="black"/>
<path d="M107.212 145.091H114.788V152.667H107.212V145.091Z" fill="black"/>
<path d="M137.515 145.091H145.091V152.667H137.515V145.091Z" fill="black"/>
<path d="M145.091 145.091H152.667V152.667H145.091V145.091Z" fill="black"/>
<path d="M160.242 145.091H167.818V152.667H160.242V145.091Z" fill="black"/>
<path d="M167.818 145.091H175.394V152.667H167.818V145.091Z" fill="black"/>
<path d="M182.97 145.091H190.545V152.667H182.97V145.091Z" fill="black"/>
<path d="M190.545 145.091H198.121V152.667H190.545V145.091Z" fill="black"/>
<path d="M198.121 145.091H205.697V152.667H198.121V145.091Z" fill="black"/>
<path d="M8.72727 152.667H16.303V160.242H8.72727V152.667Z" fill="black"/>
<path d="M16.303 152.667H23.8788V160.242H16.303V152.667Z" fill="black"/>
<path d="M31.4545 152.667H39.0303V160.242H31.4545V152.667Z" fill="black"/>
<path d="M39.0303 152.667H46.6061V160.242H39.0303V152.667Z" fill="black"/>
<path d="M46.6061 152.667H54.1818V160.242H46.6061V152.667Z" fill="black"/>
<path d="M69.3333 152.667H76.9091V160.242H69.3333V152.667Z" fill="black"/>
<path d="M76.9091 152.667H84.4849V160.242H76.9091V152.667Z" fill="black"/>
<path d="M92.0606 152.667H99.6364V160.242H92.0606V152.667Z" fill="black"/>
<path d="M114.788 152.667H122.364V160.242H114.788V152.667Z" fill="black"/>
<path d="M152.667 152.667H160.242V160.242H152.667V152.667Z" fill="black"/>
<path d="M160.242 152.667H167.818V160.242H160.242V152.667Z" fill="black"/>
<path d="M167.818 152.667H175.394V160.242H167.818V152.667Z" fill="black"/>
<path d="M175.394 152.667H182.97V160.242H175.394V152.667Z" fill="black"/>
<path d="M182.97 152.667H190.545V160.242H182.97V152.667Z" fill="black"/>
<path d="M198.121 152.667H205.697V160.242H198.121V152.667Z" fill="black"/>
<path d="M205.697 152.667H213.273V160.242H205.697V152.667Z" fill="black"/>
<path d="M213.273 152.667H220.848V160.242H213.273V152.667Z" fill="black"/>
<path d="M61.7576 160.242H69.3333V167.818H61.7576V160.242Z" fill="black"/>
<path d="M69.3333 160.242H76.9091V167.818H69.3333V160.242Z" fill="black"/>
<path d="M99.6364 160.242H107.212V167.818H99.6364V160.242Z" fill="black"/>
<path d="M107.212 160.242H114.788V167.818H107.212V160.242Z" fill="black"/>
<path d="M114.788 160.242H122.364V167.818H114.788V160.242Z" fill="black"/>
<path d="M122.364 160.242H129.939V167.818H122.364V160.242Z" fill="black"/>
<path d="M129.939 160.242H137.515V167.818H129.939V160.242Z" fill="black"/>
<path d="M152.667 160.242H160.242V167.818H152.667V160.242Z" fill="black"/>
<path d="M182.97 160.242H190.545V167.818H182.97V160.242Z" fill="black"/>
<path d="M190.545 160.242H198.121V167.818H190.545V160.242Z" fill="black"/>
<path d="M205.697 160.242H213.273V167.818H205.697V160.242Z" fill="black"/>
<path d="M213.273 160.242H220.848V167.818H213.273V160.242Z" fill="black"/>
<path d="M1.15152 167.818H8.72727V175.394H1.15152V167.818Z" fill="black"/>
<path d="M8.72727 167.818H16.303V175.394H8.72727V167.818Z" fill="black"/>
<path d="M16.303 167.818H23.8788V175.394H16.303V167.818Z" fill="black"/>
<path d="M23.8788 167.818H31.4545V175.394H23.8788V167.818Z" fill="black"/>
<path d="M31.4545 167.818H39.0303V175.394H31.4545V167.818Z" fill="black"/>
<path d="M39.0303 167.818H46.6061V175.394H39.0303V167.818Z" fill="black"/>
<path d="M46.6061 167.818H54.1818V175.394H46.6061V167.818Z" fill="black"/>
<path d="M61.7576 167.818H69.3333V175.394H61.7576V167.818Z" fill="black"/>
<path d="M69.3333 167.818H76.9091V175.394H69.3333V167.818Z" fill="black"/>
<path d="M76.9091 167.818H84.4849V175.394H76.9091V167.818Z" fill="black"/>
<path d="M107.212 167.818H114.788V175.394H107.212V167.818Z" fill="black"/>
<path d="M114.788 167.818H122.364V175.394H114.788V167.818Z" fill="black"/>
<path d="M129.939 167.818H137.515V175.394H129.939V167.818Z" fill="black"/>
<path d="M145.091 167.818H152.667V175.394H145.091V167.818Z" fill="black"/>
<path d="M152.667 167.818H160.242V175.394H152.667V167.818Z" fill="black"/>
<path d="M167.818 167.818H175.394V175.394H167.818V167.818Z" fill="black"/>
<path d="M182.97 167.818H190.545V175.394H182.97V167.818Z" fill="black"/>
<path d="M198.121 167.818H205.697V175.394H198.121V167.818Z" fill="black"/>
<path d="M205.697 167.818H213.273V175.394H205.697V167.818Z" fill="black"/>
<path d="M1.15152 175.394H8.72727V182.97H1.15152V175.394Z" fill="black"/>
<path d="M46.6061 175.394H54.1818V182.97H46.6061V175.394Z" fill="black"/>
<path d="M84.4849 175.394H92.0606V182.97H84.4849V175.394Z" fill="black"/>
<path d="M122.364 175.394H129.939V182.97H122.364V175.394Z" fill="black"/>
<path d="M152.667 175.394H160.242V182.97H152.667V175.394Z" fill="black"/>
<path d="M182.97 175.394H190.545V182.97H182.97V175.394Z" fill="black"/>
<path d="M205.697 175.394H213.273V182.97H205.697V175.394Z" fill="black"/>
<path d="M1.15152 182.97H8.72727V190.545H1.15152V182.97Z" fill="black"/>
<path d="M16.303 182.97H23.8788V190.545H16.303V182.97Z" fill="black"/>
<path d="M23.8788 182.97H31.4545V190.545H23.8788V182.97Z" fill="black"/>
<path d="M31.4545 182.97H39.0303V190.545H31.4545V182.97Z" fill="black"/>
<path d="M46.6061 182.97H54.1818V190.545H46.6061V182.97Z" fill="black"/>
<path d="M76.9091 182.97H84.4849V190.545H76.9091V182.97Z" fill="black"/>
<path d="M84.4849 182.97H92.0606V190.545H84.4849V182.97Z" fill="black"/>
<path d="M99.6364 182.97H107.212V190.545H99.6364V182.97Z" fill="black"/>
<path d="M122.364 182.97H129.939V190.545H122.364V182.97Z" fill="black"/>
<path d="M129.939 182.97H137.515V190.545H129.939V182.97Z" fill="black"/>
<path d="M137.515 182.97H145.091V190.545H137.515V182.97Z" fill="black"/>
<path d="M152.667 182.97H160.242V190.545H152.667V182.97Z" fill="black"/>
<path d="M160.242 182.97H167.818V190.545H160.242V182.97Z" fill="black"/>
<path d="M167.818 182.97H175.394V190.545H167.818V182.97Z" fill="black"/>
<path d="M175.394 182.97H182.97V190.545H175.394V182.97Z" fill="black"/>
<path d="M182.97 182.97H190.545V190.545H182.97V182.97Z" fill="black"/>
<path d="M190.545 182.97H198.121V190.545H190.545V182.97Z" fill="black"/>
<path d="M198.121 182.97H205.697V190.545H198.121V182.97Z" fill="black"/>
<path d="M1.15152 190.545H8.72727V198.121H1.15152V190.545Z" fill="black"/>
<path d="M16.303 190.545H23.8788V198.121H16.303V190.545Z" fill="black"/>
<path d="M23.8788 190.545H31.4545V198.121H23.8788V190.545Z" fill="black"/>
<path d="M31.4545 190.545H39.0303V198.121H31.4545V190.545Z" fill="black"/>
<path d="M46.6061 190.545H54.1818V198.121H46.6061V190.545Z" fill="black"/>
<path d="M61.7576 190.545H69.3333V198.121H61.7576V190.545Z" fill="black"/>
<path d="M69.3333 190.545H76.9091V198.121H69.3333V190.545Z" fill="black"/>
<path d="M84.4849 190.545H92.0606V198.121H84.4849V190.545Z" fill="black"/>
<path d="M114.788 190.545H122.364V198.121H114.788V190.545Z" fill="black"/>
<path d="M122.364 190.545H129.939V198.121H122.364V190.545Z" fill="black"/>
<path d="M145.091 190.545H152.667V198.121H145.091V190.545Z" fill="black"/>
<path d="M182.97 190.545H190.545V198.121H182.97V190.545Z" fill="black"/>
<path d="M190.545 190.545H198.121V198.121H190.545V190.545Z" fill="black"/>
<path d="M198.121 190.545H205.697V198.121H198.121V190.545Z" fill="black"/>
<path d="M205.697 190.545H213.273V198.121H205.697V190.545Z" fill="black"/>
<path d="M1.15152 198.121H8.72727V205.697H1.15152V198.121Z" fill="black"/>
<path d="M16.303 198.121H23.8788V205.697H16.303V198.121Z" fill="black"/>
<path d="M23.8788 198.121H31.4545V205.697H23.8788V198.121Z" fill="black"/>
<path d="M31.4545 198.121H39.0303V205.697H31.4545V198.121Z" fill="black"/>
<path d="M46.6061 198.121H54.1818V205.697H46.6061V198.121Z" fill="black"/>
<path d="M61.7576 198.121H69.3333V205.697H61.7576V198.121Z" fill="black"/>
<path d="M84.4849 198.121H92.0606V205.697H84.4849V198.121Z" fill="black"/>
<path d="M107.212 198.121H114.788V205.697H107.212V198.121Z" fill="black"/>
<path d="M122.364 198.121H129.939V205.697H122.364V198.121Z" fill="black"/>
<path d="M137.515 198.121H145.091V205.697H137.515V198.121Z" fill="black"/>
<path d="M152.667 198.121H160.242V205.697H152.667V198.121Z" fill="black"/>
<path d="M175.394 198.121H182.97V205.697H175.394V198.121Z" fill="black"/>
<path d="M198.121 198.121H205.697V205.697H198.121V198.121Z" fill="black"/>
<path d="M213.273 198.121H220.848V205.697H213.273V198.121Z" fill="black"/>
<path d="M1.15152 205.697H8.72727V213.273H1.15152V205.697Z" fill="black"/>
<path d="M46.6061 205.697H54.1818V213.273H46.6061V205.697Z" fill="black"/>
<path d="M69.3333 205.697H76.9091V213.273H69.3333V205.697Z" fill="black"/>
<path d="M84.4849 205.697H92.0606V213.273H84.4849V205.697Z" fill="black"/>
<path d="M114.788 205.697H122.364V213.273H114.788V205.697Z" fill="black"/>
<path d="M122.364 205.697H129.939V213.273H122.364V205.697Z" fill="black"/>
<path d="M129.939 205.697H137.515V213.273H129.939V205.697Z" fill="black"/>
<path d="M160.242 205.697H167.818V213.273H160.242V205.697Z" fill="black"/>
<path d="M182.97 205.697H190.545V213.273H182.97V205.697Z" fill="black"/>
<path d="M205.697 205.697H213.273V213.273H205.697V205.697Z" fill="black"/>
<path d="M1.15152 213.273H8.72727V220.848H1.15152V213.273Z" fill="black"/>
<path d="M8.72727 213.273H16.303V220.848H8.72727V213.273Z" fill="black"/>
<path d="M16.303 213.273H23.8788V220.848H16.303V213.273Z" fill="black"/>
<path d="M23.8788 213.273H31.4545V220.848H23.8788V213.273Z" fill="black"/>
<path d="M31.4545 213.273H39.0303V220.848H31.4545V213.273Z" fill="black"/>
<path d="M39.0303 213.273H46.6061V220.848H39.0303V213.273Z" fill="black"/>
<path d="M46.6061 213.273H54.1818V220.848H46.6061V213.273Z" fill="black"/>
<path d="M69.3333 213.273H76.9091V220.848H69.3333V213.273Z" fill="black"/>
<path d="M84.4849 213.273H92.0606V220.848H84.4849V213.273Z" fill="black"/>
<path d="M99.6364 213.273H107.212V220.848H99.6364V213.273Z" fill="black"/>
<path d="M107.212 213.273H114.788V220.848H107.212V213.273Z" fill="black"/>
<path d="M114.788 213.273H122.364V220.848H114.788V213.273Z" fill="black"/>
<path d="M122.364 213.273H129.939V220.848H122.364V213.273Z" fill="black"/>
<path d="M137.515 213.273H145.091V220.848H137.515V213.273Z" fill="black"/>
<path d="M152.667 213.273H160.242V220.848H152.667V213.273Z" fill="black"/>
<path d="M175.394 213.273H182.97V220.848H175.394V213.273Z" fill="black"/>
<path d="M205.697 213.273H213.273V220.848H205.697V213.273Z" fill="black"/>
<path d="M8.72727 1.15152H1.15152V8.72727M8.72727 1.15152V8.72727M8.72727 1.15152H16.303M8.72727 8.72727H1.15152M8.72727 8.72727H16.303M8.72727 8.72727V16.303M1.15152 8.72727V16.303M16.303 1.15152V8.72727M16.303 1.15152H23.8788M16.303 8.72727H23.8788M23.8788 1.15152V8.72727M23.8788 1.15152H31.4545M23.8788 8.72727H31.4545M31.4545 1.15152V8.72727M31.4545 1.15152H39.0303M31.4545 8.72727H39.0303M39.0303 1.15152V8.72727M39.0303 1.15152H46.6061M39.0303 8.72727H46.6061M46.6061 1.15152V8.72727M46.6061 1.15152H54.1818V8.72727M46.6061 8.72727H54.1818M46.6061 8.72727V16.303M54.1818 8.72727V16.303M76.9091 8.72727H84.4848V1.15152H76.9091V8.72727ZM76.9091 8.72727H69.3333V16.303H76.9091M76.9091 8.72727V16.303M99.6364 1.15152H92.0606V8.72727H99.6364M99.6364 1.15152V8.72727M99.6364 1.15152H107.212M99.6364 8.72727H107.212M99.6364 8.72727V16.303M107.212 1.15152V8.72727M107.212 1.15152H114.788M107.212 8.72727H114.788M107.212 8.72727V16.303M114.788 1.15152V8.72727M114.788 1.15152H122.364V8.72727M114.788 8.72727H122.364M114.788 8.72727V16.303M122.364 8.72727V16.303M122.364 8.72727H129.939M145.091 8.72727V1.15152H137.515V8.72727M145.091 8.72727H137.515M145.091 8.72727V16.303M145.091 8.72727H152.667M137.515 8.72727H129.939M137.515 8.72727V16.303M160.242 8.72727V1.15152H152.667V8.72727M160.242 8.72727H152.667M160.242 8.72727V16.303M152.667 8.72727V16.303M175.394 1.15152H167.818V8.72727M175.394 1.15152V8.72727M175.394 1.15152H182.97M175.394 8.72727H167.818M175.394 8.72727H182.97M175.394 8.72727V16.303M167.818 8.72727V16.303M182.97 1.15152V8.72727M182.97 1.15152H190.545M182.97 8.72727H190.545M190.545 1.15152V8.72727M190.545 1.15152H198.121M190.545 8.72727H198.121M198.121 1.15152V8.72727M198.121 1.15152H205.697M198.121 8.72727H205.697M205.697 1.15152V8.72727M205.697 1.15152H213.273M205.697 8.72727H213.273M213.273 1.15152V8.72727M213.273 1.15152H220.848V8.72727M213.273 8.72727H220.848M213.273 8.72727V16.303M220.848 8.72727V16.303M8.72727 16.303H1.15152M8.72727 16.303V23.8788M1.15152 16.303V23.8788M54.1818 16.303H46.6061M54.1818 16.303V23.8788M46.6061 16.303V23.8788M76.9091 16.303H84.4848M76.9091 16.303V23.8788H84.4848M107.212 16.303H99.6364M107.212 16.303H114.788M107.212 16.303V23.8788M99.6364 16.303V23.8788H107.212M114.788 16.303H122.364M114.788 16.303V23.8788M122.364 16.303H129.939M122.364 16.303V23.8788M129.939 8.72727V16.303M129.939 16.303H137.515M129.939 16.303V23.8788M137.515 16.303H145.091M137.515 16.303V23.8788M145.091 16.303H152.667M145.091 16.303V23.8788M152.667 16.303H160.242M152.667 16.303V23.8788M160.242 16.303V23.8788M175.394 16.303H167.818M175.394 16.303V23.8788M167.818 16.303V23.8788M220.848 16.303H213.273M220.848 16.303V23.8788M213.273 16.303V23.8788M8.72727 23.8788H1.15152M8.72727 23.8788V31.4545M1.15152 23.8788V31.4545M23.8788 16.303H16.303V23.8788M23.8788 16.303V23.8788M23.8788 16.303H31.4545M23.8788 23.8788H16.303M23.8788 23.8788H31.4545M23.8788 23.8788V31.4545M16.303 23.8788V31.4545M31.4545 16.303V23.8788M31.4545 16.303H39.0303V23.8788M31.4545 23.8788H39.0303M31.4545 23.8788V31.4545M39.0303 23.8788V31.4545M54.1818 23.8788H46.6061M54.1818 23.8788V31.4545M46.6061 23.8788V31.4545M84.4848 16.303V23.8788M84.4848 16.303H92.0606V23.8788H84.4848M107.212 23.8788H114.788M107.212 23.8788V31.4545M122.364 23.8788H114.788M122.364 23.8788H129.939M114.788 23.8788V31.4545M129.939 23.8788H137.515M129.939 23.8788V31.4545M145.091 23.8788H137.515M145.091 23.8788H152.667M145.091 23.8788V31.4545M137.515 23.8788V31.4545M160.242 23.8788H152.667M160.242 23.8788V31.4545H152.667M152.667 23.8788V31.4545M175.394 23.8788H167.818M175.394 23.8788V31.4545M167.818 23.8788V31.4545M190.545 16.303H182.97V23.8788M190.545 16.303V23.8788M190.545 16.303H198.121M190.545 23.8788H182.97M190.545 23.8788H198.121M190.545 23.8788V31.4545M182.97 23.8788V31.4545M198.121 16.303V23.8788M198.121 16.303H205.697V23.8788M198.121 23.8788H205.697M198.121 23.8788V31.4545M205.697 23.8788V31.4545M220.848 23.8788H213.273M220.848 23.8788V31.4545M213.273 23.8788V31.4545M8.72727 31.4545H1.15152M8.72727 31.4545V39.0303M1.15152 31.4545V39.0303M23.8788 31.4545H16.303M23.8788 31.4545H31.4545M23.8788 31.4545V39.0303M16.303 31.4545V39.0303H23.8788M31.4545 31.4545H39.0303M31.4545 31.4545V39.0303M39.0303 31.4545V39.0303H31.4545M54.1818 31.4545H46.6061M54.1818 31.4545V39.0303M46.6061 31.4545V39.0303M114.788 31.4545H107.212M114.788 31.4545V39.0303M114.788 31.4545H122.364M107.212 31.4545V39.0303M137.515 31.4545H129.939M137.515 31.4545V39.0303H129.939M129.939 31.4545H122.364M129.939 31.4545V39.0303M152.667 31.4545H145.091M152.667 31.4545V39.0303M145.091 31.4545V39.0303M175.394 31.4545H167.818M175.394 31.4545V39.0303M167.818 31.4545V39.0303M190.545 31.4545H182.97M190.545 31.4545H198.121M190.545 31.4545V39.0303M182.97 31.4545V39.0303H190.545M198.121 31.4545H205.697M198.121 31.4545V39.0303M205.697 31.4545V39.0303H198.121M220.848 31.4545H213.273M220.848 31.4545V39.0303M213.273 31.4545V39.0303M8.72727 39.0303H1.15152M8.72727 39.0303V46.6061M1.15152 39.0303V46.6061M23.8788 39.0303H31.4545M54.1818 39.0303H46.6061M54.1818 39.0303V46.6061M46.6061 39.0303V46.6061M84.4848 39.0303H92.0606V31.4545H84.4848V39.0303ZM84.4848 39.0303H76.9091V46.6061M84.4848 39.0303V46.6061M114.788 39.0303H107.212M114.788 39.0303H122.364M114.788 39.0303V46.6061M107.212 39.0303H99.6364V46.6061M107.212 39.0303V46.6061M122.364 31.4545V39.0303M122.364 39.0303H129.939M122.364 39.0303V46.6061M152.667 39.0303H145.091M152.667 39.0303V46.6061M152.667 39.0303H160.242V46.6061M145.091 39.0303V46.6061M175.394 39.0303H167.818M175.394 39.0303V46.6061M167.818 39.0303V46.6061M190.545 39.0303H198.121M220.848 39.0303H213.273M220.848 39.0303V46.6061M213.273 39.0303V46.6061M8.72727 46.6061H1.15152M8.72727 46.6061V54.1818M8.72727 46.6061H16.303M1.15152 46.6061V54.1818H8.72727M54.1818 46.6061H46.6061M54.1818 46.6061V54.1818H46.6061M46.6061 46.6061H39.0303M46.6061 46.6061V54.1818M84.4848 46.6061H76.9091M84.4848 46.6061V54.1818M76.9091 46.6061V54.1818M107.212 46.6061H99.6364M107.212 46.6061H114.788M107.212 46.6061V54.1818M99.6364 46.6061H92.0606V54.1818M99.6364 46.6061V54.1818M122.364 46.6061H114.788M122.364 46.6061H129.939V54.1818M122.364 46.6061V54.1818M114.788 46.6061V54.1818M152.667 46.6061H145.091M152.667 46.6061H160.242M152.667 46.6061V54.1818M145.091 46.6061H137.515V54.1818M145.091 46.6061V54.1818M160.242 46.6061V54.1818M175.394 46.6061H167.818M175.394 46.6061V54.1818M175.394 46.6061H182.97M167.818 46.6061V54.1818H175.394M220.848 46.6061H213.273M220.848 46.6061V54.1818H213.273M213.273 46.6061H205.697M213.273 46.6061V54.1818M8.72727 54.1818H16.303M16.303 46.6061V54.1818M16.303 46.6061H23.8788M16.303 54.1818H23.8788M23.8788 46.6061V54.1818M23.8788 46.6061H31.4545M23.8788 54.1818H31.4545M31.4545 46.6061V54.1818M31.4545 46.6061H39.0303M31.4545 54.1818H39.0303M39.0303 46.6061V54.1818M39.0303 54.1818H46.6061M69.3333 54.1818V46.6061H61.7576V54.1818M69.3333 54.1818H61.7576M69.3333 54.1818V61.7576M61.7576 54.1818V61.7576M84.4848 54.1818H76.9091M84.4848 54.1818V61.7576H76.9091V54.1818M99.6364 54.1818H92.0606M99.6364 54.1818V61.7576M92.0606 54.1818V61.7576M114.788 54.1818H107.212M114.788 54.1818V61.7576M114.788 54.1818H122.364M107.212 54.1818V61.7576H114.788M129.939 54.1818H122.364M129.939 54.1818H137.515M129.939 54.1818V61.7576M122.364 54.1818V61.7576M145.091 54.1818H137.515M145.091 54.1818V61.7576M137.515 54.1818V61.7576M160.242 54.1818H152.667M160.242 54.1818V61.7576M152.667 54.1818V61.7576M175.394 54.1818H182.97M182.97 46.6061V54.1818M182.97 46.6061H190.545M182.97 54.1818H190.545M190.545 46.6061V54.1818M190.545 46.6061H198.121M190.545 54.1818H198.121M198.121 46.6061V54.1818M198.121 46.6061H205.697M198.121 54.1818H205.697M205.697 46.6061V54.1818M205.697 54.1818H213.273M69.3333 61.7576H61.7576M69.3333 61.7576V69.3333M61.7576 61.7576H54.1818M61.7576 61.7576V69.3333M99.6364 61.7576H92.0606M99.6364 61.7576V69.3333M92.0606 61.7576V69.3333M114.788 61.7576H122.364M122.364 61.7576H129.939M122.364 61.7576V69.3333M137.515 61.7576H129.939M137.515 61.7576H145.091M129.939 61.7576V69.3333M145.091 61.7576H152.667M145.091 61.7576V69.3333H152.667M160.242 61.7576H152.667M160.242 61.7576V69.3333M160.242 61.7576H167.818M152.667 61.7576V69.3333M23.8788 61.7576H16.303V69.3333M23.8788 61.7576V69.3333M23.8788 61.7576H31.4545V69.3333M23.8788 69.3333H16.303M23.8788 69.3333H31.4545M23.8788 69.3333V76.9091M16.303 69.3333V76.9091M31.4545 69.3333V76.9091M31.4545 69.3333H39.0303M54.1818 61.7576H46.6061V69.3333M54.1818 61.7576V69.3333M54.1818 69.3333H46.6061M54.1818 69.3333H61.7576M46.6061 69.3333H39.0303M46.6061 69.3333V76.9091M61.7576 69.3333H69.3333M61.7576 69.3333V76.9091M69.3333 69.3333V76.9091M69.3333 69.3333H76.9091V76.9091M99.6364 69.3333H92.0606M99.6364 69.3333V76.9091M99.6364 69.3333H107.212M92.0606 69.3333H84.4848V76.9091M92.0606 69.3333V76.9091M129.939 69.3333H122.364M129.939 69.3333V76.9091M129.939 69.3333H137.515V76.9091M122.364 69.3333H114.788M122.364 69.3333V76.9091M152.667 69.3333H160.242M160.242 69.3333H167.818M167.818 61.7576V69.3333M167.818 61.7576H175.394V69.3333M167.818 69.3333H175.394M167.818 69.3333V76.9091M175.394 69.3333V76.9091M175.394 69.3333H182.97M190.545 69.3333V61.7576H182.97V69.3333M190.545 69.3333H182.97M190.545 69.3333V76.9091M190.545 69.3333H198.121M182.97 69.3333V76.9091M8.72727 76.9091V69.3333H1.15152V76.9091M8.72727 76.9091H1.15152M8.72727 76.9091V84.4848M8.72727 76.9091H16.303M1.15152 76.9091V84.4848H8.72727M23.8788 76.9091H16.303M23.8788 76.9091H31.4545M23.8788 76.9091V84.4848M16.303 76.9091V84.4848M31.4545 76.9091H39.0303M39.0303 69.3333V76.9091M39.0303 76.9091H46.6061M46.6061 76.9091H54.1818M46.6061 76.9091V84.4848M69.3333 76.9091H61.7576M69.3333 76.9091H76.9091M69.3333 76.9091V84.4848M61.7576 76.9091H54.1818M61.7576 76.9091V84.4848M76.9091 76.9091V84.4848M92.0606 76.9091H84.4848M92.0606 76.9091H99.6364M92.0606 76.9091V84.4848M84.4848 76.9091V84.4848M99.6364 76.9091H107.212M99.6364 76.9091V84.4848M107.212 69.3333V76.9091M107.212 69.3333H114.788M107.212 76.9091H114.788M107.212 76.9091V84.4848H114.788M114.788 69.3333V76.9091M114.788 76.9091H122.364M114.788 76.9091V84.4848M122.364 76.9091H129.939M122.364 76.9091V84.4848M129.939 76.9091H137.515M129.939 76.9091V84.4848M137.515 76.9091V84.4848M175.394 76.9091H167.818M175.394 76.9091H182.97M175.394 76.9091V84.4848H167.818V76.9091M182.97 76.9091H190.545M190.545 76.9091H198.121M198.121 69.3333V76.9091M198.121 69.3333H205.697V76.9091M198.121 76.9091H205.697M205.697 76.9091H213.273M205.697 76.9091V84.4848H213.273M213.273 76.9091H220.848V69.3333H213.273V76.9091ZM213.273 76.9091V84.4848M8.72727 84.4848H16.303M8.72727 84.4848V92.0606M16.303 84.4848H23.8788M16.303 84.4848V92.0606M23.8788 84.4848V92.0606M23.8788 84.4848H31.4545V92.0606M54.1818 76.9091V84.4848M54.1818 84.4848H46.6061M54.1818 84.4848H61.7576M54.1818 84.4848V92.0606M46.6061 84.4848H39.0303V92.0606M46.6061 84.4848V92.0606M61.7576 84.4848V92.0606M76.9091 84.4848H69.3333M76.9091 84.4848V92.0606M69.3333 84.4848V92.0606M92.0606 84.4848H84.4848M92.0606 84.4848H99.6364M92.0606 84.4848V92.0606M84.4848 84.4848V92.0606M99.6364 84.4848V92.0606M114.788 84.4848H122.364M122.364 84.4848H129.939M122.364 84.4848V92.0606H129.939M129.939 84.4848H137.515M129.939 84.4848V92.0606M137.515 84.4848H145.091M137.515 84.4848V92.0606M213.273 84.4848H220.848V92.0606M213.273 84.4848V92.0606M16.303 92.0606H8.72727M16.303 92.0606H23.8788M16.303 92.0606V99.6364M8.72727 92.0606H1.15152V99.6364H8.72727M8.72727 92.0606V99.6364M23.8788 92.0606H31.4545M23.8788 92.0606V99.6364H31.4545M31.4545 92.0606V99.6364M31.4545 92.0606H39.0303M46.6061 92.0606H39.0303M46.6061 92.0606V99.6364M46.6061 92.0606H54.1818M39.0303 92.0606V99.6364M61.7576 92.0606H54.1818M61.7576 92.0606H69.3333M61.7576 92.0606V99.6364M54.1818 92.0606V99.6364H46.6061M76.9091 92.0606H69.3333M76.9091 92.0606H84.4848M76.9091 92.0606V99.6364M69.3333 92.0606V99.6364M92.0606 92.0606H84.4848M92.0606 92.0606H99.6364M92.0606 92.0606V99.6364M84.4848 92.0606V99.6364M99.6364 92.0606V99.6364H92.0606M129.939 92.0606H137.515M129.939 92.0606V99.6364H137.515M145.091 84.4848V92.0606M145.091 84.4848H152.667V92.0606H145.091M145.091 92.0606H137.515M145.091 92.0606V99.6364M137.515 92.0606V99.6364M220.848 92.0606H213.273M220.848 92.0606V99.6364M213.273 92.0606H205.697M213.273 92.0606V99.6364M8.72727 99.6364H16.303M8.72727 99.6364V107.212H16.303M16.303 99.6364V107.212M31.4545 99.6364H39.0303M39.0303 99.6364H46.6061M69.3333 99.6364H61.7576M69.3333 99.6364V107.212M69.3333 99.6364H76.9091M61.7576 99.6364V107.212H69.3333M84.4848 99.6364H76.9091M84.4848 99.6364V107.212M84.4848 99.6364H92.0606M76.9091 99.6364V107.212M92.0606 99.6364V107.212M137.515 99.6364H145.091M137.515 99.6364V107.212M145.091 99.6364V107.212M145.091 99.6364H152.667V107.212M167.818 99.6364V92.0606H160.242V99.6364H167.818ZM167.818 99.6364H175.394M167.818 99.6364V107.212M182.97 99.6364V92.0606H175.394V99.6364M182.97 99.6364H175.394M182.97 99.6364V107.212M175.394 99.6364V107.212M205.697 92.0606H198.121V99.6364M205.697 92.0606V99.6364M205.697 99.6364H198.121M205.697 99.6364H213.273M205.697 99.6364V107.212M198.121 99.6364H190.545V107.212M198.121 99.6364V107.212M213.273 99.6364H220.848M213.273 99.6364V107.212M220.848 99.6364V107.212M16.303 107.212H23.8788M16.303 107.212V114.788H23.8788M69.3333 107.212H76.9091M69.3333 107.212V114.788M76.9091 107.212H84.4848M76.9091 107.212V114.788M84.4848 107.212H92.0606M84.4848 107.212V114.788M92.0606 107.212V114.788M92.0606 107.212H99.6364M114.788 99.6364H107.212V107.212M114.788 99.6364V107.212M114.788 99.6364H122.364V107.212M114.788 107.212H107.212M114.788 107.212H122.364M107.212 107.212H99.6364M107.212 107.212V114.788H99.6364M122.364 107.212H129.939M122.364 107.212V114.788M145.091 107.212H137.515M145.091 107.212H152.667M145.091 107.212V114.788M137.515 107.212H129.939M137.515 107.212V114.788M152.667 107.212V114.788M175.394 107.212H167.818M175.394 107.212H182.97M175.394 107.212V114.788M167.818 107.212V114.788M182.97 107.212V114.788M182.97 107.212H190.545M198.121 107.212H190.545M198.121 107.212H205.697M198.121 107.212V114.788M190.545 107.212V114.788M205.697 107.212H213.273M205.697 107.212V114.788M220.848 107.212H213.273M220.848 107.212V114.788H213.273M213.273 107.212V114.788M23.8788 107.212V114.788M23.8788 107.212H31.4545V114.788M23.8788 114.788H31.4545M31.4545 114.788H39.0303M31.4545 114.788V122.364M46.6061 107.212H39.0303V114.788M46.6061 107.212V114.788M46.6061 107.212H54.1818V114.788M46.6061 114.788H39.0303M46.6061 114.788H54.1818M39.0303 114.788V122.364M54.1818 114.788H61.7576M54.1818 114.788V122.364M76.9091 114.788H69.3333M76.9091 114.788H84.4848M76.9091 114.788V122.364M69.3333 114.788H61.7576M69.3333 114.788V122.364M84.4848 114.788H92.0606M84.4848 114.788V122.364M92.0606 114.788H99.6364M92.0606 114.788V122.364M99.6364 107.212V114.788M99.6364 114.788V122.364M129.939 107.212V114.788M129.939 114.788H122.364M129.939 114.788H137.515M129.939 114.788V122.364M122.364 114.788V122.364M137.515 114.788H145.091M137.515 114.788V122.364M145.091 114.788H152.667M152.667 114.788H160.242M152.667 114.788V122.364M175.394 114.788H167.818M175.394 114.788H182.97M167.818 114.788H160.242M167.818 114.788V122.364M182.97 114.788H190.545M182.97 114.788V122.364M190.545 114.788H198.121M190.545 114.788V122.364M198.121 114.788V122.364M213.273 114.788H205.697M213.273 114.788V122.364M205.697 114.788V122.364H213.273M39.0303 122.364H31.4545M39.0303 122.364V129.939M31.4545 122.364V129.939M61.7576 114.788V122.364M61.7576 122.364H54.1818M61.7576 122.364H69.3333M61.7576 122.364V129.939M54.1818 122.364H46.6061V129.939M54.1818 122.364V129.939H46.6061M69.3333 122.364V129.939M69.3333 122.364H76.9091M84.4848 122.364H76.9091M84.4848 122.364H92.0606M76.9091 122.364V129.939M92.0606 122.364H99.6364M99.6364 122.364H107.212V129.939M99.6364 122.364V129.939M129.939 122.364H122.364M129.939 122.364H137.515M129.939 122.364V129.939M122.364 122.364V129.939M137.515 122.364V129.939M160.242 114.788V122.364M160.242 122.364H152.667M160.242 122.364H167.818M160.242 122.364V129.939M152.667 122.364H145.091V129.939M152.667 122.364V129.939M167.818 122.364V129.939M190.545 122.364H182.97M190.545 122.364H198.121M190.545 122.364V129.939M182.97 122.364H175.394V129.939M182.97 122.364V129.939M198.121 122.364V129.939M213.273 122.364H220.848V129.939H213.273V122.364ZM23.8788 129.939V122.364H16.303V129.939M23.8788 129.939H16.303M23.8788 129.939V137.515M23.8788 129.939H31.4545M16.303 129.939H8.72727V137.515M16.303 129.939V137.515M39.0303 129.939H31.4545M39.0303 129.939H46.6061M39.0303 129.939V137.515M31.4545 129.939V137.515H23.8788M46.6061 129.939V137.515M69.3333 129.939H61.7576M69.3333 129.939H76.9091M69.3333 129.939V137.515M61.7576 129.939V137.515M76.9091 129.939H84.4848M76.9091 129.939V137.515M107.212 129.939H99.6364M107.212 129.939H114.788M107.212 129.939V137.515M99.6364 129.939H92.0606M99.6364 129.939V137.515M129.939 129.939H122.364M129.939 129.939H137.515M129.939 129.939V137.515M122.364 129.939H114.788M122.364 129.939V137.515M137.515 129.939V137.515M152.667 129.939H145.091M152.667 129.939H160.242M152.667 129.939V137.515M145.091 129.939V137.515M160.242 129.939H167.818M160.242 129.939V137.515M167.818 129.939V137.515M182.97 129.939H175.394M182.97 129.939H190.545M182.97 129.939V137.515H175.394M175.394 129.939V137.515M190.545 129.939H198.121M198.121 129.939H205.697V137.515M198.121 129.939V137.515M16.303 137.515H8.72727M16.303 137.515H23.8788M16.303 137.515V145.091M8.72727 137.515H1.15152V145.091H8.72727V137.515ZM23.8788 137.515V145.091M46.6061 137.515H39.0303M46.6061 137.515V145.091M46.6061 137.515H54.1818M39.0303 137.515V145.091M69.3333 137.515H61.7576M69.3333 137.515H76.9091M69.3333 137.515V145.091M61.7576 137.515H54.1818M61.7576 137.515V145.091H54.1818M84.4848 129.939V137.515M84.4848 129.939H92.0606M84.4848 137.515H76.9091M84.4848 137.515H92.0606M84.4848 137.515V145.091M76.9091 137.515V145.091M92.0606 129.939V137.515M92.0606 137.515H99.6364M92.0606 137.515V145.091M99.6364 137.515V145.091M114.788 129.939V137.515M114.788 137.515H107.212M114.788 137.515H122.364M114.788 137.515V145.091M107.212 137.515V145.091M122.364 137.515H129.939M122.364 137.515V145.091H129.939M137.515 137.515H129.939M137.515 137.515V145.091M129.939 137.515V145.091M152.667 137.515H145.091M152.667 137.515H160.242M152.667 137.515V145.091M145.091 137.515V145.091M160.242 137.515H167.818M167.818 137.515H175.394M167.818 137.515V145.091M175.394 137.515V145.091M205.697 137.515H198.121M205.697 137.515V145.091M198.121 137.515H190.545V145.091M198.121 137.515V145.091M23.8788 145.091H16.303M23.8788 145.091V152.667M16.303 145.091V152.667M46.6061 145.091H39.0303M46.6061 145.091H54.1818M39.0303 145.091H31.4545V152.667M39.0303 145.091V152.667M54.1818 137.515V145.091M76.9091 145.091H69.3333M76.9091 145.091V152.667M69.3333 145.091V152.667M92.0606 145.091H84.4848M92.0606 145.091H99.6364M92.0606 145.091V152.667M84.4848 145.091V152.667M99.6364 145.091H107.212M99.6364 145.091V152.667M114.788 145.091H107.212M114.788 145.091V152.667M107.212 145.091V152.667M129.939 145.091H137.515M137.515 145.091H145.091M137.515 145.091V152.667H145.091M152.667 145.091H145.091M152.667 145.091V152.667M145.091 145.091V152.667M175.394 145.091H167.818M175.394 145.091V152.667M167.818 145.091H160.242V152.667M167.818 145.091V152.667M198.121 145.091H190.545M198.121 145.091H205.697M198.121 145.091V152.667M190.545 145.091H182.97V152.667M190.545 145.091V152.667M205.697 145.091V152.667M23.8788 152.667H16.303M23.8788 152.667V160.242H16.303M16.303 152.667H8.72727V160.242H16.303M16.303 152.667V160.242M39.0303 152.667H31.4545M39.0303 152.667V160.242M39.0303 152.667H46.6061M31.4545 152.667V160.242H39.0303M76.9091 152.667H69.3333M76.9091 152.667V160.242M76.9091 152.667H84.4848M69.3333 152.667V160.242M92.0606 152.667H84.4848M92.0606 152.667H99.6364M92.0606 152.667V160.242H99.6364M84.4848 152.667V160.242H76.9091M107.212 152.667H99.6364M107.212 152.667H114.788M99.6364 152.667V160.242M114.788 152.667H122.364V160.242M114.788 152.667V160.242M145.091 152.667H152.667M152.667 152.667H160.242M152.667 152.667V160.242M167.818 152.667H160.242M167.818 152.667H175.394M167.818 152.667V160.242M160.242 152.667V160.242M175.394 152.667V160.242M175.394 152.667H182.97M190.545 152.667H182.97M190.545 152.667H198.121M190.545 152.667V160.242M182.97 152.667V160.242M198.121 152.667H205.697M198.121 152.667V160.242M205.697 152.667V160.242M205.697 152.667H213.273M39.0303 160.242H46.6061M46.6061 152.667V160.242M46.6061 152.667H54.1818V160.242H46.6061M76.9091 160.242H69.3333M76.9091 160.242V167.818M69.3333 160.242H61.7576V167.818M69.3333 160.242V167.818M99.6364 160.242H107.212M99.6364 160.242V167.818H107.212M122.364 160.242H114.788M122.364 160.242V167.818M122.364 160.242H129.939M114.788 160.242H107.212M114.788 160.242V167.818M160.242 160.242H152.667M160.242 160.242H167.818M160.242 160.242V167.818M152.667 160.242V167.818M167.818 160.242H175.394M175.394 160.242H182.97M182.97 160.242H190.545M182.97 160.242V167.818M190.545 160.242V167.818M190.545 160.242H198.121M205.697 160.242H198.121M205.697 160.242H213.273M205.697 160.242V167.818M198.121 160.242V167.818M213.273 152.667V160.242M213.273 152.667H220.848V160.242M213.273 160.242H220.848M213.273 160.242V167.818M220.848 160.242V167.818H213.273M69.3333 167.818H61.7576M69.3333 167.818H76.9091M69.3333 167.818V175.394M61.7576 167.818V175.394H69.3333M76.9091 167.818V175.394M76.9091 167.818H84.4848V175.394M107.212 160.242V167.818M107.212 167.818H114.788M107.212 167.818V175.394H114.788M114.788 167.818H122.364M114.788 167.818V175.394M122.364 167.818H129.939M122.364 167.818V175.394M129.939 160.242V167.818M129.939 160.242H137.515V167.818M129.939 167.818H137.515M129.939 167.818V175.394M137.515 167.818V175.394H129.939M160.242 167.818H152.667M160.242 167.818V175.394M152.667 167.818H145.091V175.394H152.667M152.667 167.818V175.394M190.545 167.818H182.97M190.545 167.818H198.121M190.545 167.818V175.394M182.97 167.818V175.394M198.121 167.818H205.697M198.121 167.818V175.394H205.697M213.273 167.818H205.697M213.273 167.818V175.394M205.697 167.818V175.394M8.72727 167.818H1.15152V175.394M8.72727 167.818V175.394M8.72727 167.818H16.303M8.72727 175.394H1.15152M8.72727 175.394H16.303M8.72727 175.394V182.97M1.15152 175.394V182.97M16.303 167.818V175.394M16.303 167.818H23.8788M16.303 175.394H23.8788M23.8788 167.818V175.394M23.8788 167.818H31.4545M23.8788 175.394H31.4545M31.4545 167.818V175.394M31.4545 167.818H39.0303M31.4545 175.394H39.0303M39.0303 167.818V175.394M39.0303 167.818H46.6061M39.0303 175.394H46.6061M46.6061 167.818V175.394M46.6061 167.818H54.1818V175.394M46.6061 175.394H54.1818M46.6061 175.394V182.97M54.1818 175.394V182.97M69.3333 175.394H76.9091M76.9091 175.394H84.4848M84.4848 175.394H92.0606V182.97M84.4848 175.394V182.97M114.788 175.394H122.364M122.364 175.394H129.939M122.364 175.394V182.97M129.939 175.394V182.97M152.667 175.394H160.242M152.667 175.394V182.97M160.242 175.394V182.97M190.545 175.394H182.97M190.545 175.394V182.97M182.97 175.394V182.97M205.697 175.394H213.273M205.697 175.394V182.97M213.273 175.394V182.97H205.697M8.72727 182.97H1.15152M8.72727 182.97V190.545M1.15152 182.97V190.545M54.1818 182.97H46.6061M54.1818 182.97V190.545M46.6061 182.97V190.545M92.0606 182.97H84.4848M92.0606 182.97V190.545M84.4848 182.97H76.9091V190.545M84.4848 182.97V190.545M129.939 182.97H122.364M129.939 182.97V190.545M129.939 182.97H137.515M122.364 182.97V190.545M160.242 182.97H152.667M160.242 182.97V190.545M160.242 182.97H167.818M152.667 182.97V190.545M190.545 182.97H182.97M190.545 182.97V190.545M190.545 182.97H198.121M182.97 182.97H175.394M182.97 182.97V190.545M205.697 182.97H198.121M205.697 182.97V190.545M8.72727 190.545H1.15152M8.72727 190.545V198.121M1.15152 190.545V198.121M23.8788 182.97H16.303V190.545M23.8788 182.97V190.545M23.8788 182.97H31.4545M23.8788 190.545H16.303M23.8788 190.545H31.4545M23.8788 190.545V198.121M16.303 190.545V198.121M31.4545 182.97V190.545M31.4545 182.97H39.0303V190.545M31.4545 190.545H39.0303M31.4545 190.545V198.121M39.0303 190.545V198.121M54.1818 190.545H46.6061M54.1818 190.545V198.121M46.6061 190.545V198.121M84.4848 190.545H76.9091M84.4848 190.545H92.0606M84.4848 190.545V198.121M76.9091 190.545H69.3333M76.9091 190.545V198.121H69.3333M92.0606 190.545V198.121M129.939 190.545H122.364M129.939 190.545H137.515M129.939 190.545V198.121M122.364 190.545H114.788V198.121M122.364 190.545V198.121M137.515 182.97V190.545M137.515 182.97H145.091V190.545M137.515 190.545H145.091M145.091 190.545H152.667M145.091 190.545V198.121M160.242 190.545H152.667M160.242 190.545H167.818M152.667 190.545V198.121M167.818 182.97V190.545M167.818 182.97H175.394M167.818 190.545H175.394M175.394 182.97V190.545M175.394 190.545H182.97M182.97 190.545H190.545M182.97 190.545V198.121M190.545 190.545H198.121M190.545 190.545V198.121M198.121 182.97V190.545M198.121 190.545H205.697M198.121 190.545V198.121M205.697 190.545V198.121M205.697 190.545H213.273V198.121M8.72727 198.121H1.15152M8.72727 198.121V205.697M1.15152 198.121V205.697M23.8788 198.121H16.303M23.8788 198.121H31.4545M23.8788 198.121V205.697M16.303 198.121V205.697H23.8788M31.4545 198.121H39.0303M31.4545 198.121V205.697M39.0303 198.121V205.697H31.4545M54.1818 198.121H46.6061M54.1818 198.121V205.697M46.6061 198.121V205.697M69.3333 190.545H61.7576V198.121M69.3333 190.545V198.121M69.3333 198.121H61.7576M69.3333 198.121V205.697M61.7576 198.121V205.697H69.3333M92.0606 198.121H84.4848M92.0606 198.121V205.697M84.4848 198.121V205.697M122.364 198.121H114.788M122.364 198.121H129.939M122.364 198.121V205.697M114.788 198.121H107.212V205.697H114.788M114.788 198.121V205.697M129.939 198.121V205.697M152.667 198.121H145.091M152.667 198.121H160.242V205.697M152.667 198.121V205.697H160.242M145.091 198.121H137.515V205.697M145.091 198.121V205.697H137.515M190.545 198.121H182.97M190.545 198.121H198.121M182.97 198.121H175.394V205.697H182.97M182.97 198.121V205.697M198.121 198.121H205.697M198.121 198.121V205.697H205.697M205.697 198.121H213.273M205.697 198.121V205.697M213.273 198.121H220.848V205.697H213.273M213.273 198.121V205.697M8.72727 205.697H1.15152M8.72727 205.697V213.273M1.15152 205.697V213.273M23.8788 205.697H31.4545M54.1818 205.697H46.6061M54.1818 205.697V213.273M46.6061 205.697V213.273M69.3333 205.697H76.9091V213.273M69.3333 205.697V213.273M92.0606 205.697H84.4848M92.0606 205.697V213.273M84.4848 205.697V213.273M114.788 205.697H122.364M114.788 205.697V213.273M129.939 205.697H122.364M129.939 205.697V213.273M129.939 205.697H137.515M122.364 205.697V213.273M137.515 205.697V213.273M160.242 205.697H167.818V213.273H160.242M160.242 205.697V213.273M182.97 205.697H190.545V213.273H182.97M182.97 205.697V213.273M205.697 205.697H213.273M205.697 205.697V213.273M213.273 205.697V213.273M8.72727 213.273H1.15152M8.72727 213.273V220.848M8.72727 213.273H16.303M1.15152 213.273V220.848H8.72727M54.1818 213.273H46.6061M54.1818 213.273V220.848H46.6061M46.6061 213.273H39.0303M46.6061 213.273V220.848M76.9091 213.273H69.3333M76.9091 213.273V220.848H69.3333V213.273M92.0606 213.273H84.4848M92.0606 213.273V220.848H84.4848V213.273M122.364 213.273H114.788M122.364 213.273H129.939M122.364 213.273V220.848M114.788 213.273H107.212M114.788 213.273V220.848M129.939 213.273H137.515M129.939 213.273V220.848H122.364M137.515 213.273H145.091V220.848H137.515V213.273ZM160.242 213.273H152.667V220.848H160.242V213.273ZM182.97 213.273H175.394V220.848H182.97V213.273ZM213.273 213.273H205.697M213.273 213.273V220.848H205.697V213.273M8.72727 220.848H16.303M16.303 213.273V220.848M16.303 213.273H23.8788M16.303 220.848H23.8788M23.8788 213.273V220.848M23.8788 213.273H31.4545M23.8788 220.848H31.4545M31.4545 213.273V220.848M31.4545 213.273H39.0303M31.4545 220.848H39.0303M39.0303 213.273V220.848M39.0303 220.848H46.6061M107.212 213.273H99.6364V220.848H107.212M107.212 213.273V220.848M107.212 220.848H114.788M114.788 220.848H122.364M61.7576 31.4545H69.3333V39.0303H61.7576V31.4545ZM167.818 167.818H175.394V175.394H167.818V167.818ZM99.6364 182.97H107.212V190.545H99.6364V182.97Z" stroke="black" stroke-width="0.5"/>
</svg>
