<svg width="224" height="224" viewBox="0 0 224 224" fill="none" xmlns="http://www.w3.org/2000/svg">
<path d="M0.513519 0.513519H7.27028V7.27028H0.513519V0.513519Z" fill="black"/>
<path d="M7.27028 0.513519H14.027V7.27028H7.27028V0.513519Z" fill="black"/>
<path d="M14.027 0.513519H20.7838V7.27028H14.027V0.513519Z" fill="black"/>
<path d="M20.7838 0.513519H27.5405V7.27028H20.7838V0.513519Z" fill="black"/>
<path d="M27.5405 0.513519H34.2973V7.27028H27.5405V0.513519Z" fill="black"/>
<path d="M34.2973 0.513519H41.0541V7.27028H34.2973V0.513519Z" fill="black"/>
<path d="M41.0541 0.513519H47.8108V7.27028H41.0541V0.513519Z" fill="black"/>
<path d="M54.5676 0.513519H61.3243V7.27028H54.5676V0.513519Z" fill="black"/>
<path d="M74.8378 0.513519H81.5946V7.27028H74.8378V0.513519Z" fill="black"/>
<path d="M122.135 0.513519H128.892V7.27028H122.135V0.513519Z" fill="black"/>
<path d="M128.892 0.513519H135.649V7.27028H128.892V0.513519Z" fill="black"/>
<path d="M149.162 0.513519H155.919V7.27028H149.162V0.513519Z" fill="black"/>
<path d="M162.676 0.513519H169.432V7.27028H162.676V0.513519Z" fill="black"/>
<path d="M176.189 0.513519H182.946V7.27028H176.189V0.513519Z" fill="black"/>
<path d="M182.946 0.513519H189.703V7.27028H182.946V0.513519Z" fill="black"/>
<path d="M189.703 0.513519H196.459V7.27028H189.703V0.513519Z" fill="black"/>
<path d="M196.459 0.513519H203.216V7.27028H196.459V0.513519Z" fill="black"/>
<path d="M203.216 0.513519H209.973V7.27028H203.216V0.513519Z" fill="black"/>
<path d="M209.973 0.513519H216.73V7.27028H209.973V0.513519Z" fill="black"/>
<path d="M216.73 0.513519H223.486V7.27028H216.73V0.513519Z" fill="black"/>
<path d="M0.513519 7.27028H7.27028V14.027H0.513519V7.27028Z" fill="black"/>
<path d="M41.0541 7.27028H47.8108V14.027H41.0541V7.27028Z" fill="black"/>
<path d="M95.1081 7.27028H101.865V14.027H95.1081V7.27028Z" fill="black"/>
<path d="M101.865 7.27028H108.622V14.027H101.865V7.27028Z" fill="black"/>
<path d="M122.135 7.27028H128.892V14.027H122.135V7.27028Z" fill="black"/>
<path d="M128.892 7.27028H135.649V14.027H128.892V7.27028Z" fill="black"/>
<path d="M142.405 7.27028H149.162V14.027H142.405V7.27028Z" fill="black"/>
<path d="M149.162 7.27028H155.919V14.027H149.162V7.27028Z" fill="black"/>
<path d="M162.676 7.27028H169.432V14.027H162.676V7.27028Z" fill="black"/>
<path d="M176.189 7.27028H182.946V14.027H176.189V7.27028Z" fill="black"/>
<path d="M216.73 7.27028H223.486V14.027H216.73V7.27028Z" fill="black"/>
<path d="M0.513519 14.027H7.27028V20.7838H0.513519V14.027Z" fill="black"/>
<path d="M14.027 14.027H20.7838V20.7838H14.027V14.027Z" fill="black"/>
<path d="M20.7838 14.027H27.5405V20.7838H20.7838V14.027Z" fill="black"/>
<path d="M27.5405 14.027H34.2973V20.7838H27.5405V14.027Z" fill="black"/>
<path d="M41.0541 14.027H47.8108V20.7838H41.0541V14.027Z" fill="black"/>
<path d="M54.5676 14.027H61.3243V20.7838H54.5676V14.027Z" fill="black"/>
<path d="M61.3243 14.027H68.0811V20.7838H61.3243V14.027Z" fill="black"/>
<path d="M74.8378 14.027H81.5946V20.7838H74.8378V14.027Z" fill="black"/>
<path d="M88.3514 14.027H95.1081V20.7838H88.3514V14.027Z" fill="black"/>
<path d="M95.1081 14.027H101.865V20.7838H95.1081V14.027Z" fill="black"/>
<path d="M101.865 14.027H108.622V20.7838H101.865V14.027Z" fill="black"/>
<path d="M108.622 14.027H115.378V20.7838H108.622V14.027Z" fill="black"/>
<path d="M115.378 14.027H122.135V20.7838H115.378V14.027Z" fill="black"/>
<path d="M122.135 14.027H128.892V20.7838H122.135V14.027Z" fill="black"/>
<path d="M142.405 14.027H149.162V20.7838H142.405V14.027Z" fill="black"/>
<path d="M149.162 14.027H155.919V20.7838H149.162V14.027Z" fill="black"/>
<path d="M155.919 14.027H162.676V20.7838H155.919V14.027Z" fill="black"/>
<path d="M162.676 14.027H169.432V20.7838H162.676V14.027Z" fill="black"/>
<path d="M176.189 14.027H182.946V20.7838H176.189V14.027Z" fill="black"/>
<path d="M189.703 14.027H196.459V20.7838H189.703V14.027Z" fill="black"/>
<path d="M196.459 14.027H203.216V20.7838H196.459V14.027Z" fill="black"/>
<path d="M203.216 14.027H209.973V20.7838H203.216V14.027Z" fill="black"/>
<path d="M216.73 14.027H223.486V20.7838H216.73V14.027Z" fill="black"/>
<path d="M0.513519 20.7838H7.27028V27.5405H0.513519V20.7838Z" fill="black"/>
<path d="M14.027 20.7838H20.7838V27.5405H14.027V20.7838Z" fill="black"/>
<path d="M20.7838 20.7838H27.5405V27.5405H20.7838V20.7838Z" fill="black"/>
<path d="M27.5405 20.7838H34.2973V27.5405H27.5405V20.7838Z" fill="black"/>
<path d="M41.0541 20.7838H47.8108V27.5405H41.0541V20.7838Z" fill="black"/>
<path d="M61.3243 20.7838H68.0811V27.5405H61.3243V20.7838Z" fill="black"/>
<path d="M68.0811 20.7838H74.8378V27.5405H68.0811V20.7838Z" fill="black"/>
<path d="M81.5946 20.7838H88.3514V27.5405H81.5946V20.7838Z" fill="black"/>
<path d="M88.3514 20.7838H95.1081V27.5405H88.3514V20.7838Z" fill="black"/>
<path d="M122.135 20.7838H128.892V27.5405H122.135V20.7838Z" fill="black"/>
<path d="M128.892 20.7838H135.649V27.5405H128.892V20.7838Z" fill="black"/>
<path d="M135.649 20.7838H142.405V27.5405H135.649V20.7838Z" fill="black"/>
<path d="M142.405 20.7838H149.162V27.5405H142.405V20.7838Z" fill="black"/>
<path d="M155.919 20.7838H162.676V27.5405H155.919V20.7838Z" fill="black"/>
<path d="M162.676 20.7838H169.432V27.5405H162.676V20.7838Z" fill="black"/>
<path d="M176.189 20.7838H182.946V27.5405H176.189V20.7838Z" fill="black"/>
<path d="M189.703 20.7838H196.459V27.5405H189.703V20.7838Z" fill="black"/>
<path d="M196.459 20.7838H203.216V27.5405H196.459V20.7838Z" fill="black"/>
<path d="M203.216 20.7838H209.973V27.5405H203.216V20.7838Z" fill="black"/>
<path d="M216.73 20.7838H223.486V27.5405H216.73V20.7838Z" fill="black"/>
<path d="M0.513519 27.5405H7.27028V34.2973H0.513519V27.5405Z" fill="black"/>
<path d="M14.027 27.5405H20.7838V34.2973H14.027V27.5405Z" fill="black"/>
<path d="M20.7838 27.5405H27.5405V34.2973H20.7838V27.5405Z" fill="black"/>
<path d="M27.5405 27.5405H34.2973V34.2973H27.5405V27.5405Z" fill="black"/>
<path d="M41.0541 27.5405H47.8108V34.2973H41.0541V27.5405Z" fill="black"/>
<path d="M54.5676 27.5405H61.3243V34.2973H54.5676V27.5405Z" fill="black"/>
<path d="M61.3243 27.5405H68.0811V34.2973H61.3243V27.5405Z" fill="black"/>
<path d="M68.0811 27.5405H74.8378V34.2973H68.0811V27.5405Z" fill="black"/>
<path d="M74.8378 27.5405H81.5946V34.2973H74.8378V27.5405Z" fill="black"/>
<path d="M88.3514 27.5405H95.1081V34.2973H88.3514V27.5405Z" fill="black"/>
<path d="M95.1081 27.5405H101.865V34.2973H95.1081V27.5405Z" fill="black"/>
<path d="M101.865 27.5405H108.622V34.2973H101.865V27.5405Z" fill="black"/>
<path d="M122.135 27.5405H128.892V34.2973H122.135V27.5405Z" fill="black"/>
<path d="M135.649 27.5405H142.405V34.2973H135.649V27.5405Z" fill="black"/>
<path d="M142.405 27.5405H149.162V34.2973H142.405V27.5405Z" fill="black"/>
<path d="M149.162 27.5405H155.919V34.2973H149.162V27.5405Z" fill="black"/>
<path d="M176.189 27.5405H182.946V34.2973H176.189V27.5405Z" fill="black"/>
<path d="M189.703 27.5405H196.459V34.2973H189.703V27.5405Z" fill="black"/>
<path d="M196.459 27.5405H203.216V34.2973H196.459V27.5405Z" fill="black"/>
<path d="M203.216 27.5405H209.973V34.2973H203.216V27.5405Z" fill="black"/>
<path d="M216.73 27.5405H223.486V34.2973H216.73V27.5405Z" fill="black"/>
<path d="M0.513519 34.2973H7.27028V41.0541H0.513519V34.2973Z" fill="black"/>
<path d="M41.0541 34.2973H47.8108V41.0541H41.0541V34.2973Z" fill="black"/>
<path d="M68.0811 34.2973H74.8378V41.0541H68.0811V34.2973Z" fill="black"/>
<path d="M81.5946 34.2973H88.3514V41.0541H81.5946V34.2973Z" fill="black"/>
<path d="M101.865 34.2973H108.622V41.0541H101.865V34.2973Z" fill="black"/>
<path d="M115.378 34.2973H122.135V41.0541H115.378V34.2973Z" fill="black"/>
<path d="M122.135 34.2973H128.892V41.0541H122.135V34.2973Z" fill="black"/>
<path d="M128.892 34.2973H135.649V41.0541H128.892V34.2973Z" fill="black"/>
<path d="M155.919 34.2973H162.676V41.0541H155.919V34.2973Z" fill="black"/>
<path d="M162.676 34.2973H169.432V41.0541H162.676V34.2973Z" fill="black"/>
<path d="M176.189 34.2973H182.946V41.0541H176.189V34.2973Z" fill="black"/>
<path d="M216.73 34.2973H223.486V41.0541H216.73V34.2973Z" fill="black"/>
<path d="M0.513519 41.0541H7.27028V47.8108H0.513519V41.0541Z" fill="black"/>
<path d="M7.27028 41.0541H14.027V47.8108H7.27028V41.0541Z" fill="black"/>
<path d="M14.027 41.0541H20.7838V47.8108H14.027V41.0541Z" fill="black"/>
<path d="M20.7838 41.0541H27.5405V47.8108H20.7838V41.0541Z" fill="black"/>
<path d="M27.5405 41.0541H34.2973V47.8108H27.5405V41.0541Z" fill="black"/>
<path d="M34.2973 41.0541H41.0541V47.8108H34.2973V41.0541Z" fill="black"/>
<path d="M41.0541 41.0541H47.8108V47.8108H41.0541V41.0541Z" fill="black"/>
<path d="M54.5676 41.0541H61.3243V47.8108H54.5676V41.0541Z" fill="black"/>
<path d="M68.0811 41.0541H74.8378V47.8108H68.0811V41.0541Z" fill="black"/>
<path d="M81.5946 41.0541H88.3514V47.8108H81.5946V41.0541Z" fill="black"/>
<path d="M95.1081 41.0541H101.865V47.8108H95.1081V41.0541Z" fill="black"/>
<path d="M108.622 41.0541H115.378V47.8108H108.622V41.0541Z" fill="black"/>
<path d="M122.135 41.0541H128.892V47.8108H122.135V41.0541Z" fill="black"/>
<path d="M135.649 41.0541H142.405V47.8108H135.649V41.0541Z" fill="black"/>
<path d="M149.162 41.0541H155.919V47.8108H149.162V41.0541Z" fill="black"/>
<path d="M162.676 41.0541H169.432V47.8108H162.676V41.0541Z" fill="black"/>
<path d="M176.189 41.0541H182.946V47.8108H176.189V41.0541Z" fill="black"/>
<path d="M182.946 41.0541H189.703V47.8108H182.946V41.0541Z" fill="black"/>
<path d="M189.703 41.0541H196.459V47.8108H189.703V41.0541Z" fill="black"/>
<path d="M196.459 41.0541H203.216V47.8108H196.459V41.0541Z" fill="black"/>
<path d="M203.216 41.0541H209.973V47.8108H203.216V41.0541Z" fill="black"/>
<path d="M209.973 41.0541H216.73V47.8108H209.973V41.0541Z" fill="black"/>
<path d="M216.73 41.0541H223.486V47.8108H216.73V41.0541Z" fill="black"/>
<path d="M54.5676 47.8108H61.3243V54.5676H54.5676V47.8108Z" fill="black"/>
<path d="M74.8378 47.8108H81.5946V54.5676H74.8378V47.8108Z" fill="black"/>
<path d="M88.3514 47.8108H95.1081V54.5676H88.3514V47.8108Z" fill="black"/>
<path d="M95.1081 47.8108H101.865V54.5676H95.1081V47.8108Z" fill="black"/>
<path d="M108.622 47.8108H115.378V54.5676H108.622V47.8108Z" fill="black"/>
<path d="M135.649 47.8108H142.405V54.5676H135.649V47.8108Z" fill="black"/>
<path d="M149.162 47.8108H155.919V54.5676H149.162V47.8108Z" fill="black"/>
<path d="M155.919 47.8108H162.676V54.5676H155.919V47.8108Z" fill="black"/>
<path d="M34.2973 54.5676H41.0541V61.3243H34.2973V54.5676Z" fill="black"/>
<path d="M41.0541 54.5676H47.8108V61.3243H41.0541V54.5676Z" fill="black"/>
<path d="M61.3243 54.5676H68.0811V61.3243H61.3243V54.5676Z" fill="black"/>
<path d="M68.0811 54.5676H74.8378V61.3243H68.0811V54.5676Z" fill="black"/>
<path d="M95.1081 54.5676H101.865V61.3243H95.1081V54.5676Z" fill="black"/>
<path d="M101.865 54.5676H108.622V61.3243H101.865V54.5676Z" fill="black"/>
<path d="M128.892 54.5676H135.649V61.3243H128.892V54.5676Z" fill="black"/>
<path d="M149.162 54.5676H155.919V61.3243H149.162V54.5676Z" fill="black"/>
<path d="M155.919 54.5676H162.676V61.3243H155.919V54.5676Z" fill="black"/>
<path d="M162.676 54.5676H169.432V61.3243H162.676V54.5676Z" fill="black"/>
<path d="M176.189 54.5676H182.946V61.3243H176.189V54.5676Z" fill="black"/>
<path d="M189.703 54.5676H196.459V61.3243H189.703V54.5676Z" fill="black"/>
<path d="M203.216 54.5676H209.973V61.3243H203.216V54.5676Z" fill="black"/>
<path d="M216.73 54.5676H223.486V61.3243H216.73V54.5676Z" fill="black"/>
<path d="M0.513519 61.3243H7.27028V68.0811H0.513519V61.3243Z" fill="black"/>
<path d="M7.27028 61.3243H14.027V68.0811H7.27028V61.3243Z" fill="black"/>
<path d="M34.2973 61.3243H41.0541V68.0811H34.2973V61.3243Z" fill="black"/>
<path d="M54.5676 61.3243H61.3243V68.0811H54.5676V61.3243Z" fill="black"/>
<path d="M61.3243 61.3243H68.0811V68.0811H61.3243V61.3243Z" fill="black"/>
<path d="M81.5946 61.3243H88.3514V68.0811H81.5946V61.3243Z" fill="black"/>
<path d="M88.3514 61.3243H95.1081V68.0811H88.3514V61.3243Z" fill="black"/>
<path d="M101.865 61.3243H108.622V68.0811H101.865V61.3243Z" fill="black"/>
<path d="M108.622 61.3243H115.378V68.0811H108.622V61.3243Z" fill="black"/>
<path d="M115.378 61.3243H122.135V68.0811H115.378V61.3243Z" fill="black"/>
<path d="M122.135 61.3243H128.892V68.0811H122.135V61.3243Z" fill="black"/>
<path d="M135.649 61.3243H142.405V68.0811H135.649V61.3243Z" fill="black"/>
<path d="M149.162 61.3243H155.919V68.0811H149.162V61.3243Z" fill="black"/>
<path d="M155.919 61.3243H162.676V68.0811H155.919V61.3243Z" fill="black"/>
<path d="M169.432 61.3243H176.189V68.0811H169.432V61.3243Z" fill="black"/>
<path d="M182.946 61.3243H189.703V68.0811H182.946V61.3243Z" fill="black"/>
<path d="M189.703 61.3243H196.459V68.0811H189.703V61.3243Z" fill="black"/>
<path d="M203.216 61.3243H209.973V68.0811H203.216V61.3243Z" fill="black"/>
<path d="M7.27028 68.0811H14.027V74.8378H7.27028V68.0811Z" fill="black"/>
<path d="M14.027 68.0811H20.7838V74.8378H14.027V68.0811Z" fill="black"/>
<path d="M34.2973 68.0811H41.0541V74.8378H34.2973V68.0811Z" fill="black"/>
<path d="M41.0541 68.0811H47.8108V74.8378H41.0541V68.0811Z" fill="black"/>
<path d="M54.5676 68.0811H61.3243V74.8378H54.5676V68.0811Z" fill="black"/>
<path d="M88.3514 68.0811H95.1081V74.8378H88.3514V68.0811Z" fill="black"/>
<path d="M101.865 68.0811H108.622V74.8378H101.865V68.0811Z" fill="black"/>
<path d="M108.622 68.0811H115.378V74.8378H108.622V68.0811Z" fill="black"/>
<path d="M128.892 68.0811H135.649V74.8378H128.892V68.0811Z" fill="black"/>
<path d="M135.649 68.0811H142.405V74.8378H135.649V68.0811Z" fill="black"/>
<path d="M142.405 68.0811H149.162V74.8378H142.405V68.0811Z" fill="black"/>
<path d="M162.676 68.0811H169.432V74.8378H162.676V68.0811Z" fill="black"/>
<path d="M169.432 68.0811H176.189V74.8378H169.432V68.0811Z" fill="black"/>
<path d="M182.946 68.0811H189.703V74.8378H182.946V68.0811Z" fill="black"/>
<path d="M196.459 68.0811H203.216V74.8378H196.459V68.0811Z" fill="black"/>
<path d="M203.216 68.0811H209.973V74.8378H203.216V68.0811Z" fill="black"/>
<path d="M209.973 68.0811H216.73V74.8378H209.973V68.0811Z" fill="black"/>
<path d="M14.027 74.8378H20.7838V81.5946H14.027V74.8378Z" fill="black"/>
<path d="M27.5405 74.8378H34.2973V81.5946H27.5405V74.8378Z" fill="black"/>
<path d="M34.2973 74.8378H41.0541V81.5946H34.2973V74.8378Z" fill="black"/>
<path d="M61.3243 74.8378H68.0811V81.5946H61.3243V74.8378Z" fill="black"/>
<path d="M74.8378 74.8378H81.5946V81.5946H74.8378V74.8378Z" fill="black"/>
<path d="M81.5946 74.8378H88.3514V81.5946H81.5946V74.8378Z" fill="black"/>
<path d="M88.3514 74.8378H95.1081V81.5946H88.3514V74.8378Z" fill="black"/>
<path d="M95.1081 74.8378H101.865V81.5946H95.1081V74.8378Z" fill="black"/>
<path d="M115.378 74.8378H122.135V81.5946H115.378V74.8378Z" fill="black"/>
<path d="M122.135 74.8378H128.892V81.5946H122.135V74.8378Z" fill="black"/>
<path d="M149.162 74.8378H155.919V81.5946H149.162V74.8378Z" fill="black"/>
<path d="M169.432 74.8378H176.189V81.5946H169.432V74.8378Z" fill="black"/>
<path d="M176.189 74.8378H182.946V81.5946H176.189V74.8378Z" fill="black"/>
<path d="M182.946 74.8378H189.703V81.5946H182.946V74.8378Z" fill="black"/>
<path d="M196.459 74.8378H203.216V81.5946H196.459V74.8378Z" fill="black"/>
<path d="M203.216 74.8378H209.973V81.5946H203.216V74.8378Z" fill="black"/>
<path d="M20.7838 81.5946H27.5405V88.3514H20.7838V81.5946Z" fill="black"/>
<path d="M34.2973 81.5946H41.0541V88.3514H34.2973V81.5946Z" fill="black"/>
<path d="M41.0541 81.5946H47.8108V88.3514H41.0541V81.5946Z" fill="black"/>
<path d="M47.8108 81.5946H54.5676V88.3514H47.8108V81.5946Z" fill="black"/>
<path d="M54.5676 81.5946H61.3243V88.3514H54.5676V81.5946Z" fill="black"/>
<path d="M61.3243 81.5946H68.0811V88.3514H61.3243V81.5946Z" fill="black"/>
<path d="M68.0811 81.5946H74.8378V88.3514H68.0811V81.5946Z" fill="black"/>
<path d="M81.5946 81.5946H88.3514V88.3514H81.5946V81.5946Z" fill="black"/>
<path d="M95.1081 81.5946H101.865V88.3514H95.1081V81.5946Z" fill="black"/>
<path d="M122.135 81.5946H128.892V88.3514H122.135V81.5946Z" fill="black"/>
<path d="M142.405 81.5946H149.162V88.3514H142.405V81.5946Z" fill="black"/>
<path d="M149.162 81.5946H155.919V88.3514H149.162V81.5946Z" fill="black"/>
<path d="M162.676 81.5946H169.432V88.3514H162.676V81.5946Z" fill="black"/>
<path d="M176.189 81.5946H182.946V88.3514H176.189V81.5946Z" fill="black"/>
<path d="M182.946 81.5946H189.703V88.3514H182.946V81.5946Z" fill="black"/>
<path d="M189.703 81.5946H196.459V88.3514H189.703V81.5946Z" fill="black"/>
<path d="M14.027 88.3514H20.7838V95.1081H14.027V88.3514Z" fill="black"/>
<path d="M20.7838 88.3514H27.5405V95.1081H20.7838V88.3514Z" fill="black"/>
<path d="M27.5405 88.3514H34.2973V95.1081H27.5405V88.3514Z" fill="black"/>
<path d="M47.8108 88.3514H54.5676V95.1081H47.8108V88.3514Z" fill="black"/>
<path d="M54.5676 88.3514H61.3243V95.1081H54.5676V88.3514Z" fill="black"/>
<path d="M74.8378 88.3514H81.5946V95.1081H74.8378V88.3514Z" fill="black"/>
<path d="M88.3514 88.3514H95.1081V95.1081H88.3514V88.3514Z" fill="black"/>
<path d="M115.378 88.3514H122.135V95.1081H115.378V88.3514Z" fill="black"/>
<path d="M128.892 88.3514H135.649V95.1081H128.892V88.3514Z" fill="black"/>
<path d="M135.649 88.3514H142.405V95.1081H135.649V88.3514Z" fill="black"/>
<path d="M142.405 88.3514H149.162V95.1081H142.405V88.3514Z" fill="black"/>
<path d="M149.162 88.3514H155.919V95.1081H149.162V88.3514Z" fill="black"/>
<path d="M155.919 88.3514H162.676V95.1081H155.919V88.3514Z" fill="black"/>
<path d="M176.189 88.3514H182.946V95.1081H176.189V88.3514Z" fill="black"/>
<path d="M196.459 88.3514H203.216V95.1081H196.459V88.3514Z" fill="black"/>
<path d="M216.73 88.3514H223.486V95.1081H216.73V88.3514Z" fill="black"/>
<path d="M7.27028 95.1081H14.027V101.865H7.27028V95.1081Z" fill="black"/>
<path d="M14.027 95.1081H20.7838V101.865H14.027V95.1081Z" fill="black"/>
<path d="M27.5405 95.1081H34.2973V101.865H27.5405V95.1081Z" fill="black"/>
<path d="M34.2973 95.1081H41.0541V101.865H34.2973V95.1081Z" fill="black"/>
<path d="M41.0541 95.1081H47.8108V101.865H41.0541V95.1081Z" fill="black"/>
<path d="M47.8108 95.1081H54.5676V101.865H47.8108V95.1081Z" fill="black"/>
<path d="M54.5676 95.1081H61.3243V101.865H54.5676V95.1081Z" fill="black"/>
<path d="M68.0811 95.1081H74.8378V101.865H68.0811V95.1081Z" fill="black"/>
<path d="M74.8378 95.1081H81.5946V101.865H74.8378V95.1081Z" fill="black"/>
<path d="M88.3514 95.1081H95.1081V101.865H88.3514V95.1081Z" fill="black"/>
<path d="M108.622 95.1081H115.378V101.865H108.622V95.1081Z" fill="black"/>
<path d="M122.135 95.1081H128.892V101.865H122.135V95.1081Z" fill="black"/>
<path d="M149.162 95.1081H155.919V101.865H149.162V95.1081Z" fill="black"/>
<path d="M162.676 95.1081H169.432V101.865H162.676V95.1081Z" fill="black"/>
<path d="M169.432 95.1081H176.189V101.865H169.432V95.1081Z" fill="black"/>
<path d="M176.189 95.1081H182.946V101.865H176.189V95.1081Z" fill="black"/>
<path d="M182.946 95.1081H189.703V101.865H182.946V95.1081Z" fill="black"/>
<path d="M196.459 95.1081H203.216V101.865H196.459V95.1081Z" fill="black"/>
<path d="M203.216 95.1081H209.973V101.865H203.216V95.1081Z" fill="black"/>
<path d="M209.973 95.1081H216.73V101.865H209.973V95.1081Z" fill="black"/>
<path d="M0.513519 101.865H7.27028V108.622H0.513519V101.865Z" fill="black"/>
<path d="M14.027 101.865H20.7838V108.622H14.027V101.865Z" fill="black"/>
<path d="M20.7838 101.865H27.5405V108.622H20.7838V101.865Z" fill="black"/>
<path d="M27.5405 101.865H34.2973V108.622H27.5405V101.865Z" fill="black"/>
<path d="M34.2973 101.865H41.0541V108.622H34.2973V101.865Z" fill="black"/>
<path d="M47.8108 101.865H54.5676V108.622H47.8108V101.865Z" fill="black"/>
<path d="M54.5676 101.865H61.3243V108.622H54.5676V101.865Z" fill="black"/>
<path d="M74.8378 101.865H81.5946V108.622H74.8378V101.865Z" fill="black"/>
<path d="M81.5946 101.865H88.3514V108.622H81.5946V101.865Z" fill="black"/>
<path d="M88.3514 101.865H95.1081V108.622H88.3514V101.865Z" fill="black"/>
<path d="M95.1081 101.865H101.865V108.622H95.1081V101.865Z" fill="black"/>
<path d="M101.865 101.865H108.622V108.622H101.865V101.865Z" fill="black"/>
<path d="M108.622 101.865H115.378V108.622H108.622V101.865Z" fill="black"/>
<path d="M115.378 101.865H122.135V108.622H115.378V101.865Z" fill="black"/>
<path d="M128.892 101.865H135.649V108.622H128.892V101.865Z" fill="black"/>
<path d="M155.919 101.865H162.676V108.622H155.919V101.865Z" fill="black"/>
<path d="M169.432 101.865H176.189V108.622H169.432V101.865Z" fill="black"/>
<path d="M182.946 101.865H189.703V108.622H182.946V101.865Z" fill="black"/>
<path d="M189.703 101.865H196.459V108.622H189.703V101.865Z" fill="black"/>
<path d="M196.459 101.865H203.216V108.622H196.459V101.865Z" fill="black"/>
<path d="M203.216 101.865H209.973V108.622H203.216V101.865Z" fill="black"/>
<path d="M209.973 101.865H216.73V108.622H209.973V101.865Z" fill="black"/>
<path d="M216.73 101.865H223.486V108.622H216.73V101.865Z" fill="black"/>
<path d="M20.7838 108.622H27.5405V115.378H20.7838V108.622Z" fill="black"/>
<path d="M34.2973 108.622H41.0541V115.378H34.2973V108.622Z" fill="black"/>
<path d="M41.0541 108.622H47.8108V115.378H41.0541V108.622Z" fill="black"/>
<path d="M61.3243 108.622H68.0811V115.378H61.3243V108.622Z" fill="black"/>
<path d="M68.0811 108.622H74.8378V115.378H68.0811V108.622Z" fill="black"/>
<path d="M74.8378 108.622H81.5946V115.378H74.8378V108.622Z" fill="black"/>
<path d="M88.3514 108.622H95.1081V115.378H88.3514V108.622Z" fill="black"/>
<path d="M95.1081 108.622H101.865V115.378H95.1081V108.622Z" fill="black"/>
<path d="M108.622 108.622H115.378V115.378H108.622V108.622Z" fill="black"/>
<path d="M115.378 108.622H122.135V115.378H115.378V108.622Z" fill="black"/>
<path d="M122.135 108.622H128.892V115.378H122.135V108.622Z" fill="black"/>
<path d="M135.649 108.622H142.405V115.378H135.649V108.622Z" fill="black"/>
<path d="M155.919 108.622H162.676V115.378H155.919V108.622Z" fill="black"/>
<path d="M182.946 108.622H189.703V115.378H182.946V108.622Z" fill="black"/>
<path d="M189.703 108.622H196.459V115.378H189.703V108.622Z" fill="black"/>
<path d="M209.973 108.622H216.73V115.378H209.973V108.622Z" fill="black"/>
<path d="M216.73 108.622H223.486V115.378H216.73V108.622Z" fill="black"/>
<path d="M14.027 115.378H20.7838V122.135H14.027V115.378Z" fill="black"/>
<path d="M20.7838 115.378H27.5405V122.135H20.7838V115.378Z" fill="black"/>
<path d="M34.2973 115.378H41.0541V122.135H34.2973V115.378Z" fill="black"/>
<path d="M54.5676 115.378H61.3243V122.135H54.5676V115.378Z" fill="black"/>
<path d="M68.0811 115.378H74.8378V122.135H68.0811V115.378Z" fill="black"/>
<path d="M81.5946 115.378H88.3514V122.135H81.5946V115.378Z" fill="black"/>
<path d="M95.1081 115.378H101.865V122.135H95.1081V115.378Z" fill="black"/>
<path d="M108.622 115.378H115.378V122.135H108.622V115.378Z" fill="black"/>
<path d="M122.135 115.378H128.892V122.135H122.135V115.378Z" fill="black"/>
<path d="M135.649 115.378H142.405V122.135H135.649V115.378Z" fill="black"/>
<path d="M155.919 115.378H162.676V122.135H155.919V115.378Z" fill="black"/>
<path d="M162.676 115.378H169.432V122.135H162.676V115.378Z" fill="black"/>
<path d="M169.432 115.378H176.189V122.135H169.432V115.378Z" fill="black"/>
<path d="M176.189 115.378H182.946V122.135H176.189V115.378Z" fill="black"/>
<path d="M209.973 115.378H216.73V122.135H209.973V115.378Z" fill="black"/>
<path d="M216.73 115.378H223.486V122.135H216.73V115.378Z" fill="black"/>
<path d="M0.513519 122.135H7.27028V128.892H0.513519V122.135Z" fill="black"/>
<path d="M14.027 122.135H20.7838V128.892H14.027V122.135Z" fill="black"/>
<path d="M27.5405 122.135H34.2973V128.892H27.5405V122.135Z" fill="black"/>
<path d="M41.0541 122.135H47.8108V128.892H41.0541V122.135Z" fill="black"/>
<path d="M47.8108 122.135H54.5676V128.892H47.8108V122.135Z" fill="black"/>
<path d="M61.3243 122.135H68.0811V128.892H61.3243V122.135Z" fill="black"/>
<path d="M74.8378 122.135H81.5946V128.892H74.8378V122.135Z" fill="black"/>
<path d="M101.865 122.135H108.622V128.892H101.865V122.135Z" fill="black"/>
<path d="M122.135 122.135H128.892V128.892H122.135V122.135Z" fill="black"/>
<path d="M135.649 122.135H142.405V128.892H135.649V122.135Z" fill="black"/>
<path d="M155.919 122.135H162.676V128.892H155.919V122.135Z" fill="black"/>
<path d="M182.946 122.135H189.703V128.892H182.946V122.135Z" fill="black"/>
<path d="M189.703 122.135H196.459V128.892H189.703V122.135Z" fill="black"/>
<path d="M196.459 122.135H203.216V128.892H196.459V122.135Z" fill="black"/>
<path d="M203.216 122.135H209.973V128.892H203.216V122.135Z" fill="black"/>
<path d="M209.973 122.135H216.73V128.892H209.973V122.135Z" fill="black"/>
<path d="M216.73 122.135H223.486V128.892H216.73V122.135Z" fill="black"/>
<path d="M0.513519 128.892H7.27028V135.649H0.513519V128.892Z" fill="black"/>
<path d="M7.27028 128.892H14.027V135.649H7.27028V128.892Z" fill="black"/>
<path d="M34.2973 128.892H41.0541V135.649H34.2973V128.892Z" fill="black"/>
<path d="M61.3243 128.892H68.0811V135.649H61.3243V128.892Z" fill="black"/>
<path d="M74.8378 128.892H81.5946V135.649H74.8378V128.892Z" fill="black"/>
<path d="M81.5946 128.892H88.3514V135.649H81.5946V128.892Z" fill="black"/>
<path d="M88.3514 128.892H95.1081V135.649H88.3514V128.892Z" fill="black"/>
<path d="M101.865 128.892H108.622V135.649H101.865V128.892Z" fill="black"/>
<path d="M115.378 128.892H122.135V135.649H115.378V128.892Z" fill="black"/>
<path d="M135.649 128.892H142.405V135.649H135.649V128.892Z" fill="black"/>
<path d="M149.162 128.892H155.919V135.649H149.162V128.892Z" fill="black"/>
<path d="M155.919 128.892H162.676V135.649H155.919V128.892Z" fill="black"/>
<path d="M162.676 128.892H169.432V135.649H162.676V128.892Z" fill="black"/>
<path d="M176.189 128.892H182.946V135.649H176.189V128.892Z" fill="black"/>
<path d="M196.459 128.892H203.216V135.649H196.459V128.892Z" fill="black"/>
<path d="M203.216 128.892H209.973V135.649H203.216V128.892Z" fill="black"/>
<path d="M209.973 128.892H216.73V135.649H209.973V128.892Z" fill="black"/>
<path d="M216.73 128.892H223.486V135.649H216.73V128.892Z" fill="black"/>
<path d="M0.513519 135.649H7.27028V142.405H0.513519V135.649Z" fill="black"/>
<path d="M27.5405 135.649H34.2973V142.405H27.5405V135.649Z" fill="black"/>
<path d="M34.2973 135.649H41.0541V142.405H34.2973V135.649Z" fill="black"/>
<path d="M41.0541 135.649H47.8108V142.405H41.0541V135.649Z" fill="black"/>
<path d="M47.8108 135.649H54.5676V142.405H47.8108V135.649Z" fill="black"/>
<path d="M68.0811 135.649H74.8378V142.405H68.0811V135.649Z" fill="black"/>
<path d="M101.865 135.649H108.622V142.405H101.865V135.649Z" fill="black"/>
<path d="M115.378 135.649H122.135V142.405H115.378V135.649Z" fill="black"/>
<path d="M122.135 135.649H128.892V142.405H122.135V135.649Z" fill="black"/>
<path d="M169.432 135.649H176.189V142.405H169.432V135.649Z" fill="black"/>
<path d="M176.189 135.649H182.946V142.405H176.189V135.649Z" fill="black"/>
<path d="M182.946 135.649H189.703V142.405H182.946V135.649Z" fill="black"/>
<path d="M189.703 135.649H196.459V142.405H189.703V135.649Z" fill="black"/>
<path d="M196.459 135.649H203.216V142.405H196.459V135.649Z" fill="black"/>
<path d="M209.973 135.649H216.73V142.405H209.973V135.649Z" fill="black"/>
<path d="M0.513519 142.405H7.27028V149.162H0.513519V142.405Z" fill="black"/>
<path d="M7.27028 142.405H14.027V149.162H7.27028V142.405Z" fill="black"/>
<path d="M27.5405 142.405H34.2973V149.162H27.5405V142.405Z" fill="black"/>
<path d="M54.5676 142.405H61.3243V149.162H54.5676V142.405Z" fill="black"/>
<path d="M61.3243 142.405H68.0811V149.162H61.3243V142.405Z" fill="black"/>
<path d="M68.0811 142.405H74.8378V149.162H68.0811V142.405Z" fill="black"/>
<path d="M88.3514 142.405H95.1081V149.162H88.3514V142.405Z" fill="black"/>
<path d="M135.649 142.405H142.405V149.162H135.649V142.405Z" fill="black"/>
<path d="M142.405 142.405H149.162V149.162H142.405V142.405Z" fill="black"/>
<path d="M149.162 142.405H155.919V149.162H149.162V142.405Z" fill="black"/>
<path d="M162.676 142.405H169.432V149.162H162.676V142.405Z" fill="black"/>
<path d="M176.189 142.405H182.946V149.162H176.189V142.405Z" fill="black"/>
<path d="M182.946 142.405H189.703V149.162H182.946V142.405Z" fill="black"/>
<path d="M189.703 142.405H196.459V149.162H189.703V142.405Z" fill="black"/>
<path d="M203.216 142.405H209.973V149.162H203.216V142.405Z" fill="black"/>
<path d="M0.513519 149.162H7.27028V155.919H0.513519V149.162Z" fill="black"/>
<path d="M14.027 149.162H20.7838V155.919H14.027V149.162Z" fill="black"/>
<path d="M27.5405 149.162H34.2973V155.919H27.5405V149.162Z" fill="black"/>
<path d="M41.0541 149.162H47.8108V155.919H41.0541V149.162Z" fill="black"/>
<path d="M54.5676 149.162H61.3243V155.919H54.5676V149.162Z" fill="black"/>
<path d="M61.3243 149.162H68.0811V155.919H61.3243V149.162Z" fill="black"/>
<path d="M68.0811 149.162H74.8378V155.919H68.0811V149.162Z" fill="black"/>
<path d="M74.8378 149.162H81.5946V155.919H74.8378V149.162Z" fill="black"/>
<path d="M81.5946 149.162H88.3514V155.919H81.5946V149.162Z" fill="black"/>
<path d="M88.3514 149.162H95.1081V155.919H88.3514V149.162Z" fill="black"/>
<path d="M95.1081 149.162H101.865V155.919H95.1081V149.162Z" fill="black"/>
<path d="M108.622 149.162H115.378V155.919H108.622V149.162Z" fill="black"/>
<path d="M115.378 149.162H122.135V155.919H115.378V149.162Z" fill="black"/>
<path d="M122.135 149.162H128.892V155.919H122.135V149.162Z" fill="black"/>
<path d="M135.649 149.162H142.405V155.919H135.649V149.162Z" fill="black"/>
<path d="M149.162 149.162H155.919V155.919H149.162V149.162Z" fill="black"/>
<path d="M196.459 149.162H203.216V155.919H196.459V149.162Z" fill="black"/>
<path d="M203.216 149.162H209.973V155.919H203.216V149.162Z" fill="black"/>
<path d="M209.973 149.162H216.73V155.919H209.973V149.162Z" fill="black"/>
<path d="M0.513519 155.919H7.27028V162.676H0.513519V155.919Z" fill="black"/>
<path d="M20.7838 155.919H27.5405V162.676H20.7838V155.919Z" fill="black"/>
<path d="M27.5405 155.919H34.2973V162.676H27.5405V155.919Z" fill="black"/>
<path d="M34.2973 155.919H41.0541V162.676H34.2973V155.919Z" fill="black"/>
<path d="M68.0811 155.919H74.8378V162.676H68.0811V155.919Z" fill="black"/>
<path d="M81.5946 155.919H88.3514V162.676H81.5946V155.919Z" fill="black"/>
<path d="M108.622 155.919H115.378V162.676H108.622V155.919Z" fill="black"/>
<path d="M162.676 155.919H169.432V162.676H162.676V155.919Z" fill="black"/>
<path d="M182.946 155.919H189.703V162.676H182.946V155.919Z" fill="black"/>
<path d="M196.459 155.919H203.216V162.676H196.459V155.919Z" fill="black"/>
<path d="M203.216 155.919H209.973V162.676H203.216V155.919Z" fill="black"/>
<path d="M216.73 155.919H223.486V162.676H216.73V155.919Z" fill="black"/>
<path d="M0.513519 162.676H7.27028V169.432H0.513519V162.676Z" fill="black"/>
<path d="M7.27028 162.676H14.027V169.432H7.27028V162.676Z" fill="black"/>
<path d="M14.027 162.676H20.7838V169.432H14.027V162.676Z" fill="black"/>
<path d="M20.7838 162.676H27.5405V169.432H20.7838V162.676Z" fill="black"/>
<path d="M27.5405 162.676H34.2973V169.432H27.5405V162.676Z" fill="black"/>
<path d="M41.0541 162.676H47.8108V169.432H41.0541V162.676Z" fill="black"/>
<path d="M61.3243 162.676H68.0811V169.432H61.3243V162.676Z" fill="black"/>
<path d="M68.0811 162.676H74.8378V169.432H68.0811V162.676Z" fill="black"/>
<path d="M81.5946 162.676H88.3514V169.432H81.5946V162.676Z" fill="black"/>
<path d="M88.3514 162.676H95.1081V169.432H88.3514V162.676Z" fill="black"/>
<path d="M95.1081 162.676H101.865V169.432H95.1081V162.676Z" fill="black"/>
<path d="M108.622 162.676H115.378V169.432H108.622V162.676Z" fill="black"/>
<path d="M115.378 162.676H122.135V169.432H115.378V162.676Z" fill="black"/>
<path d="M122.135 162.676H128.892V169.432H122.135V162.676Z" fill="black"/>
<path d="M128.892 162.676H135.649V169.432H128.892V162.676Z" fill="black"/>
<path d="M135.649 162.676H142.405V169.432H135.649V162.676Z" fill="black"/>
<path d="M155.919 162.676H162.676V169.432H155.919V162.676Z" fill="black"/>
<path d="M162.676 162.676H169.432V169.432H162.676V162.676Z" fill="black"/>
<path d="M169.432 162.676H176.189V169.432H169.432V162.676Z" fill="black"/>
<path d="M176.189 162.676H182.946V169.432H176.189V162.676Z" fill="black"/>
<path d="M182.946 162.676H189.703V169.432H182.946V162.676Z" fill="black"/>
<path d="M189.703 162.676H196.459V169.432H189.703V162.676Z" fill="black"/>
<path d="M54.5676 169.432H61.3243V176.189H54.5676V169.432Z" fill="black"/>
<path d="M61.3243 169.432H68.0811V176.189H61.3243V169.432Z" fill="black"/>
<path d="M88.3514 169.432H95.1081V176.189H88.3514V169.432Z" fill="black"/>
<path d="M95.1081 169.432H101.865V176.189H95.1081V169.432Z" fill="black"/>
<path d="M101.865 169.432H108.622V176.189H101.865V169.432Z" fill="black"/>
<path d="M108.622 169.432H115.378V176.189H108.622V169.432Z" fill="black"/>
<path d="M122.135 169.432H128.892V176.189H122.135V169.432Z" fill="black"/>
<path d="M128.892 169.432H135.649V176.189H128.892V169.432Z" fill="black"/>
<path d="M135.649 169.432H142.405V176.189H135.649V169.432Z" fill="black"/>
<path d="M142.405 169.432H149.162V176.189H142.405V169.432Z" fill="black"/>
<path d="M162.676 169.432H169.432V176.189H162.676V169.432Z" fill="black"/>
<path d="M189.703 169.432H196.459V176.189H189.703V169.432Z" fill="black"/>
<path d="M203.216 169.432H209.973V176.189H203.216V169.432Z" fill="black"/>
<path d="M216.73 169.432H223.486V176.189H216.73V169.432Z" fill="black"/>
<path d="M0.513519 176.189H7.27028V182.946H0.513519V176.189Z" fill="black"/>
<path d="M7.27028 176.189H14.027V182.946H7.27028V176.189Z" fill="black"/>
<path d="M14.027 176.189H20.7838V182.946H14.027V176.189Z" fill="black"/>
<path d="M20.7838 176.189H27.5405V182.946H20.7838V176.189Z" fill="black"/>
<path d="M27.5405 176.189H34.2973V182.946H27.5405V176.189Z" fill="black"/>
<path d="M34.2973 176.189H41.0541V182.946H34.2973V176.189Z" fill="black"/>
<path d="M41.0541 176.189H47.8108V182.946H41.0541V176.189Z" fill="black"/>
<path d="M74.8378 176.189H81.5946V182.946H74.8378V176.189Z" fill="black"/>
<path d="M95.1081 176.189H101.865V182.946H95.1081V176.189Z" fill="black"/>
<path d="M108.622 176.189H115.378V182.946H108.622V176.189Z" fill="black"/>
<path d="M115.378 176.189H122.135V182.946H115.378V176.189Z" fill="black"/>
<path d="M149.162 176.189H155.919V182.946H149.162V176.189Z" fill="black"/>
<path d="M155.919 176.189H162.676V182.946H155.919V176.189Z" fill="black"/>
<path d="M162.676 176.189H169.432V182.946H162.676V176.189Z" fill="black"/>
<path d="M176.189 176.189H182.946V182.946H176.189V176.189Z" fill="black"/>
<path d="M189.703 176.189H196.459V182.946H189.703V176.189Z" fill="black"/>
<path d="M203.216 176.189H209.973V182.946H203.216V176.189Z" fill="black"/>
<path d="M209.973 176.189H216.73V182.946H209.973V176.189Z" fill="black"/>
<path d="M0.513519 182.946H7.27028V189.703H0.513519V182.946Z" fill="black"/>
<path d="M41.0541 182.946H47.8108V189.703H41.0541V182.946Z" fill="black"/>
<path d="M54.5676 182.946H61.3243V189.703H54.5676V182.946Z" fill="black"/>
<path d="M68.0811 182.946H74.8378V189.703H68.0811V182.946Z" fill="black"/>
<path d="M108.622 182.946H115.378V189.703H108.622V182.946Z" fill="black"/>
<path d="M142.405 182.946H149.162V189.703H142.405V182.946Z" fill="black"/>
<path d="M149.162 182.946H155.919V189.703H149.162V182.946Z" fill="black"/>
<path d="M155.919 182.946H162.676V189.703H155.919V182.946Z" fill="black"/>
<path d="M162.676 182.946H169.432V189.703H162.676V182.946Z" fill="black"/>
<path d="M189.703 182.946H196.459V189.703H189.703V182.946Z" fill="black"/>
<path d="M196.459 182.946H203.216V189.703H196.459V182.946Z" fill="black"/>
<path d="M203.216 182.946H209.973V189.703H203.216V182.946Z" fill="black"/>
<path d="M209.973 182.946H216.73V189.703H209.973V182.946Z" fill="black"/>
<path d="M0.513519 189.703H7.27028V196.459H0.513519V189.703Z" fill="black"/>
<path d="M14.027 189.703H20.7838V196.459H14.027V189.703Z" fill="black"/>
<path d="M20.7838 189.703H27.5405V196.459H20.7838V189.703Z" fill="black"/>
<path d="M27.5405 189.703H34.2973V196.459H27.5405V189.703Z" fill="black"/>
<path d="M41.0541 189.703H47.8108V196.459H41.0541V189.703Z" fill="black"/>
<path d="M61.3243 189.703H68.0811V196.459H61.3243V189.703Z" fill="black"/>
<path d="M68.0811 189.703H74.8378V196.459H68.0811V189.703Z" fill="black"/>
<path d="M115.378 189.703H122.135V196.459H115.378V189.703Z" fill="black"/>
<path d="M128.892 189.703H135.649V196.459H128.892V189.703Z" fill="black"/>
<path d="M142.405 189.703H149.162V196.459H142.405V189.703Z" fill="black"/>
<path d="M149.162 189.703H155.919V196.459H149.162V189.703Z" fill="black"/>
<path d="M162.676 189.703H169.432V196.459H162.676V189.703Z" fill="black"/>
<path d="M169.432 189.703H176.189V196.459H169.432V189.703Z" fill="black"/>
<path d="M176.189 189.703H182.946V196.459H176.189V189.703Z" fill="black"/>
<path d="M182.946 189.703H189.703V196.459H182.946V189.703Z" fill="black"/>
<path d="M189.703 189.703H196.459V196.459H189.703V189.703Z" fill="black"/>
<path d="M196.459 189.703H203.216V196.459H196.459V189.703Z" fill="black"/>
<path d="M209.973 189.703H216.73V196.459H209.973V189.703Z" fill="black"/>
<path d="M216.73 189.703H223.486V196.459H216.73V189.703Z" fill="black"/>
<path d="M0.513519 196.459H7.27028V203.216H0.513519V196.459Z" fill="black"/>
<path d="M14.027 196.459H20.7838V203.216H14.027V196.459Z" fill="black"/>
<path d="M20.7838 196.459H27.5405V203.216H20.7838V196.459Z" fill="black"/>
<path d="M27.5405 196.459H34.2973V203.216H27.5405V196.459Z" fill="black"/>
<path d="M41.0541 196.459H47.8108V203.216H41.0541V196.459Z" fill="black"/>
<path d="M61.3243 196.459H68.0811V203.216H61.3243V196.459Z" fill="black"/>
<path d="M81.5946 196.459H88.3514V203.216H81.5946V196.459Z" fill="black"/>
<path d="M88.3514 196.459H95.1081V203.216H88.3514V196.459Z" fill="black"/>
<path d="M95.1081 196.459H101.865V203.216H95.1081V196.459Z" fill="black"/>
<path d="M101.865 196.459H108.622V203.216H101.865V196.459Z" fill="black"/>
<path d="M115.378 196.459H122.135V203.216H115.378V196.459Z" fill="black"/>
<path d="M128.892 196.459H135.649V203.216H128.892V196.459Z" fill="black"/>
<path d="M135.649 196.459H142.405V203.216H135.649V196.459Z" fill="black"/>
<path d="M142.405 196.459H149.162V203.216H142.405V196.459Z" fill="black"/>
<path d="M155.919 196.459H162.676V203.216H155.919V196.459Z" fill="black"/>
<path d="M169.432 196.459H176.189V203.216H169.432V196.459Z" fill="black"/>
<path d="M182.946 196.459H189.703V203.216H182.946V196.459Z" fill="black"/>
<path d="M189.703 196.459H196.459V203.216H189.703V196.459Z" fill="black"/>
<path d="M209.973 196.459H216.73V203.216H209.973V196.459Z" fill="black"/>
<path d="M0.513519 203.216H7.27028V209.973H0.513519V203.216Z" fill="black"/>
<path d="M14.027 203.216H20.7838V209.973H14.027V203.216Z" fill="black"/>
<path d="M20.7838 203.216H27.5405V209.973H20.7838V203.216Z" fill="black"/>
<path d="M27.5405 203.216H34.2973V209.973H27.5405V203.216Z" fill="black"/>
<path d="M41.0541 203.216H47.8108V209.973H41.0541V203.216Z" fill="black"/>
<path d="M61.3243 203.216H68.0811V209.973H61.3243V203.216Z" fill="black"/>
<path d="M95.1081 203.216H101.865V209.973H95.1081V203.216Z" fill="black"/>
<path d="M101.865 203.216H108.622V209.973H101.865V203.216Z" fill="black"/>
<path d="M108.622 203.216H115.378V209.973H108.622V203.216Z" fill="black"/>
<path d="M115.378 203.216H122.135V209.973H115.378V203.216Z" fill="black"/>
<path d="M122.135 203.216H128.892V209.973H122.135V203.216Z" fill="black"/>
<path d="M135.649 203.216H142.405V209.973H135.649V203.216Z" fill="black"/>
<path d="M149.162 203.216H155.919V209.973H149.162V203.216Z" fill="black"/>
<path d="M189.703 203.216H196.459V209.973H189.703V203.216Z" fill="black"/>
<path d="M203.216 203.216H209.973V209.973H203.216V203.216Z" fill="black"/>
<path d="M209.973 203.216H216.73V209.973H209.973V203.216Z" fill="black"/>
<path d="M216.73 203.216H223.486V209.973H216.73V203.216Z" fill="black"/>
<path d="M0.513519 209.973H7.27028V216.73H0.513519V209.973Z" fill="black"/>
<path d="M41.0541 209.973H47.8108V216.73H41.0541V209.973Z" fill="black"/>
<path d="M81.5946 209.973H88.3514V216.73H81.5946V209.973Z" fill="black"/>
<path d="M101.865 209.973H108.622V216.73H101.865V209.973Z" fill="black"/>
<path d="M142.405 209.973H149.162V216.73H142.405V209.973Z" fill="black"/>
<path d="M176.189 209.973H182.946V216.73H176.189V209.973Z" fill="black"/>
<path d="M196.459 209.973H203.216V216.73H196.459V209.973Z" fill="black"/>
<path d="M203.216 209.973H209.973V216.73H203.216V209.973Z" fill="black"/>
<path d="M0.513519 216.73H7.27028V223.486H0.513519V216.73Z" fill="black"/>
<path d="M7.27028 216.73H14.027V223.486H7.27028V216.73Z" fill="black"/>
<path d="M14.027 216.73H20.7838V223.486H14.027V216.73Z" fill="black"/>
<path d="M20.7838 216.73H27.5405V223.486H20.7838V216.73Z" fill="black"/>
<path d="M27.5405 216.73H34.2973V223.486H27.5405V216.73Z" fill="black"/>
<path d="M34.2973 216.73H41.0541V223.486H34.2973V216.73Z" fill="black"/>
<path d="M41.0541 216.73H47.8108V223.486H41.0541V216.73Z" fill="black"/>
<path d="M61.3243 216.73H68.0811V223.486H61.3243V216.73Z" fill="black"/>
<path d="M81.5946 216.73H88.3514V223.486H81.5946V216.73Z" fill="black"/>
<path d="M108.622 216.73H115.378V223.486H108.622V216.73Z" fill="black"/>
<path d="M122.135 216.73H128.892V223.486H122.135V216.73Z" fill="black"/>
<path d="M128.892 216.73H135.649V223.486H128.892V216.73Z" fill="black"/>
<path d="M135.649 216.73H142.405V223.486H135.649V216.73Z" fill="black"/>
<path d="M142.405 216.73H149.162V223.486H142.405V216.73Z" fill="black"/>
<path d="M149.162 216.73H155.919V223.486H149.162V216.73Z" fill="black"/>
<path d="M155.919 216.73H162.676V223.486H155.919V216.73Z" fill="black"/>
<path d="M162.676 216.73H169.432V223.486H162.676V216.73Z" fill="black"/>
<path d="M196.459 216.73H203.216V223.486H196.459V216.73Z" fill="black"/>
<path d="M209.973 216.73H216.73V223.486H209.973V216.73Z" fill="black"/>
<path d="M7.27028 0.513519H0.513519V7.27028M7.27028 0.513519V7.27028M7.27028 0.513519H14.027M7.27028 7.27028H0.513519M7.27028 7.27028H14.027M7.27028 7.27028V14.027M0.513519 7.27028V14.027M14.027 0.513519V7.27028M14.027 0.513519H20.7838M14.027 7.27028H20.7838M20.7838 0.513519V7.27028M20.7838 0.513519H27.5405M20.7838 7.27028H27.5405M27.5405 0.513519V7.27028M27.5405 0.513519H34.2973M27.5405 7.27028H34.2973M34.2973 0.513519V7.27028M34.2973 0.513519H41.0541M34.2973 7.27028H41.0541M41.0541 0.513519V7.27028M41.0541 0.513519H47.8108V7.27028M41.0541 7.27028H47.8108M41.0541 7.27028V14.027M47.8108 7.27028V14.027M128.892 0.513519H122.135V7.27028M128.892 0.513519V7.27028M128.892 0.513519H135.649V7.27028M128.892 7.27028H122.135M128.892 7.27028H135.649M128.892 7.27028V14.027M122.135 7.27028V14.027M135.649 7.27028V14.027H128.892M155.919 7.27028V0.513519H149.162V7.27028M155.919 7.27028H149.162M155.919 7.27028V14.027M149.162 7.27028H142.405V14.027M149.162 7.27028V14.027M169.432 7.27028V0.513519H162.676V7.27028M169.432 7.27028H162.676M169.432 7.27028V14.027M162.676 7.27028V14.027M182.946 0.513519H176.189V7.27028M182.946 0.513519V7.27028M182.946 0.513519H189.703M182.946 7.27028H176.189M182.946 7.27028H189.703M182.946 7.27028V14.027M176.189 7.27028V14.027M189.703 0.513519V7.27028M189.703 0.513519H196.459M189.703 7.27028H196.459M196.459 0.513519V7.27028M196.459 0.513519H203.216M196.459 7.27028H203.216M203.216 0.513519V7.27028M203.216 0.513519H209.973M203.216 7.27028H209.973M209.973 0.513519V7.27028M209.973 0.513519H216.73M209.973 7.27028H216.73M216.73 0.513519V7.27028M216.73 0.513519H223.486V7.27028M216.73 7.27028H223.486M216.73 7.27028V14.027M223.486 7.27028V14.027M7.27028 14.027H0.513519M7.27028 14.027V20.7838M0.513519 14.027V20.7838M47.8108 14.027H41.0541M47.8108 14.027V20.7838M41.0541 14.027V20.7838M101.865 7.27028H95.1081V14.027M101.865 7.27028V14.027M101.865 7.27028H108.622V14.027M101.865 14.027H95.1081M101.865 14.027H108.622M101.865 14.027V20.7838M95.1081 14.027H88.3514V20.7838M95.1081 14.027V20.7838M108.622 14.027V20.7838M108.622 14.027H115.378M128.892 14.027H122.135M128.892 14.027V20.7838M122.135 14.027H115.378M122.135 14.027V20.7838M149.162 14.027H142.405M149.162 14.027H155.919M149.162 14.027V20.7838M142.405 14.027V20.7838M155.919 14.027V20.7838M155.919 14.027H162.676M169.432 14.027H162.676M169.432 14.027V20.7838M162.676 14.027V20.7838M182.946 14.027H176.189M182.946 14.027V20.7838M176.189 14.027V20.7838M223.486 14.027H216.73M223.486 14.027V20.7838M216.73 14.027V20.7838M7.27028 20.7838H0.513519M7.27028 20.7838V27.5405M0.513519 20.7838V27.5405M20.7838 14.027H14.027V20.7838M20.7838 14.027V20.7838M20.7838 14.027H27.5405M20.7838 20.7838H14.027M20.7838 20.7838H27.5405M20.7838 20.7838V27.5405M14.027 20.7838V27.5405M27.5405 14.027V20.7838M27.5405 14.027H34.2973V20.7838M27.5405 20.7838H34.2973M27.5405 20.7838V27.5405M34.2973 20.7838V27.5405M47.8108 20.7838H41.0541M47.8108 20.7838V27.5405M41.0541 20.7838V27.5405M61.3243 14.027H54.5676V20.7838H61.3243M61.3243 14.027V20.7838M61.3243 14.027H68.0811V20.7838M61.3243 20.7838H68.0811M61.3243 20.7838V27.5405M68.0811 20.7838V27.5405M68.0811 20.7838H74.8378M81.5946 20.7838V14.027H74.8378V20.7838M81.5946 20.7838H74.8378M81.5946 20.7838H88.3514M81.5946 20.7838V27.5405M74.8378 20.7838V27.5405M95.1081 20.7838H88.3514M95.1081 20.7838H101.865M95.1081 20.7838V27.5405M88.3514 20.7838V27.5405M101.865 20.7838H108.622M108.622 20.7838H115.378M115.378 14.027V20.7838M115.378 20.7838H122.135M122.135 20.7838H128.892M122.135 20.7838V27.5405M128.892 20.7838V27.5405M128.892 20.7838H135.649M149.162 20.7838H142.405M149.162 20.7838H155.919M149.162 20.7838V27.5405M142.405 20.7838H135.649M142.405 20.7838V27.5405M155.919 20.7838H162.676M155.919 20.7838V27.5405M162.676 20.7838H169.432M162.676 20.7838V27.5405M169.432 20.7838V27.5405H162.676M182.946 20.7838H176.189M182.946 20.7838V27.5405M176.189 20.7838V27.5405M196.459 14.027H189.703V20.7838M196.459 14.027V20.7838M196.459 14.027H203.216M196.459 20.7838H189.703M196.459 20.7838H203.216M196.459 20.7838V27.5405M189.703 20.7838V27.5405M203.216 14.027V20.7838M203.216 14.027H209.973V20.7838M203.216 20.7838H209.973M203.216 20.7838V27.5405M209.973 20.7838V27.5405M223.486 20.7838H216.73M223.486 20.7838V27.5405M216.73 20.7838V27.5405M7.27028 27.5405H0.513519M7.27028 27.5405V34.2973M0.513519 27.5405V34.2973M20.7838 27.5405H14.027M20.7838 27.5405H27.5405M20.7838 27.5405V34.2973M14.027 27.5405V34.2973H20.7838M27.5405 27.5405H34.2973M27.5405 27.5405V34.2973M34.2973 27.5405V34.2973H27.5405M47.8108 27.5405H41.0541M47.8108 27.5405V34.2973M41.0541 27.5405V34.2973M68.0811 27.5405H61.3243M68.0811 27.5405H74.8378M68.0811 27.5405V34.2973M61.3243 27.5405H54.5676V34.2973H61.3243M61.3243 27.5405V34.2973M74.8378 27.5405V34.2973M74.8378 27.5405H81.5946M88.3514 27.5405H81.5946M88.3514 27.5405H95.1081M88.3514 27.5405V34.2973M81.5946 27.5405V34.2973M95.1081 27.5405V34.2973M95.1081 27.5405H101.865M128.892 27.5405H122.135M128.892 27.5405H135.649M128.892 27.5405V34.2973M122.135 27.5405V34.2973M135.649 20.7838V27.5405M135.649 27.5405H142.405M135.649 27.5405V34.2973M142.405 27.5405H149.162M142.405 27.5405V34.2973M149.162 27.5405V34.2973M149.162 27.5405H155.919M162.676 27.5405H155.919M155.919 27.5405V34.2973M182.946 27.5405H176.189M182.946 27.5405V34.2973M176.189 27.5405V34.2973M196.459 27.5405H189.703M196.459 27.5405H203.216M196.459 27.5405V34.2973M189.703 27.5405V34.2973H196.459M203.216 27.5405H209.973M203.216 27.5405V34.2973M209.973 27.5405V34.2973H203.216M223.486 27.5405H216.73M223.486 27.5405V34.2973M216.73 27.5405V34.2973M7.27028 34.2973H0.513519M7.27028 34.2973V41.0541M0.513519 34.2973V41.0541M20.7838 34.2973H27.5405M47.8108 34.2973H41.0541M47.8108 34.2973V41.0541M41.0541 34.2973V41.0541M61.3243 34.2973H68.0811M68.0811 34.2973H74.8378M68.0811 34.2973V41.0541M74.8378 34.2973H81.5946M74.8378 34.2973V41.0541M81.5946 34.2973H88.3514M81.5946 34.2973V41.0541M95.1081 34.2973H88.3514M95.1081 34.2973H101.865M88.3514 34.2973V41.0541M101.865 27.5405V34.2973M101.865 27.5405H108.622V34.2973M101.865 34.2973H108.622M101.865 34.2973V41.0541M108.622 34.2973V41.0541M128.892 34.2973H122.135M128.892 34.2973V41.0541M128.892 34.2973H135.649M122.135 34.2973H115.378V41.0541M122.135 34.2973V41.0541M142.405 34.2973H135.649M142.405 34.2973H149.162M135.649 34.2973V41.0541M149.162 34.2973H155.919M155.919 34.2973H162.676M155.919 34.2973V41.0541M182.946 34.2973H176.189M182.946 34.2973V41.0541M176.189 34.2973V41.0541M196.459 34.2973H203.216M223.486 34.2973H216.73M223.486 34.2973V41.0541M216.73 34.2973V41.0541M7.27028 41.0541H0.513519M7.27028 41.0541V47.8108M7.27028 41.0541H14.027M0.513519 41.0541V47.8108H7.27028M47.8108 41.0541H41.0541M47.8108 41.0541V47.8108H41.0541M41.0541 41.0541H34.2973M41.0541 41.0541V47.8108M74.8378 41.0541H68.0811M74.8378 41.0541V47.8108M68.0811 41.0541V47.8108H74.8378M88.3514 41.0541H81.5946M88.3514 41.0541V47.8108M81.5946 41.0541V47.8108M108.622 41.0541H101.865M108.622 41.0541H115.378M108.622 41.0541V47.8108M101.865 41.0541H95.1081V47.8108M101.865 41.0541V47.8108M122.135 41.0541H115.378M122.135 41.0541H128.892M122.135 41.0541V47.8108H128.892V41.0541M115.378 41.0541V47.8108M128.892 41.0541H135.649M135.649 41.0541H142.405V47.8108M135.649 41.0541V47.8108M162.676 34.2973V41.0541M162.676 34.2973H169.432V41.0541M162.676 41.0541H155.919M162.676 41.0541H169.432M162.676 41.0541V47.8108M155.919 41.0541H149.162V47.8108M155.919 41.0541V47.8108M169.432 41.0541V47.8108H162.676M182.946 41.0541H176.189M182.946 41.0541V47.8108M182.946 41.0541H189.703M176.189 41.0541V47.8108H182.946M223.486 41.0541H216.73M223.486 41.0541V47.8108H216.73M216.73 41.0541H209.973M216.73 41.0541V47.8108M7.27028 47.8108H14.027M14.027 41.0541V47.8108M14.027 41.0541H20.7838M14.027 47.8108H20.7838M20.7838 41.0541V47.8108M20.7838 41.0541H27.5405M20.7838 47.8108H27.5405M27.5405 41.0541V47.8108M27.5405 41.0541H34.2973M27.5405 47.8108H34.2973M34.2973 41.0541V47.8108M34.2973 47.8108H41.0541M61.3243 47.8108V41.0541H54.5676V47.8108M61.3243 47.8108H54.5676M61.3243 47.8108V54.5676M54.5676 47.8108V54.5676H61.3243M74.8378 47.8108H81.5946M74.8378 47.8108V54.5676M88.3514 47.8108H81.5946M88.3514 47.8108H95.1081M88.3514 47.8108V54.5676H95.1081M81.5946 47.8108V54.5676H74.8378M101.865 47.8108H95.1081M101.865 47.8108V54.5676M95.1081 47.8108V54.5676M115.378 47.8108H108.622M115.378 47.8108V54.5676H108.622M108.622 47.8108V54.5676M142.405 47.8108H135.649M142.405 47.8108V54.5676H135.649M135.649 47.8108V54.5676M155.919 47.8108H149.162M155.919 47.8108V54.5676M155.919 47.8108H162.676M149.162 47.8108V54.5676M162.676 47.8108V54.5676M182.946 47.8108H189.703M189.703 41.0541V47.8108M189.703 41.0541H196.459M189.703 47.8108H196.459M196.459 41.0541V47.8108M196.459 41.0541H203.216M196.459 47.8108H203.216M203.216 41.0541V47.8108M203.216 41.0541H209.973M203.216 47.8108H209.973M209.973 41.0541V47.8108M209.973 47.8108H216.73M61.3243 54.5676H68.0811M61.3243 54.5676V61.3243M74.8378 54.5676H68.0811M74.8378 54.5676V61.3243H68.0811M95.1081 54.5676H101.865M95.1081 54.5676V61.3243M101.865 54.5676V61.3243M101.865 54.5676H108.622M108.622 54.5676V61.3243M135.649 54.5676H128.892V61.3243M135.649 54.5676V61.3243M155.919 54.5676H149.162M155.919 54.5676H162.676M155.919 54.5676V61.3243M149.162 54.5676V61.3243M162.676 54.5676V61.3243M162.676 54.5676H169.432V61.3243M41.0541 54.5676H34.2973V61.3243M41.0541 54.5676V61.3243M41.0541 54.5676H47.8108V61.3243H41.0541M41.0541 61.3243H34.2973M41.0541 61.3243V68.0811M34.2973 61.3243V68.0811M68.0811 54.5676V61.3243M68.0811 61.3243H61.3243M68.0811 61.3243V68.0811H61.3243M61.3243 61.3243H54.5676V68.0811M61.3243 61.3243V68.0811M101.865 61.3243H95.1081M101.865 61.3243H108.622M101.865 61.3243V68.0811M95.1081 61.3243H88.3514M95.1081 61.3243V68.0811M108.622 61.3243V68.0811M108.622 61.3243H115.378M135.649 61.3243H128.892M135.649 61.3243H142.405V68.0811M135.649 61.3243V68.0811M128.892 61.3243H122.135M128.892 61.3243V68.0811M155.919 61.3243H149.162M155.919 61.3243H162.676M155.919 61.3243V68.0811M149.162 61.3243V68.0811M162.676 61.3243H169.432M162.676 61.3243V68.0811M169.432 61.3243H176.189M169.432 61.3243V68.0811M182.946 61.3243V54.5676H176.189V61.3243M182.946 61.3243H176.189M182.946 61.3243H189.703M182.946 61.3243V68.0811M176.189 61.3243V68.0811M196.459 61.3243V54.5676H189.703V61.3243M196.459 61.3243H189.703M196.459 61.3243V68.0811M189.703 61.3243V68.0811M209.973 61.3243V54.5676H203.216V61.3243M209.973 61.3243H203.216M209.973 61.3243V68.0811M203.216 61.3243V68.0811M7.27028 61.3243H0.513519V68.0811H7.27028M7.27028 61.3243V68.0811M7.27028 61.3243H14.027V68.0811M7.27028 68.0811H14.027M7.27028 68.0811V74.8378H14.027M14.027 68.0811V74.8378M14.027 68.0811H20.7838V74.8378M41.0541 68.0811H34.2973M41.0541 68.0811V74.8378M41.0541 68.0811H47.8108V74.8378H41.0541M34.2973 68.0811V74.8378M61.3243 68.0811H54.5676M61.3243 68.0811V74.8378M54.5676 68.0811V74.8378H61.3243M88.3514 61.3243H81.5946V68.0811H88.3514M88.3514 61.3243V68.0811M88.3514 68.0811H95.1081M88.3514 68.0811V74.8378M95.1081 68.0811V74.8378M108.622 68.0811H101.865M108.622 68.0811H115.378M108.622 68.0811V74.8378M101.865 68.0811V74.8378M115.378 61.3243V68.0811M115.378 61.3243H122.135M115.378 68.0811H122.135M115.378 68.0811V74.8378M122.135 61.3243V68.0811M122.135 68.0811H128.892M128.892 68.0811H135.649M128.892 68.0811V74.8378M142.405 68.0811H135.649M142.405 68.0811V74.8378M142.405 68.0811H149.162M135.649 68.0811V74.8378M155.919 68.0811H149.162M155.919 68.0811H162.676M149.162 68.0811V74.8378M162.676 68.0811H169.432M162.676 68.0811V74.8378H169.432M176.189 68.0811H169.432M176.189 68.0811V74.8378M169.432 68.0811V74.8378M189.703 68.0811H182.946M189.703 68.0811H196.459M189.703 68.0811V74.8378M182.946 68.0811V74.8378M196.459 68.0811H203.216M196.459 68.0811V74.8378M209.973 68.0811H203.216M209.973 68.0811V74.8378M209.973 68.0811H216.73V74.8378H209.973M203.216 68.0811V74.8378M14.027 74.8378H20.7838M14.027 74.8378V81.5946H20.7838M20.7838 74.8378V81.5946M41.0541 74.8378H34.2973M41.0541 74.8378V81.5946M34.2973 74.8378H27.5405V81.5946M34.2973 74.8378V81.5946M61.3243 74.8378H68.0811V81.5946M61.3243 74.8378V81.5946M95.1081 74.8378H88.3514M95.1081 74.8378V81.5946M95.1081 74.8378H101.865M88.3514 74.8378H81.5946M88.3514 74.8378V81.5946M108.622 74.8378H101.865M108.622 74.8378H115.378M101.865 74.8378V81.5946M115.378 74.8378H122.135M115.378 74.8378V81.5946H122.135M135.649 74.8378H128.892M135.649 74.8378H142.405M128.892 74.8378H122.135M128.892 74.8378V81.5946M142.405 74.8378H149.162M149.162 74.8378H155.919V81.5946M149.162 74.8378V81.5946M169.432 74.8378H176.189M169.432 74.8378V81.5946M176.189 74.8378V81.5946M176.189 74.8378H182.946M189.703 74.8378H182.946M189.703 74.8378V81.5946M182.946 74.8378V81.5946M203.216 74.8378H196.459M203.216 74.8378H209.973M203.216 74.8378V81.5946M196.459 74.8378V81.5946M209.973 74.8378V81.5946H203.216M20.7838 81.5946H27.5405M20.7838 81.5946V88.3514M34.2973 81.5946H27.5405M34.2973 81.5946H41.0541M34.2973 81.5946V88.3514M27.5405 81.5946V88.3514M41.0541 81.5946V88.3514M41.0541 81.5946H47.8108M68.0811 81.5946H61.3243M68.0811 81.5946V88.3514M68.0811 81.5946H74.8378M61.3243 81.5946H54.5676M61.3243 81.5946V88.3514M81.5946 74.8378H74.8378V81.5946M81.5946 74.8378V81.5946M81.5946 81.5946H74.8378M81.5946 81.5946H88.3514M81.5946 81.5946V88.3514M74.8378 81.5946V88.3514M88.3514 81.5946H95.1081M88.3514 81.5946V88.3514M95.1081 81.5946H101.865M95.1081 81.5946V88.3514M101.865 81.5946V88.3514H95.1081M122.135 74.8378V81.5946M122.135 81.5946H128.892M122.135 81.5946V88.3514M128.892 81.5946V88.3514M155.919 81.5946H149.162M155.919 81.5946V88.3514M149.162 81.5946H142.405V88.3514M149.162 81.5946V88.3514M176.189 81.5946H169.432M176.189 81.5946H182.946M176.189 81.5946V88.3514M169.432 81.5946H162.676V88.3514M169.432 81.5946V88.3514H162.676M182.946 81.5946H189.703M182.946 81.5946V88.3514M189.703 81.5946V88.3514M189.703 81.5946H196.459M203.216 81.5946H196.459M196.459 81.5946V88.3514M27.5405 88.3514H20.7838M27.5405 88.3514V95.1081M27.5405 88.3514H34.2973M20.7838 88.3514H14.027V95.1081M20.7838 88.3514V95.1081M41.0541 88.3514H34.2973M41.0541 88.3514H47.8108M34.2973 88.3514V95.1081M47.8108 81.5946V88.3514M47.8108 81.5946H54.5676M47.8108 88.3514H54.5676M47.8108 88.3514V95.1081M54.5676 81.5946V88.3514M54.5676 88.3514H61.3243M54.5676 88.3514V95.1081M61.3243 88.3514H68.0811M61.3243 88.3514V95.1081M68.0811 88.3514H74.8378M74.8378 88.3514H81.5946M74.8378 88.3514V95.1081M88.3514 88.3514H81.5946M88.3514 88.3514H95.1081M88.3514 88.3514V95.1081M81.5946 88.3514V95.1081M95.1081 88.3514V95.1081M128.892 88.3514H122.135M128.892 88.3514H135.649M128.892 88.3514V95.1081M122.135 88.3514H115.378V95.1081M122.135 88.3514V95.1081M149.162 88.3514H142.405M149.162 88.3514H155.919M149.162 88.3514V95.1081M142.405 88.3514H135.649M142.405 88.3514V95.1081M155.919 88.3514V95.1081M155.919 88.3514H162.676M162.676 88.3514V95.1081M182.946 88.3514H176.189M182.946 88.3514H189.703M182.946 88.3514V95.1081M176.189 88.3514V95.1081M189.703 88.3514H196.459M196.459 88.3514H203.216V95.1081M196.459 88.3514V95.1081M20.7838 95.1081H14.027M20.7838 95.1081H27.5405M20.7838 95.1081V101.865M14.027 95.1081H7.27028V101.865M14.027 95.1081V101.865M27.5405 95.1081H34.2973M27.5405 95.1081V101.865M34.2973 95.1081V101.865M34.2973 95.1081H41.0541M54.5676 95.1081H47.8108M54.5676 95.1081H61.3243M54.5676 95.1081V101.865M47.8108 95.1081H41.0541M47.8108 95.1081V101.865M61.3243 95.1081V101.865M81.5946 95.1081H74.8378M81.5946 95.1081V101.865M74.8378 95.1081H68.0811V101.865H74.8378M74.8378 95.1081V101.865M95.1081 95.1081H88.3514M95.1081 95.1081V101.865M88.3514 95.1081V101.865M122.135 95.1081H115.378M122.135 95.1081H128.892M122.135 95.1081V101.865M115.378 95.1081H108.622V101.865M115.378 95.1081V101.865M135.649 88.3514V95.1081M135.649 95.1081H128.892M135.649 95.1081H142.405M128.892 95.1081V101.865M142.405 95.1081H149.162M149.162 95.1081H155.919M149.162 95.1081V101.865H155.919M155.919 95.1081H162.676M155.919 95.1081V101.865M162.676 95.1081H169.432M162.676 95.1081V101.865M182.946 95.1081H176.189M182.946 95.1081V101.865M182.946 95.1081H189.703V101.865M176.189 95.1081H169.432M176.189 95.1081V101.865M203.216 95.1081H196.459M203.216 95.1081V101.865M203.216 95.1081H209.973M196.459 95.1081V101.865M216.73 95.1081H223.486V88.3514H216.73V95.1081ZM216.73 95.1081H209.973M216.73 95.1081V101.865M14.027 101.865H7.27028M14.027 101.865H20.7838M14.027 101.865V108.622H20.7838M7.27028 101.865H0.513519V108.622H7.27028V101.865ZM20.7838 101.865V108.622M20.7838 101.865H27.5405M34.2973 101.865H27.5405M34.2973 101.865H41.0541M34.2973 101.865V108.622M27.5405 101.865V108.622M41.0541 95.1081V101.865M41.0541 101.865H47.8108M41.0541 101.865V108.622M47.8108 101.865H54.5676M47.8108 101.865V108.622M54.5676 101.865H61.3243M54.5676 101.865V108.622M61.3243 101.865V108.622M74.8378 101.865H81.5946M74.8378 101.865V108.622M81.5946 101.865V108.622M81.5946 101.865H88.3514M95.1081 101.865H88.3514M95.1081 101.865V108.622M95.1081 101.865H101.865M88.3514 101.865V108.622M115.378 101.865H108.622M115.378 101.865V108.622M115.378 101.865H122.135M108.622 101.865H101.865M108.622 101.865V108.622M128.892 101.865H122.135M128.892 101.865H135.649V108.622M128.892 101.865V108.622M122.135 101.865V108.622M155.919 101.865H162.676M155.919 101.865V108.622M169.432 95.1081V101.865M169.432 101.865H162.676M169.432 101.865H176.189M169.432 101.865V108.622H176.189V101.865M162.676 101.865V108.622M176.189 101.865H182.946M182.946 101.865H189.703M182.946 101.865V108.622M189.703 101.865V108.622M189.703 101.865H196.459M203.216 101.865H196.459M203.216 101.865H209.973M203.216 101.865V108.622M196.459 101.865V108.622M209.973 95.1081V101.865M209.973 101.865H216.73M209.973 101.865V108.622M216.73 101.865V108.622M216.73 101.865H223.486V108.622M20.7838 108.622H27.5405M20.7838 108.622V115.378M27.5405 108.622H34.2973M27.5405 108.622V115.378M34.2973 108.622H41.0541M34.2973 108.622V115.378M41.0541 108.622V115.378M41.0541 108.622H47.8108M54.5676 108.622H47.8108M54.5676 108.622H61.3243M47.8108 108.622V115.378H41.0541M61.3243 108.622H68.0811M61.3243 108.622V115.378M81.5946 108.622H74.8378M81.5946 108.622H88.3514M81.5946 108.622V115.378M74.8378 108.622H68.0811M74.8378 108.622V115.378M88.3514 108.622H95.1081M88.3514 108.622V115.378M95.1081 108.622H101.865M95.1081 108.622V115.378M101.865 101.865V108.622M101.865 108.622H108.622M101.865 108.622V115.378M108.622 108.622H115.378M108.622 108.622V115.378M115.378 108.622H122.135M115.378 108.622V115.378M122.135 108.622V115.378M122.135 108.622H128.892M135.649 108.622H128.892M135.649 108.622H142.405V115.378M135.649 108.622V115.378M128.892 108.622V115.378M162.676 108.622H155.919M162.676 108.622V115.378M155.919 108.622V115.378M189.703 108.622H182.946M189.703 108.622H196.459M189.703 108.622V115.378M182.946 108.622V115.378M196.459 108.622H203.216M196.459 108.622V115.378H189.703M203.216 108.622H209.973M209.973 108.622H216.73M209.973 108.622V115.378M216.73 108.622H223.486M216.73 108.622V115.378M223.486 108.622V115.378M27.5405 115.378H20.7838M27.5405 115.378V122.135M20.7838 115.378H14.027V122.135M20.7838 115.378V122.135M41.0541 115.378H34.2973M41.0541 115.378V122.135M34.2973 115.378V122.135M68.0811 108.622V115.378M68.0811 115.378H61.3243M68.0811 115.378H74.8378M68.0811 115.378V122.135M61.3243 115.378H54.5676V122.135M61.3243 115.378V122.135M74.8378 115.378H81.5946M74.8378 115.378V122.135M81.5946 115.378H88.3514M81.5946 115.378V122.135M95.1081 115.378H88.3514M95.1081 115.378H101.865M95.1081 115.378V122.135H101.865M88.3514 115.378V122.135H81.5946M101.865 115.378V122.135M115.378 115.378H108.622M115.378 115.378H122.135M115.378 115.378V122.135H108.622M108.622 115.378V122.135M122.135 115.378H128.892M122.135 115.378V122.135M128.892 115.378V122.135M142.405 115.378H135.649M142.405 115.378V122.135M135.649 115.378V122.135M162.676 115.378H155.919M162.676 115.378V122.135M162.676 115.378H169.432M155.919 115.378V122.135M189.703 115.378H182.946M182.946 115.378H176.189M182.946 115.378V122.135M216.73 115.378H209.973M216.73 115.378H223.486M216.73 115.378V122.135M209.973 115.378V122.135M223.486 115.378V122.135M20.7838 122.135H14.027M20.7838 122.135H27.5405M20.7838 122.135V128.892H14.027M14.027 122.135V128.892M27.5405 122.135H34.2973M27.5405 122.135V128.892H34.2973M41.0541 122.135H34.2973M41.0541 122.135H47.8108M41.0541 122.135V128.892M34.2973 122.135V128.892M61.3243 122.135H54.5676M61.3243 122.135H68.0811M61.3243 122.135V128.892M54.5676 122.135H47.8108M54.5676 122.135V128.892H47.8108M74.8378 122.135H68.0811M74.8378 122.135H81.5946M74.8378 122.135V128.892M68.0811 122.135V128.892M81.5946 122.135V128.892M101.865 122.135H108.622M101.865 122.135V128.892M108.622 122.135V128.892M128.892 122.135H122.135M128.892 122.135V128.892H122.135M122.135 122.135V128.892M142.405 122.135H135.649M142.405 122.135V128.892M135.649 122.135V128.892M162.676 122.135H155.919M162.676 122.135H169.432M162.676 122.135V128.892M155.919 122.135V128.892M169.432 115.378V122.135M169.432 115.378H176.189M169.432 122.135H176.189M176.189 115.378V122.135M176.189 122.135H182.946M182.946 122.135H189.703M182.946 122.135V128.892M216.73 122.135H209.973M216.73 122.135H223.486M216.73 122.135V128.892M209.973 122.135H203.216M209.973 122.135V128.892M223.486 122.135V128.892M7.27028 128.892V122.135H0.513519V128.892M7.27028 128.892H0.513519M7.27028 128.892V135.649M7.27028 128.892H14.027M0.513519 128.892V135.649M14.027 128.892V135.649H7.27028M34.2973 128.892H41.0541M34.2973 128.892V135.649M47.8108 122.135V128.892M47.8108 128.892H41.0541M41.0541 128.892V135.649M68.0811 128.892H61.3243M68.0811 128.892V135.649M61.3243 128.892V135.649H68.0811M81.5946 128.892H74.8378M81.5946 128.892V135.649M81.5946 128.892H88.3514M74.8378 128.892V135.649M108.622 128.892H101.865M108.622 128.892V135.649M101.865 128.892V135.649M122.135 128.892H115.378V135.649M122.135 128.892V135.649M142.405 128.892H135.649M142.405 128.892V135.649H135.649V128.892M162.676 128.892H155.919M162.676 128.892V135.649M162.676 128.892H169.432V135.649M155.919 128.892H149.162V135.649H155.919M155.919 128.892V135.649M189.703 122.135V128.892M189.703 122.135H196.459M189.703 128.892H182.946M189.703 128.892H196.459M182.946 128.892H176.189V135.649M182.946 128.892V135.649M196.459 122.135V128.892M196.459 122.135H203.216M196.459 128.892H203.216M196.459 128.892V135.649M203.216 122.135V128.892M203.216 128.892H209.973M203.216 128.892V135.649M209.973 128.892H216.73M209.973 128.892V135.649M216.73 128.892H223.486M216.73 128.892V135.649M223.486 128.892V135.649H216.73M7.27028 135.649H0.513519M7.27028 135.649V142.405M0.513519 135.649V142.405M41.0541 135.649H34.2973M41.0541 135.649V142.405M41.0541 135.649H47.8108M34.2973 135.649H27.5405V142.405M34.2973 135.649V142.405M68.0811 135.649H74.8378M68.0811 135.649V142.405M81.5946 135.649H74.8378M81.5946 135.649H88.3514M74.8378 135.649V142.405M88.3514 128.892V135.649M88.3514 128.892H95.1081V135.649H88.3514M108.622 135.649H101.865M108.622 135.649V142.405H101.865V135.649M122.135 135.649H115.378M122.135 135.649V142.405M122.135 135.649H128.892V142.405H122.135M115.378 135.649V142.405H122.135M155.919 135.649H162.676M162.676 135.649H169.432M169.432 135.649H176.189M169.432 135.649V142.405M182.946 135.649H176.189M182.946 135.649V142.405M182.946 135.649H189.703M176.189 135.649V142.405M203.216 135.649H196.459M203.216 135.649H209.973M203.216 135.649V142.405M196.459 135.649H189.703M196.459 135.649V142.405M209.973 135.649H216.73M209.973 135.649V142.405M216.73 135.649V142.405H209.973M7.27028 142.405H0.513519M7.27028 142.405V149.162M7.27028 142.405H14.027V149.162M0.513519 142.405V149.162M34.2973 142.405H27.5405M34.2973 142.405H41.0541M34.2973 142.405V149.162M27.5405 142.405V149.162M41.0541 142.405H47.8108M47.8108 135.649V142.405M47.8108 135.649H54.5676V142.405M47.8108 142.405H54.5676M54.5676 142.405H61.3243M54.5676 142.405V149.162M74.8378 142.405H68.0811M74.8378 142.405V149.162M68.0811 142.405H61.3243M68.0811 142.405V149.162M176.189 142.405H169.432M176.189 142.405H182.946M176.189 142.405V149.162H182.946M169.432 142.405H162.676V149.162H169.432V142.405ZM182.946 142.405H189.703M182.946 142.405V149.162M189.703 135.649V142.405M189.703 142.405H196.459M189.703 142.405V149.162M196.459 142.405H203.216M196.459 142.405V149.162M203.216 142.405H209.973M203.216 142.405V149.162M209.973 142.405V149.162M7.27028 149.162H0.513519M7.27028 149.162H14.027M7.27028 149.162V155.919M0.513519 149.162V155.919M14.027 149.162H20.7838V155.919M14.027 149.162V155.919H20.7838M34.2973 149.162H27.5405M34.2973 149.162V155.919M27.5405 149.162V155.919M61.3243 142.405V149.162M61.3243 149.162H54.5676M61.3243 149.162H68.0811M61.3243 149.162V155.919M54.5676 149.162V155.919H61.3243M68.0811 149.162H74.8378M68.0811 149.162V155.919M74.8378 149.162V155.919M74.8378 149.162H81.5946M95.1081 149.162V142.405H88.3514V149.162M95.1081 149.162H88.3514M95.1081 149.162V155.919M95.1081 149.162H101.865V155.919H95.1081M88.3514 149.162H81.5946M88.3514 149.162V155.919M142.405 142.405H135.649V149.162M142.405 142.405V149.162M142.405 142.405H149.162M142.405 149.162H135.649M142.405 149.162H149.162M142.405 149.162V155.919H135.649V149.162M149.162 142.405V149.162M149.162 142.405H155.919V149.162M149.162 149.162H155.919M149.162 149.162V155.919H155.919V149.162M182.946 149.162H189.703M189.703 149.162H196.459M196.459 149.162H203.216M196.459 149.162V155.919M209.973 149.162H203.216M209.973 149.162V155.919M209.973 149.162H216.73V155.919M203.216 149.162V155.919M7.27028 155.919H0.513519M7.27028 155.919V162.676M0.513519 155.919V162.676M20.7838 155.919H27.5405M20.7838 155.919V162.676M34.2973 155.919H27.5405M34.2973 155.919V162.676M34.2973 155.919H41.0541M27.5405 155.919V162.676M41.0541 155.919H47.8108V149.162H41.0541V155.919ZM41.0541 155.919V162.676M61.3243 155.919H68.0811M68.0811 155.919H74.8378M68.0811 155.919V162.676M74.8378 155.919H81.5946M74.8378 155.919V162.676M81.5946 149.162V155.919M81.5946 155.919H88.3514M81.5946 155.919V162.676M88.3514 155.919H95.1081M88.3514 155.919V162.676M115.378 149.162H108.622V155.919M115.378 149.162V155.919M115.378 149.162H122.135M115.378 155.919H108.622M115.378 155.919H122.135M115.378 155.919V162.676M108.622 155.919V162.676M122.135 149.162V155.919M122.135 149.162H128.892V155.919H122.135M203.216 155.919H196.459M203.216 155.919H209.973M203.216 155.919V162.676M196.459 155.919V162.676M209.973 155.919H216.73M209.973 155.919V162.676H203.216M216.73 155.919H223.486V162.676H216.73V155.919ZM7.27028 162.676H0.513519M7.27028 162.676V169.432M7.27028 162.676H14.027M0.513519 162.676V169.432H7.27028M27.5405 162.676H20.7838M27.5405 162.676H34.2973M27.5405 162.676V169.432M20.7838 162.676H14.027M20.7838 162.676V169.432M34.2973 162.676H41.0541M34.2973 162.676V169.432H27.5405M41.0541 162.676H47.8108V169.432H41.0541V162.676ZM74.8378 162.676H68.0811M74.8378 162.676V169.432H68.0811M68.0811 162.676H61.3243V169.432M68.0811 162.676V169.432M88.3514 162.676H81.5946M88.3514 162.676V169.432M88.3514 162.676H95.1081M81.5946 162.676V169.432H88.3514M115.378 162.676H108.622M115.378 162.676V169.432M115.378 162.676H122.135M108.622 162.676V169.432M169.432 162.676V155.919H162.676V162.676M169.432 162.676H162.676M169.432 162.676V169.432M169.432 162.676H176.189M162.676 162.676H155.919V169.432H162.676M162.676 162.676V169.432M189.703 162.676V155.919H182.946V162.676M189.703 162.676H182.946M189.703 162.676V169.432M189.703 162.676H196.459M182.946 162.676H176.189M182.946 162.676V169.432M203.216 162.676H196.459M196.459 162.676V169.432M7.27028 169.432H14.027M14.027 162.676V169.432M14.027 169.432H20.7838M20.7838 169.432H27.5405M68.0811 169.432H61.3243M68.0811 169.432V176.189H61.3243M61.3243 169.432H54.5676V176.189H61.3243M61.3243 169.432V176.189M88.3514 169.432H95.1081M88.3514 169.432V176.189H95.1081M95.1081 162.676V169.432M95.1081 162.676H101.865V169.432M95.1081 169.432H101.865M95.1081 169.432V176.189M101.865 169.432V176.189M101.865 169.432H108.622M115.378 169.432H108.622M115.378 169.432H122.135M115.378 169.432V176.189M108.622 169.432V176.189M122.135 162.676V169.432M122.135 162.676H128.892M122.135 169.432H128.892M122.135 169.432V176.189M128.892 162.676V169.432M128.892 162.676H135.649M128.892 169.432H135.649M128.892 169.432V176.189M135.649 162.676V169.432M135.649 162.676H142.405V169.432M135.649 169.432H142.405M135.649 169.432V176.189M142.405 169.432V176.189M142.405 169.432H149.162V176.189M162.676 169.432H169.432M162.676 169.432V176.189M169.432 169.432H176.189M169.432 169.432V176.189M176.189 162.676V169.432M176.189 169.432H182.946M182.946 169.432H189.703M189.703 169.432H196.459M189.703 169.432V176.189M196.459 169.432V176.189M95.1081 176.189H101.865M95.1081 176.189V182.946H101.865V176.189M101.865 176.189H108.622M108.622 176.189H115.378M108.622 176.189V182.946M115.378 176.189V182.946M115.378 176.189H122.135M128.892 176.189H122.135M128.892 176.189H135.649M122.135 176.189V182.946H115.378M135.649 176.189H142.405M142.405 176.189H149.162M149.162 176.189H155.919M149.162 176.189V182.946M169.432 176.189H162.676M169.432 176.189V182.946M162.676 176.189H155.919M162.676 176.189V182.946M196.459 176.189H189.703M196.459 176.189V182.946M189.703 176.189V182.946M209.973 176.189V169.432H203.216V176.189M209.973 176.189H203.216M209.973 176.189V182.946M209.973 176.189H216.73M203.216 176.189V182.946M216.73 176.189H223.486V169.432H216.73V176.189ZM216.73 176.189V182.946M7.27028 176.189H0.513519V182.946M7.27028 176.189V182.946M7.27028 176.189H14.027M7.27028 182.946H0.513519M7.27028 182.946H14.027M7.27028 182.946V189.703M0.513519 182.946V189.703M14.027 176.189V182.946M14.027 176.189H20.7838M14.027 182.946H20.7838M20.7838 176.189V182.946M20.7838 176.189H27.5405M20.7838 182.946H27.5405M27.5405 176.189V182.946M27.5405 176.189H34.2973M27.5405 182.946H34.2973M34.2973 176.189V182.946M34.2973 176.189H41.0541M34.2973 182.946H41.0541M41.0541 176.189V182.946M41.0541 176.189H47.8108V182.946M41.0541 182.946H47.8108M41.0541 182.946V189.703M47.8108 182.946V189.703M74.8378 182.946H81.5946V176.189H74.8378V182.946ZM74.8378 182.946H68.0811V189.703M74.8378 182.946V189.703M115.378 182.946H108.622M115.378 182.946V189.703M108.622 182.946V189.703H115.378M155.919 176.189V182.946M155.919 182.946H149.162M155.919 182.946H162.676M155.919 182.946V189.703M149.162 182.946H142.405V189.703M149.162 182.946V189.703M162.676 182.946H169.432M162.676 182.946V189.703M169.432 182.946V189.703M196.459 182.946H189.703M196.459 182.946V189.703M196.459 182.946H203.216M189.703 182.946V189.703M209.973 182.946H203.216M209.973 182.946H216.73M209.973 182.946V189.703M203.216 182.946V189.703M216.73 182.946V189.703M7.27028 189.703H0.513519M7.27028 189.703V196.459M0.513519 189.703V196.459M47.8108 189.703H41.0541M47.8108 189.703V196.459M41.0541 189.703V196.459M61.3243 189.703V182.946H54.5676V189.703H61.3243ZM61.3243 189.703H68.0811M61.3243 189.703V196.459M74.8378 189.703H68.0811M74.8378 189.703V196.459H68.0811M68.0811 189.703V196.459M115.378 189.703H122.135V196.459M115.378 189.703V196.459M149.162 189.703H142.405M149.162 189.703H155.919M149.162 189.703V196.459M142.405 189.703V196.459M155.919 189.703H162.676M155.919 189.703V196.459M162.676 189.703H169.432M162.676 189.703V196.459M169.432 189.703V196.459M169.432 189.703H176.189M196.459 189.703H189.703M196.459 189.703H203.216M196.459 189.703V196.459M189.703 189.703H182.946M189.703 189.703V196.459M203.216 189.703H209.973M203.216 189.703V196.459H196.459M209.973 189.703H216.73M209.973 189.703V196.459M216.73 189.703V196.459M216.73 189.703H223.486V196.459H216.73M7.27028 196.459H0.513519M7.27028 196.459V203.216M0.513519 196.459V203.216M20.7838 189.703H14.027V196.459M20.7838 189.703V196.459M20.7838 189.703H27.5405M20.7838 196.459H14.027M20.7838 196.459H27.5405M20.7838 196.459V203.216M14.027 196.459V203.216M27.5405 189.703V196.459M27.5405 189.703H34.2973V196.459M27.5405 196.459H34.2973M27.5405 196.459V203.216M34.2973 196.459V203.216M47.8108 196.459H41.0541M47.8108 196.459V203.216M41.0541 196.459V203.216M68.0811 196.459H61.3243M68.0811 196.459V203.216M61.3243 196.459V203.216M122.135 196.459H115.378M122.135 196.459V203.216M115.378 196.459V203.216M135.649 196.459V189.703H128.892V196.459M135.649 196.459H128.892M135.649 196.459V203.216M135.649 196.459H142.405M128.892 196.459V203.216M149.162 196.459H142.405M149.162 196.459H155.919M149.162 196.459V203.216M142.405 196.459V203.216M155.919 196.459H162.676M155.919 196.459V203.216M169.432 196.459H162.676M169.432 196.459H176.189M169.432 196.459V203.216H176.189V196.459M162.676 196.459V203.216H155.919M176.189 189.703V196.459M176.189 189.703H182.946M176.189 196.459H182.946M182.946 189.703V196.459M182.946 196.459H189.703M182.946 196.459V203.216H189.703M189.703 196.459H196.459M189.703 196.459V203.216M196.459 196.459V203.216M216.73 196.459H209.973M216.73 196.459V203.216M209.973 196.459V203.216M7.27028 203.216H0.513519M7.27028 203.216V209.973M0.513519 203.216V209.973M20.7838 203.216H14.027M20.7838 203.216H27.5405M20.7838 203.216V209.973M14.027 203.216V209.973H20.7838M27.5405 203.216H34.2973M27.5405 203.216V209.973M34.2973 203.216V209.973H27.5405M47.8108 203.216H41.0541M47.8108 203.216V209.973M41.0541 203.216V209.973M68.0811 203.216H61.3243M68.0811 203.216V209.973H61.3243V203.216M88.3514 196.459H81.5946V203.216H88.3514M88.3514 196.459V203.216M88.3514 196.459H95.1081M88.3514 203.216H95.1081M95.1081 196.459V203.216M95.1081 196.459H101.865M95.1081 203.216H101.865M95.1081 203.216V209.973H101.865M101.865 196.459V203.216M101.865 196.459H108.622V203.216M101.865 203.216H108.622M101.865 203.216V209.973M108.622 203.216V209.973M108.622 203.216H115.378M122.135 203.216H115.378M122.135 203.216V209.973M122.135 203.216H128.892M115.378 203.216V209.973M135.649 203.216H128.892M135.649 203.216H142.405M135.649 203.216V209.973H142.405M128.892 203.216V209.973H122.135M142.405 203.216H149.162M142.405 203.216V209.973M149.162 203.216H155.919M149.162 203.216V209.973M155.919 203.216V209.973H149.162M189.703 203.216H196.459M189.703 203.216V209.973H196.459M196.459 203.216V209.973M216.73 203.216H209.973M216.73 203.216V209.973M216.73 203.216H223.486V209.973H216.73M209.973 203.216H203.216V209.973M209.973 203.216V209.973M7.27028 209.973H0.513519M7.27028 209.973V216.73M0.513519 209.973V216.73M20.7838 209.973H27.5405M47.8108 209.973H41.0541M47.8108 209.973V216.73M41.0541 209.973V216.73M101.865 209.973H108.622M101.865 209.973V216.73H108.622M108.622 209.973H115.378M108.622 209.973V216.73M115.378 209.973H122.135M142.405 209.973H149.162M142.405 209.973V216.73M149.162 209.973V216.73M196.459 209.973H203.216M196.459 209.973V216.73M209.973 209.973H203.216M209.973 209.973H216.73M209.973 209.973V216.73M203.216 209.973V216.73M7.27028 216.73H0.513519M7.27028 216.73V223.486M7.27028 216.73H14.027M0.513519 216.73V223.486H7.27028M47.8108 216.73H41.0541M47.8108 216.73V223.486H41.0541M41.0541 216.73H34.2973M41.0541 216.73V223.486M88.3514 216.73V209.973H81.5946V216.73M88.3514 216.73H81.5946M88.3514 216.73V223.486H81.5946V216.73M108.622 216.73H115.378V223.486H108.622V216.73ZM149.162 216.73H142.405M149.162 216.73V223.486M149.162 216.73H155.919M142.405 216.73H135.649M142.405 216.73V223.486M203.216 216.73H196.459M203.216 216.73H209.973M203.216 216.73V223.486H196.459V216.73M209.973 216.73H216.73V223.486H209.973V216.73ZM7.27028 223.486H14.027M14.027 216.73V223.486M14.027 216.73H20.7838M14.027 223.486H20.7838M20.7838 216.73V223.486M20.7838 216.73H27.5405M20.7838 223.486H27.5405M27.5405 216.73V223.486M27.5405 216.73H34.2973M27.5405 223.486H34.2973M34.2973 216.73V223.486M34.2973 223.486H41.0541M128.892 216.73H122.135V223.486H128.892M128.892 216.73V223.486M128.892 216.73H135.649M128.892 223.486H135.649M135.649 216.73V223.486M135.649 223.486H142.405M142.405 223.486H149.162M149.162 223.486H155.919M155.919 216.73V223.486M155.919 216.73H162.676M155.919 223.486H162.676M162.676 216.73V223.486M162.676 216.73H169.432V223.486H162.676M54.5676 0.513519H61.3243V7.27028H54.5676V0.513519ZM74.8378 0.513519H81.5946V7.27028H74.8378V0.513519ZM216.73 54.5676H223.486V61.3243H216.73V54.5676ZM176.189 176.189H182.946V182.946H176.189V176.189ZM176.189 209.973H182.946V216.73H176.189V209.973ZM61.3243 216.73H68.0811V223.486H61.3243V216.73Z" stroke="black" stroke-width="0.5"/>
</svg>
