<svg width="224" height="224" viewBox="0 0 224 224" fill="none" xmlns="http://www.w3.org/2000/svg">
<path d="M0.51355 0.513519H7.27031V7.27028H0.51355V0.513519Z" fill="black"/>
<path d="M7.27031 0.513519H14.0271V7.27028H7.27031V0.513519Z" fill="black"/>
<path d="M14.0271 0.513519H20.7838V7.27028H14.0271V0.513519Z" fill="black"/>
<path d="M20.7838 0.513519H27.5406V7.27028H20.7838V0.513519Z" fill="black"/>
<path d="M27.5406 0.513519H34.2973V7.27028H27.5406V0.513519Z" fill="black"/>
<path d="M34.2973 0.513519H41.0541V7.27028H34.2973V0.513519Z" fill="black"/>
<path d="M41.0541 0.513519H47.8108V7.27028H41.0541V0.513519Z" fill="black"/>
<path d="M74.8379 0.513519H81.5946V7.27028H74.8379V0.513519Z" fill="black"/>
<path d="M122.135 0.513519H128.892V7.27028H122.135V0.513519Z" fill="black"/>
<path d="M128.892 0.513519H135.649V7.27028H128.892V0.513519Z" fill="black"/>
<path d="M149.162 0.513519H155.919V7.27028H149.162V0.513519Z" fill="black"/>
<path d="M162.676 0.513519H169.432V7.27028H162.676V0.513519Z" fill="black"/>
<path d="M176.189 0.513519H182.946V7.27028H176.189V0.513519Z" fill="black"/>
<path d="M182.946 0.513519H189.703V7.27028H182.946V0.513519Z" fill="black"/>
<path d="M189.703 0.513519H196.46V7.27028H189.703V0.513519Z" fill="black"/>
<path d="M196.46 0.513519H203.216V7.27028H196.46V0.513519Z" fill="black"/>
<path d="M203.216 0.513519H209.973V7.27028H203.216V0.513519Z" fill="black"/>
<path d="M209.973 0.513519H216.73V7.27028H209.973V0.513519Z" fill="black"/>
<path d="M216.73 0.513519H223.487V7.27028H216.73V0.513519Z" fill="black"/>
<path d="M0.51355 7.27028H7.27031V14.027H0.51355V7.27028Z" fill="black"/>
<path d="M41.0541 7.27028H47.8108V14.027H41.0541V7.27028Z" fill="black"/>
<path d="M88.3514 7.27028H95.1081V14.027H88.3514V7.27028Z" fill="black"/>
<path d="M101.865 7.27028H108.622V14.027H101.865V7.27028Z" fill="black"/>
<path d="M122.135 7.27028H128.892V14.027H122.135V7.27028Z" fill="black"/>
<path d="M135.649 7.27028H142.405V14.027H135.649V7.27028Z" fill="black"/>
<path d="M142.405 7.27028H149.162V14.027H142.405V7.27028Z" fill="black"/>
<path d="M149.162 7.27028H155.919V14.027H149.162V7.27028Z" fill="black"/>
<path d="M162.676 7.27028H169.432V14.027H162.676V7.27028Z" fill="black"/>
<path d="M176.189 7.27028H182.946V14.027H176.189V7.27028Z" fill="black"/>
<path d="M216.73 7.27028H223.487V14.027H216.73V7.27028Z" fill="black"/>
<path d="M0.51355 14.027H7.27031V20.7838H0.51355V14.027Z" fill="black"/>
<path d="M14.0271 14.027H20.7838V20.7838H14.0271V14.027Z" fill="black"/>
<path d="M20.7838 14.027H27.5406V20.7838H20.7838V14.027Z" fill="black"/>
<path d="M27.5406 14.027H34.2973V20.7838H27.5406V14.027Z" fill="black"/>
<path d="M41.0541 14.027H47.8108V20.7838H41.0541V14.027Z" fill="black"/>
<path d="M54.5676 14.027H61.3244V20.7838H54.5676V14.027Z" fill="black"/>
<path d="M61.3244 14.027H68.0811V20.7838H61.3244V14.027Z" fill="black"/>
<path d="M68.0811 14.027H74.8379V20.7838H68.0811V14.027Z" fill="black"/>
<path d="M74.8379 14.027H81.5946V20.7838H74.8379V14.027Z" fill="black"/>
<path d="M95.1081 14.027H101.865V20.7838H95.1081V14.027Z" fill="black"/>
<path d="M101.865 14.027H108.622V20.7838H101.865V14.027Z" fill="black"/>
<path d="M115.378 14.027H122.135V20.7838H115.378V14.027Z" fill="black"/>
<path d="M122.135 14.027H128.892V20.7838H122.135V14.027Z" fill="black"/>
<path d="M128.892 14.027H135.649V20.7838H128.892V14.027Z" fill="black"/>
<path d="M142.405 14.027H149.162V20.7838H142.405V14.027Z" fill="black"/>
<path d="M155.919 14.027H162.676V20.7838H155.919V14.027Z" fill="black"/>
<path d="M162.676 14.027H169.432V20.7838H162.676V14.027Z" fill="black"/>
<path d="M176.189 14.027H182.946V20.7838H176.189V14.027Z" fill="black"/>
<path d="M189.703 14.027H196.46V20.7838H189.703V14.027Z" fill="black"/>
<path d="M196.46 14.027H203.216V20.7838H196.46V14.027Z" fill="black"/>
<path d="M203.216 14.027H209.973V20.7838H203.216V14.027Z" fill="black"/>
<path d="M216.73 14.027H223.487V20.7838H216.73V14.027Z" fill="black"/>
<path d="M0.51355 20.7838H7.27031V27.5405H0.51355V20.7838Z" fill="black"/>
<path d="M14.0271 20.7838H20.7838V27.5405H14.0271V20.7838Z" fill="black"/>
<path d="M20.7838 20.7838H27.5406V27.5405H20.7838V20.7838Z" fill="black"/>
<path d="M27.5406 20.7838H34.2973V27.5405H27.5406V20.7838Z" fill="black"/>
<path d="M41.0541 20.7838H47.8108V27.5405H41.0541V20.7838Z" fill="black"/>
<path d="M54.5676 20.7838H61.3244V27.5405H54.5676V20.7838Z" fill="black"/>
<path d="M61.3244 20.7838H68.0811V27.5405H61.3244V20.7838Z" fill="black"/>
<path d="M68.0811 20.7838H74.8379V27.5405H68.0811V20.7838Z" fill="black"/>
<path d="M88.3514 20.7838H95.1081V27.5405H88.3514V20.7838Z" fill="black"/>
<path d="M122.135 20.7838H128.892V27.5405H122.135V20.7838Z" fill="black"/>
<path d="M128.892 20.7838H135.649V27.5405H128.892V20.7838Z" fill="black"/>
<path d="M142.405 20.7838H149.162V27.5405H142.405V20.7838Z" fill="black"/>
<path d="M155.919 20.7838H162.676V27.5405H155.919V20.7838Z" fill="black"/>
<path d="M162.676 20.7838H169.432V27.5405H162.676V20.7838Z" fill="black"/>
<path d="M176.189 20.7838H182.946V27.5405H176.189V20.7838Z" fill="black"/>
<path d="M189.703 20.7838H196.46V27.5405H189.703V20.7838Z" fill="black"/>
<path d="M196.46 20.7838H203.216V27.5405H196.46V20.7838Z" fill="black"/>
<path d="M203.216 20.7838H209.973V27.5405H203.216V20.7838Z" fill="black"/>
<path d="M216.73 20.7838H223.487V27.5405H216.73V20.7838Z" fill="black"/>
<path d="M0.51355 27.5405H7.27031V34.2973H0.51355V27.5405Z" fill="black"/>
<path d="M14.0271 27.5405H20.7838V34.2973H14.0271V27.5405Z" fill="black"/>
<path d="M20.7838 27.5405H27.5406V34.2973H20.7838V27.5405Z" fill="black"/>
<path d="M27.5406 27.5405H34.2973V34.2973H27.5406V27.5405Z" fill="black"/>
<path d="M41.0541 27.5405H47.8108V34.2973H41.0541V27.5405Z" fill="black"/>
<path d="M61.3244 27.5405H68.0811V34.2973H61.3244V27.5405Z" fill="black"/>
<path d="M68.0811 27.5405H74.8379V34.2973H68.0811V27.5405Z" fill="black"/>
<path d="M74.8379 27.5405H81.5946V34.2973H74.8379V27.5405Z" fill="black"/>
<path d="M88.3514 27.5405H95.1081V34.2973H88.3514V27.5405Z" fill="black"/>
<path d="M101.865 27.5405H108.622V34.2973H101.865V27.5405Z" fill="black"/>
<path d="M115.378 27.5405H122.135V34.2973H115.378V27.5405Z" fill="black"/>
<path d="M122.135 27.5405H128.892V34.2973H122.135V27.5405Z" fill="black"/>
<path d="M135.649 27.5405H142.405V34.2973H135.649V27.5405Z" fill="black"/>
<path d="M142.405 27.5405H149.162V34.2973H142.405V27.5405Z" fill="black"/>
<path d="M149.162 27.5405H155.919V34.2973H149.162V27.5405Z" fill="black"/>
<path d="M155.919 27.5405H162.676V34.2973H155.919V27.5405Z" fill="black"/>
<path d="M176.189 27.5405H182.946V34.2973H176.189V27.5405Z" fill="black"/>
<path d="M189.703 27.5405H196.46V34.2973H189.703V27.5405Z" fill="black"/>
<path d="M196.46 27.5405H203.216V34.2973H196.46V27.5405Z" fill="black"/>
<path d="M203.216 27.5405H209.973V34.2973H203.216V27.5405Z" fill="black"/>
<path d="M216.73 27.5405H223.487V34.2973H216.73V27.5405Z" fill="black"/>
<path d="M0.51355 34.2973H7.27031V41.0541H0.51355V34.2973Z" fill="black"/>
<path d="M41.0541 34.2973H47.8108V41.0541H41.0541V34.2973Z" fill="black"/>
<path d="M81.5946 34.2973H88.3514V41.0541H81.5946V34.2973Z" fill="black"/>
<path d="M101.865 34.2973H108.622V41.0541H101.865V34.2973Z" fill="black"/>
<path d="M108.622 34.2973H115.378V41.0541H108.622V34.2973Z" fill="black"/>
<path d="M122.135 34.2973H128.892V41.0541H122.135V34.2973Z" fill="black"/>
<path d="M149.162 34.2973H155.919V41.0541H149.162V34.2973Z" fill="black"/>
<path d="M162.676 34.2973H169.432V41.0541H162.676V34.2973Z" fill="black"/>
<path d="M176.189 34.2973H182.946V41.0541H176.189V34.2973Z" fill="black"/>
<path d="M216.73 34.2973H223.487V41.0541H216.73V34.2973Z" fill="black"/>
<path d="M0.51355 41.0541H7.27031V47.8108H0.51355V41.0541Z" fill="black"/>
<path d="M7.27031 41.0541H14.0271V47.8108H7.27031V41.0541Z" fill="black"/>
<path d="M14.0271 41.0541H20.7838V47.8108H14.0271V41.0541Z" fill="black"/>
<path d="M20.7838 41.0541H27.5406V47.8108H20.7838V41.0541Z" fill="black"/>
<path d="M27.5406 41.0541H34.2973V47.8108H27.5406V41.0541Z" fill="black"/>
<path d="M34.2973 41.0541H41.0541V47.8108H34.2973V41.0541Z" fill="black"/>
<path d="M41.0541 41.0541H47.8108V47.8108H41.0541V41.0541Z" fill="black"/>
<path d="M54.5676 41.0541H61.3244V47.8108H54.5676V41.0541Z" fill="black"/>
<path d="M68.0811 41.0541H74.8379V47.8108H68.0811V41.0541Z" fill="black"/>
<path d="M81.5946 41.0541H88.3514V47.8108H81.5946V41.0541Z" fill="black"/>
<path d="M95.1081 41.0541H101.865V47.8108H95.1081V41.0541Z" fill="black"/>
<path d="M108.622 41.0541H115.378V47.8108H108.622V41.0541Z" fill="black"/>
<path d="M122.135 41.0541H128.892V47.8108H122.135V41.0541Z" fill="black"/>
<path d="M135.649 41.0541H142.405V47.8108H135.649V41.0541Z" fill="black"/>
<path d="M149.162 41.0541H155.919V47.8108H149.162V41.0541Z" fill="black"/>
<path d="M162.676 41.0541H169.432V47.8108H162.676V41.0541Z" fill="black"/>
<path d="M176.189 41.0541H182.946V47.8108H176.189V41.0541Z" fill="black"/>
<path d="M182.946 41.0541H189.703V47.8108H182.946V41.0541Z" fill="black"/>
<path d="M189.703 41.0541H196.46V47.8108H189.703V41.0541Z" fill="black"/>
<path d="M196.46 41.0541H203.216V47.8108H196.46V41.0541Z" fill="black"/>
<path d="M203.216 41.0541H209.973V47.8108H203.216V41.0541Z" fill="black"/>
<path d="M209.973 41.0541H216.73V47.8108H209.973V41.0541Z" fill="black"/>
<path d="M216.73 41.0541H223.487V47.8108H216.73V41.0541Z" fill="black"/>
<path d="M101.865 47.8108H108.622V54.5676H101.865V47.8108Z" fill="black"/>
<path d="M135.649 47.8108H142.405V54.5676H135.649V47.8108Z" fill="black"/>
<path d="M149.162 47.8108H155.919V54.5676H149.162V47.8108Z" fill="black"/>
<path d="M155.919 47.8108H162.676V54.5676H155.919V47.8108Z" fill="black"/>
<path d="M20.7838 54.5676H27.5406V61.3243H20.7838V54.5676Z" fill="black"/>
<path d="M27.5406 54.5676H34.2973V61.3243H27.5406V54.5676Z" fill="black"/>
<path d="M41.0541 54.5676H47.8108V61.3243H41.0541V54.5676Z" fill="black"/>
<path d="M47.8108 54.5676H54.5676V61.3243H47.8108V54.5676Z" fill="black"/>
<path d="M61.3244 54.5676H68.0811V61.3243H61.3244V54.5676Z" fill="black"/>
<path d="M88.3514 54.5676H95.1081V61.3243H88.3514V54.5676Z" fill="black"/>
<path d="M95.1081 54.5676H101.865V61.3243H95.1081V54.5676Z" fill="black"/>
<path d="M101.865 54.5676H108.622V61.3243H101.865V54.5676Z" fill="black"/>
<path d="M108.622 54.5676H115.378V61.3243H108.622V54.5676Z" fill="black"/>
<path d="M155.919 54.5676H162.676V61.3243H155.919V54.5676Z" fill="black"/>
<path d="M162.676 54.5676H169.432V61.3243H162.676V54.5676Z" fill="black"/>
<path d="M196.46 54.5676H203.216V61.3243H196.46V54.5676Z" fill="black"/>
<path d="M203.216 54.5676H209.973V61.3243H203.216V54.5676Z" fill="black"/>
<path d="M0.51355 61.3243H7.27031V68.0811H0.51355V61.3243Z" fill="black"/>
<path d="M7.27031 61.3243H14.0271V68.0811H7.27031V61.3243Z" fill="black"/>
<path d="M34.2973 61.3243H41.0541V68.0811H34.2973V61.3243Z" fill="black"/>
<path d="M54.5676 61.3243H61.3244V68.0811H54.5676V61.3243Z" fill="black"/>
<path d="M81.5946 61.3243H88.3514V68.0811H81.5946V61.3243Z" fill="black"/>
<path d="M88.3514 61.3243H95.1081V68.0811H88.3514V61.3243Z" fill="black"/>
<path d="M101.865 61.3243H108.622V68.0811H101.865V61.3243Z" fill="black"/>
<path d="M108.622 61.3243H115.378V68.0811H108.622V61.3243Z" fill="black"/>
<path d="M115.378 61.3243H122.135V68.0811H115.378V61.3243Z" fill="black"/>
<path d="M122.135 61.3243H128.892V68.0811H122.135V61.3243Z" fill="black"/>
<path d="M135.649 61.3243H142.405V68.0811H135.649V61.3243Z" fill="black"/>
<path d="M149.162 61.3243H155.919V68.0811H149.162V61.3243Z" fill="black"/>
<path d="M155.919 61.3243H162.676V68.0811H155.919V61.3243Z" fill="black"/>
<path d="M169.432 61.3243H176.189V68.0811H169.432V61.3243Z" fill="black"/>
<path d="M182.946 61.3243H189.703V68.0811H182.946V61.3243Z" fill="black"/>
<path d="M189.703 61.3243H196.46V68.0811H189.703V61.3243Z" fill="black"/>
<path d="M203.216 61.3243H209.973V68.0811H203.216V61.3243Z" fill="black"/>
<path d="M7.27031 68.0811H14.0271V74.8378H7.27031V68.0811Z" fill="black"/>
<path d="M41.0541 68.0811H47.8108V74.8378H41.0541V68.0811Z" fill="black"/>
<path d="M68.0811 68.0811H74.8379V74.8378H68.0811V68.0811Z" fill="black"/>
<path d="M74.8379 68.0811H81.5946V74.8378H74.8379V68.0811Z" fill="black"/>
<path d="M101.865 68.0811H108.622V74.8378H101.865V68.0811Z" fill="black"/>
<path d="M108.622 68.0811H115.378V74.8378H108.622V68.0811Z" fill="black"/>
<path d="M122.135 68.0811H128.892V74.8378H122.135V68.0811Z" fill="black"/>
<path d="M128.892 68.0811H135.649V74.8378H128.892V68.0811Z" fill="black"/>
<path d="M142.405 68.0811H149.162V74.8378H142.405V68.0811Z" fill="black"/>
<path d="M155.919 68.0811H162.676V74.8378H155.919V68.0811Z" fill="black"/>
<path d="M162.676 68.0811H169.432V74.8378H162.676V68.0811Z" fill="black"/>
<path d="M169.432 68.0811H176.189V74.8378H169.432V68.0811Z" fill="black"/>
<path d="M176.189 68.0811H182.946V74.8378H176.189V68.0811Z" fill="black"/>
<path d="M182.946 68.0811H189.703V74.8378H182.946V68.0811Z" fill="black"/>
<path d="M203.216 68.0811H209.973V74.8378H203.216V68.0811Z" fill="black"/>
<path d="M209.973 68.0811H216.73V74.8378H209.973V68.0811Z" fill="black"/>
<path d="M216.73 68.0811H223.487V74.8378H216.73V68.0811Z" fill="black"/>
<path d="M14.0271 74.8378H20.7838V81.5946H14.0271V74.8378Z" fill="black"/>
<path d="M68.0811 74.8378H74.8379V81.5946H68.0811V74.8378Z" fill="black"/>
<path d="M81.5946 74.8378H88.3514V81.5946H81.5946V74.8378Z" fill="black"/>
<path d="M95.1081 74.8378H101.865V81.5946H95.1081V74.8378Z" fill="black"/>
<path d="M108.622 74.8378H115.378V81.5946H108.622V74.8378Z" fill="black"/>
<path d="M115.378 74.8378H122.135V81.5946H115.378V74.8378Z" fill="black"/>
<path d="M122.135 74.8378H128.892V81.5946H122.135V74.8378Z" fill="black"/>
<path d="M155.919 74.8378H162.676V81.5946H155.919V74.8378Z" fill="black"/>
<path d="M169.432 74.8378H176.189V81.5946H169.432V74.8378Z" fill="black"/>
<path d="M176.189 74.8378H182.946V81.5946H176.189V74.8378Z" fill="black"/>
<path d="M182.946 74.8378H189.703V81.5946H182.946V74.8378Z" fill="black"/>
<path d="M189.703 74.8378H196.46V81.5946H189.703V74.8378Z" fill="black"/>
<path d="M203.216 74.8378H209.973V81.5946H203.216V74.8378Z" fill="black"/>
<path d="M20.7838 81.5946H27.5406V88.3514H20.7838V81.5946Z" fill="black"/>
<path d="M34.2973 81.5946H41.0541V88.3514H34.2973V81.5946Z" fill="black"/>
<path d="M41.0541 81.5946H47.8108V88.3514H41.0541V81.5946Z" fill="black"/>
<path d="M47.8108 81.5946H54.5676V88.3514H47.8108V81.5946Z" fill="black"/>
<path d="M54.5676 81.5946H61.3244V88.3514H54.5676V81.5946Z" fill="black"/>
<path d="M68.0811 81.5946H74.8379V88.3514H68.0811V81.5946Z" fill="black"/>
<path d="M81.5946 81.5946H88.3514V88.3514H81.5946V81.5946Z" fill="black"/>
<path d="M95.1081 81.5946H101.865V88.3514H95.1081V81.5946Z" fill="black"/>
<path d="M122.135 81.5946H128.892V88.3514H122.135V81.5946Z" fill="black"/>
<path d="M142.405 81.5946H149.162V88.3514H142.405V81.5946Z" fill="black"/>
<path d="M149.162 81.5946H155.919V88.3514H149.162V81.5946Z" fill="black"/>
<path d="M162.676 81.5946H169.432V88.3514H162.676V81.5946Z" fill="black"/>
<path d="M176.189 81.5946H182.946V88.3514H176.189V81.5946Z" fill="black"/>
<path d="M182.946 81.5946H189.703V88.3514H182.946V81.5946Z" fill="black"/>
<path d="M189.703 81.5946H196.46V88.3514H189.703V81.5946Z" fill="black"/>
<path d="M7.27031 88.3514H14.0271V95.1081H7.27031V88.3514Z" fill="black"/>
<path d="M27.5406 88.3514H34.2973V95.1081H27.5406V88.3514Z" fill="black"/>
<path d="M47.8108 88.3514H54.5676V95.1081H47.8108V88.3514Z" fill="black"/>
<path d="M54.5676 88.3514H61.3244V95.1081H54.5676V88.3514Z" fill="black"/>
<path d="M74.8379 88.3514H81.5946V95.1081H74.8379V88.3514Z" fill="black"/>
<path d="M95.1081 88.3514H101.865V95.1081H95.1081V88.3514Z" fill="black"/>
<path d="M115.378 88.3514H122.135V95.1081H115.378V88.3514Z" fill="black"/>
<path d="M122.135 88.3514H128.892V95.1081H122.135V88.3514Z" fill="black"/>
<path d="M142.405 88.3514H149.162V95.1081H142.405V88.3514Z" fill="black"/>
<path d="M149.162 88.3514H155.919V95.1081H149.162V88.3514Z" fill="black"/>
<path d="M155.919 88.3514H162.676V95.1081H155.919V88.3514Z" fill="black"/>
<path d="M169.432 88.3514H176.189V95.1081H169.432V88.3514Z" fill="black"/>
<path d="M196.46 88.3514H203.216V95.1081H196.46V88.3514Z" fill="black"/>
<path d="M209.973 88.3514H216.73V95.1081H209.973V88.3514Z" fill="black"/>
<path d="M14.0271 95.1081H20.7838V101.865H14.0271V95.1081Z" fill="black"/>
<path d="M20.7838 95.1081H27.5406V101.865H20.7838V95.1081Z" fill="black"/>
<path d="M34.2973 95.1081H41.0541V101.865H34.2973V95.1081Z" fill="black"/>
<path d="M41.0541 95.1081H47.8108V101.865H41.0541V95.1081Z" fill="black"/>
<path d="M47.8108 95.1081H54.5676V101.865H47.8108V95.1081Z" fill="black"/>
<path d="M54.5676 95.1081H61.3244V101.865H54.5676V95.1081Z" fill="black"/>
<path d="M74.8379 95.1081H81.5946V101.865H74.8379V95.1081Z" fill="black"/>
<path d="M122.135 95.1081H128.892V101.865H122.135V95.1081Z" fill="black"/>
<path d="M128.892 95.1081H135.649V101.865H128.892V95.1081Z" fill="black"/>
<path d="M162.676 95.1081H169.432V101.865H162.676V95.1081Z" fill="black"/>
<path d="M176.189 95.1081H182.946V101.865H176.189V95.1081Z" fill="black"/>
<path d="M182.946 95.1081H189.703V101.865H182.946V95.1081Z" fill="black"/>
<path d="M189.703 95.1081H196.46V101.865H189.703V95.1081Z" fill="black"/>
<path d="M196.46 95.1081H203.216V101.865H196.46V95.1081Z" fill="black"/>
<path d="M203.216 95.1081H209.973V101.865H203.216V95.1081Z" fill="black"/>
<path d="M0.51355 101.865H7.27031V108.622H0.51355V101.865Z" fill="black"/>
<path d="M14.0271 101.865H20.7838V108.622H14.0271V101.865Z" fill="black"/>
<path d="M27.5406 101.865H34.2973V108.622H27.5406V101.865Z" fill="black"/>
<path d="M34.2973 101.865H41.0541V108.622H34.2973V101.865Z" fill="black"/>
<path d="M74.8379 101.865H81.5946V108.622H74.8379V101.865Z" fill="black"/>
<path d="M81.5946 101.865H88.3514V108.622H81.5946V101.865Z" fill="black"/>
<path d="M88.3514 101.865H95.1081V108.622H88.3514V101.865Z" fill="black"/>
<path d="M95.1081 101.865H101.865V108.622H95.1081V101.865Z" fill="black"/>
<path d="M101.865 101.865H108.622V108.622H101.865V101.865Z" fill="black"/>
<path d="M108.622 101.865H115.378V108.622H108.622V101.865Z" fill="black"/>
<path d="M115.378 101.865H122.135V108.622H115.378V101.865Z" fill="black"/>
<path d="M128.892 101.865H135.649V108.622H128.892V101.865Z" fill="black"/>
<path d="M155.919 101.865H162.676V108.622H155.919V101.865Z" fill="black"/>
<path d="M169.432 101.865H176.189V108.622H169.432V101.865Z" fill="black"/>
<path d="M182.946 101.865H189.703V108.622H182.946V101.865Z" fill="black"/>
<path d="M189.703 101.865H196.46V108.622H189.703V101.865Z" fill="black"/>
<path d="M196.46 101.865H203.216V108.622H196.46V101.865Z" fill="black"/>
<path d="M203.216 101.865H209.973V108.622H203.216V101.865Z" fill="black"/>
<path d="M209.973 101.865H216.73V108.622H209.973V101.865Z" fill="black"/>
<path d="M216.73 101.865H223.487V108.622H216.73V101.865Z" fill="black"/>
<path d="M14.0271 108.622H20.7838V115.378H14.0271V108.622Z" fill="black"/>
<path d="M20.7838 108.622H27.5406V115.378H20.7838V108.622Z" fill="black"/>
<path d="M41.0541 108.622H47.8108V115.378H41.0541V108.622Z" fill="black"/>
<path d="M54.5676 108.622H61.3244V115.378H54.5676V108.622Z" fill="black"/>
<path d="M61.3244 108.622H68.0811V115.378H61.3244V108.622Z" fill="black"/>
<path d="M68.0811 108.622H74.8379V115.378H68.0811V108.622Z" fill="black"/>
<path d="M88.3514 108.622H95.1081V115.378H88.3514V108.622Z" fill="black"/>
<path d="M108.622 108.622H115.378V115.378H108.622V108.622Z" fill="black"/>
<path d="M122.135 108.622H128.892V115.378H122.135V108.622Z" fill="black"/>
<path d="M176.189 108.622H182.946V115.378H176.189V108.622Z" fill="black"/>
<path d="M182.946 108.622H189.703V115.378H182.946V108.622Z" fill="black"/>
<path d="M189.703 108.622H196.46V115.378H189.703V108.622Z" fill="black"/>
<path d="M209.973 108.622H216.73V115.378H209.973V108.622Z" fill="black"/>
<path d="M0.51355 115.378H7.27031V122.135H0.51355V115.378Z" fill="black"/>
<path d="M14.0271 115.378H20.7838V122.135H14.0271V115.378Z" fill="black"/>
<path d="M20.7838 115.378H27.5406V122.135H20.7838V115.378Z" fill="black"/>
<path d="M54.5676 115.378H61.3244V122.135H54.5676V115.378Z" fill="black"/>
<path d="M74.8379 115.378H81.5946V122.135H74.8379V115.378Z" fill="black"/>
<path d="M81.5946 115.378H88.3514V122.135H81.5946V115.378Z" fill="black"/>
<path d="M95.1081 115.378H101.865V122.135H95.1081V115.378Z" fill="black"/>
<path d="M115.378 115.378H122.135V122.135H115.378V115.378Z" fill="black"/>
<path d="M122.135 115.378H128.892V122.135H122.135V115.378Z" fill="black"/>
<path d="M135.649 115.378H142.405V122.135H135.649V115.378Z" fill="black"/>
<path d="M149.162 115.378H155.919V122.135H149.162V115.378Z" fill="black"/>
<path d="M162.676 115.378H169.432V122.135H162.676V115.378Z" fill="black"/>
<path d="M169.432 115.378H176.189V122.135H169.432V115.378Z" fill="black"/>
<path d="M176.189 115.378H182.946V122.135H176.189V115.378Z" fill="black"/>
<path d="M189.703 115.378H196.46V122.135H189.703V115.378Z" fill="black"/>
<path d="M196.46 115.378H203.216V122.135H196.46V115.378Z" fill="black"/>
<path d="M209.973 115.378H216.73V122.135H209.973V115.378Z" fill="black"/>
<path d="M216.73 115.378H223.487V122.135H216.73V115.378Z" fill="black"/>
<path d="M0.51355 122.135H7.27031V128.892H0.51355V122.135Z" fill="black"/>
<path d="M14.0271 122.135H20.7838V128.892H14.0271V122.135Z" fill="black"/>
<path d="M41.0541 122.135H47.8108V128.892H41.0541V122.135Z" fill="black"/>
<path d="M47.8108 122.135H54.5676V128.892H47.8108V122.135Z" fill="black"/>
<path d="M61.3244 122.135H68.0811V128.892H61.3244V122.135Z" fill="black"/>
<path d="M74.8379 122.135H81.5946V128.892H74.8379V122.135Z" fill="black"/>
<path d="M101.865 122.135H108.622V128.892H101.865V122.135Z" fill="black"/>
<path d="M122.135 122.135H128.892V128.892H122.135V122.135Z" fill="black"/>
<path d="M135.649 122.135H142.405V128.892H135.649V122.135Z" fill="black"/>
<path d="M155.919 122.135H162.676V128.892H155.919V122.135Z" fill="black"/>
<path d="M182.946 122.135H189.703V128.892H182.946V122.135Z" fill="black"/>
<path d="M189.703 122.135H196.46V128.892H189.703V122.135Z" fill="black"/>
<path d="M196.46 122.135H203.216V128.892H196.46V122.135Z" fill="black"/>
<path d="M203.216 122.135H209.973V128.892H203.216V122.135Z" fill="black"/>
<path d="M209.973 122.135H216.73V128.892H209.973V122.135Z" fill="black"/>
<path d="M216.73 122.135H223.487V128.892H216.73V122.135Z" fill="black"/>
<path d="M0.51355 128.892H7.27031V135.649H0.51355V128.892Z" fill="black"/>
<path d="M14.0271 128.892H20.7838V135.649H14.0271V128.892Z" fill="black"/>
<path d="M34.2973 128.892H41.0541V135.649H34.2973V128.892Z" fill="black"/>
<path d="M47.8108 128.892H54.5676V135.649H47.8108V128.892Z" fill="black"/>
<path d="M54.5676 128.892H61.3244V135.649H54.5676V128.892Z" fill="black"/>
<path d="M61.3244 128.892H68.0811V135.649H61.3244V128.892Z" fill="black"/>
<path d="M74.8379 128.892H81.5946V135.649H74.8379V128.892Z" fill="black"/>
<path d="M81.5946 128.892H88.3514V135.649H81.5946V128.892Z" fill="black"/>
<path d="M95.1081 128.892H101.865V135.649H95.1081V128.892Z" fill="black"/>
<path d="M101.865 128.892H108.622V135.649H101.865V128.892Z" fill="black"/>
<path d="M115.378 128.892H122.135V135.649H115.378V128.892Z" fill="black"/>
<path d="M128.892 128.892H135.649V135.649H128.892V128.892Z" fill="black"/>
<path d="M149.162 128.892H155.919V135.649H149.162V128.892Z" fill="black"/>
<path d="M155.919 128.892H162.676V135.649H155.919V128.892Z" fill="black"/>
<path d="M162.676 128.892H169.432V135.649H162.676V128.892Z" fill="black"/>
<path d="M169.432 128.892H176.189V135.649H169.432V128.892Z" fill="black"/>
<path d="M196.46 128.892H203.216V135.649H196.46V128.892Z" fill="black"/>
<path d="M203.216 128.892H209.973V135.649H203.216V128.892Z" fill="black"/>
<path d="M0.51355 135.649H7.27031V142.405H0.51355V135.649Z" fill="black"/>
<path d="M41.0541 135.649H47.8108V142.405H41.0541V135.649Z" fill="black"/>
<path d="M88.3514 135.649H95.1081V142.405H88.3514V135.649Z" fill="black"/>
<path d="M101.865 135.649H108.622V142.405H101.865V135.649Z" fill="black"/>
<path d="M115.378 135.649H122.135V142.405H115.378V135.649Z" fill="black"/>
<path d="M122.135 135.649H128.892V142.405H122.135V135.649Z" fill="black"/>
<path d="M128.892 135.649H135.649V142.405H128.892V135.649Z" fill="black"/>
<path d="M149.162 135.649H155.919V142.405H149.162V135.649Z" fill="black"/>
<path d="M176.189 135.649H182.946V142.405H176.189V135.649Z" fill="black"/>
<path d="M182.946 135.649H189.703V142.405H182.946V135.649Z" fill="black"/>
<path d="M196.46 135.649H203.216V142.405H196.46V135.649Z" fill="black"/>
<path d="M0.51355 142.405H7.27031V149.162H0.51355V142.405Z" fill="black"/>
<path d="M7.27031 142.405H14.0271V149.162H7.27031V142.405Z" fill="black"/>
<path d="M27.5406 142.405H34.2973V149.162H27.5406V142.405Z" fill="black"/>
<path d="M34.2973 142.405H41.0541V149.162H34.2973V142.405Z" fill="black"/>
<path d="M54.5676 142.405H61.3244V149.162H54.5676V142.405Z" fill="black"/>
<path d="M61.3244 142.405H68.0811V149.162H61.3244V142.405Z" fill="black"/>
<path d="M68.0811 142.405H74.8379V149.162H68.0811V142.405Z" fill="black"/>
<path d="M88.3514 142.405H95.1081V149.162H88.3514V142.405Z" fill="black"/>
<path d="M101.865 142.405H108.622V149.162H101.865V142.405Z" fill="black"/>
<path d="M108.622 142.405H115.378V149.162H108.622V142.405Z" fill="black"/>
<path d="M128.892 142.405H135.649V149.162H128.892V142.405Z" fill="black"/>
<path d="M142.405 142.405H149.162V149.162H142.405V142.405Z" fill="black"/>
<path d="M149.162 142.405H155.919V149.162H149.162V142.405Z" fill="black"/>
<path d="M162.676 142.405H169.432V149.162H162.676V142.405Z" fill="black"/>
<path d="M176.189 142.405H182.946V149.162H176.189V142.405Z" fill="black"/>
<path d="M182.946 142.405H189.703V149.162H182.946V142.405Z" fill="black"/>
<path d="M189.703 142.405H196.46V149.162H189.703V142.405Z" fill="black"/>
<path d="M203.216 142.405H209.973V149.162H203.216V142.405Z" fill="black"/>
<path d="M0.51355 149.162H7.27031V155.919H0.51355V149.162Z" fill="black"/>
<path d="M27.5406 149.162H34.2973V155.919H27.5406V149.162Z" fill="black"/>
<path d="M34.2973 149.162H41.0541V155.919H34.2973V149.162Z" fill="black"/>
<path d="M41.0541 149.162H47.8108V155.919H41.0541V149.162Z" fill="black"/>
<path d="M61.3244 149.162H68.0811V155.919H61.3244V149.162Z" fill="black"/>
<path d="M68.0811 149.162H74.8379V155.919H68.0811V149.162Z" fill="black"/>
<path d="M81.5946 149.162H88.3514V155.919H81.5946V149.162Z" fill="black"/>
<path d="M88.3514 149.162H95.1081V155.919H88.3514V149.162Z" fill="black"/>
<path d="M122.135 149.162H128.892V155.919H122.135V149.162Z" fill="black"/>
<path d="M135.649 149.162H142.405V155.919H135.649V149.162Z" fill="black"/>
<path d="M149.162 149.162H155.919V155.919H149.162V149.162Z" fill="black"/>
<path d="M155.919 149.162H162.676V155.919H155.919V149.162Z" fill="black"/>
<path d="M176.189 149.162H182.946V155.919H176.189V149.162Z" fill="black"/>
<path d="M203.216 149.162H209.973V155.919H203.216V149.162Z" fill="black"/>
<path d="M209.973 149.162H216.73V155.919H209.973V149.162Z" fill="black"/>
<path d="M216.73 149.162H223.487V155.919H216.73V149.162Z" fill="black"/>
<path d="M0.51355 155.919H7.27031V162.676H0.51355V155.919Z" fill="black"/>
<path d="M20.7838 155.919H27.5406V162.676H20.7838V155.919Z" fill="black"/>
<path d="M74.8379 155.919H81.5946V162.676H74.8379V155.919Z" fill="black"/>
<path d="M81.5946 155.919H88.3514V162.676H81.5946V155.919Z" fill="black"/>
<path d="M101.865 155.919H108.622V162.676H101.865V155.919Z" fill="black"/>
<path d="M115.378 155.919H122.135V162.676H115.378V155.919Z" fill="black"/>
<path d="M135.649 155.919H142.405V162.676H135.649V155.919Z" fill="black"/>
<path d="M149.162 155.919H155.919V162.676H149.162V155.919Z" fill="black"/>
<path d="M155.919 155.919H162.676V162.676H155.919V155.919Z" fill="black"/>
<path d="M162.676 155.919H169.432V162.676H162.676V155.919Z" fill="black"/>
<path d="M182.946 155.919H189.703V162.676H182.946V155.919Z" fill="black"/>
<path d="M189.703 155.919H196.46V162.676H189.703V155.919Z" fill="black"/>
<path d="M203.216 155.919H209.973V162.676H203.216V155.919Z" fill="black"/>
<path d="M216.73 155.919H223.487V162.676H216.73V155.919Z" fill="black"/>
<path d="M0.51355 162.676H7.27031V169.432H0.51355V162.676Z" fill="black"/>
<path d="M7.27031 162.676H14.0271V169.432H7.27031V162.676Z" fill="black"/>
<path d="M14.0271 162.676H20.7838V169.432H14.0271V162.676Z" fill="black"/>
<path d="M20.7838 162.676H27.5406V169.432H20.7838V162.676Z" fill="black"/>
<path d="M27.5406 162.676H34.2973V169.432H27.5406V162.676Z" fill="black"/>
<path d="M41.0541 162.676H47.8108V169.432H41.0541V162.676Z" fill="black"/>
<path d="M61.3244 162.676H68.0811V169.432H61.3244V162.676Z" fill="black"/>
<path d="M68.0811 162.676H74.8379V169.432H68.0811V162.676Z" fill="black"/>
<path d="M81.5946 162.676H88.3514V169.432H81.5946V162.676Z" fill="black"/>
<path d="M88.3514 162.676H95.1081V169.432H88.3514V162.676Z" fill="black"/>
<path d="M95.1081 162.676H101.865V169.432H95.1081V162.676Z" fill="black"/>
<path d="M101.865 162.676H108.622V169.432H101.865V162.676Z" fill="black"/>
<path d="M108.622 162.676H115.378V169.432H108.622V162.676Z" fill="black"/>
<path d="M115.378 162.676H122.135V169.432H115.378V162.676Z" fill="black"/>
<path d="M122.135 162.676H128.892V169.432H122.135V162.676Z" fill="black"/>
<path d="M128.892 162.676H135.649V169.432H128.892V162.676Z" fill="black"/>
<path d="M135.649 162.676H142.405V169.432H135.649V162.676Z" fill="black"/>
<path d="M155.919 162.676H162.676V169.432H155.919V162.676Z" fill="black"/>
<path d="M162.676 162.676H169.432V169.432H162.676V162.676Z" fill="black"/>
<path d="M169.432 162.676H176.189V169.432H169.432V162.676Z" fill="black"/>
<path d="M176.189 162.676H182.946V169.432H176.189V162.676Z" fill="black"/>
<path d="M182.946 162.676H189.703V169.432H182.946V162.676Z" fill="black"/>
<path d="M189.703 162.676H196.46V169.432H189.703V162.676Z" fill="black"/>
<path d="M54.5676 169.432H61.3244V176.189H54.5676V169.432Z" fill="black"/>
<path d="M61.3244 169.432H68.0811V176.189H61.3244V169.432Z" fill="black"/>
<path d="M88.3514 169.432H95.1081V176.189H88.3514V169.432Z" fill="black"/>
<path d="M101.865 169.432H108.622V176.189H101.865V169.432Z" fill="black"/>
<path d="M108.622 169.432H115.378V176.189H108.622V169.432Z" fill="black"/>
<path d="M122.135 169.432H128.892V176.189H122.135V169.432Z" fill="black"/>
<path d="M142.405 169.432H149.162V176.189H142.405V169.432Z" fill="black"/>
<path d="M162.676 169.432H169.432V176.189H162.676V169.432Z" fill="black"/>
<path d="M189.703 169.432H196.46V176.189H189.703V169.432Z" fill="black"/>
<path d="M203.216 169.432H209.973V176.189H203.216V169.432Z" fill="black"/>
<path d="M209.973 169.432H216.73V176.189H209.973V169.432Z" fill="black"/>
<path d="M0.51355 176.189H7.27031V182.946H0.51355V176.189Z" fill="black"/>
<path d="M7.27031 176.189H14.0271V182.946H7.27031V176.189Z" fill="black"/>
<path d="M14.0271 176.189H20.7838V182.946H14.0271V176.189Z" fill="black"/>
<path d="M20.7838 176.189H27.5406V182.946H20.7838V176.189Z" fill="black"/>
<path d="M27.5406 176.189H34.2973V182.946H27.5406V176.189Z" fill="black"/>
<path d="M34.2973 176.189H41.0541V182.946H34.2973V176.189Z" fill="black"/>
<path d="M41.0541 176.189H47.8108V182.946H41.0541V176.189Z" fill="black"/>
<path d="M54.5676 176.189H61.3244V182.946H54.5676V176.189Z" fill="black"/>
<path d="M61.3244 176.189H68.0811V182.946H61.3244V176.189Z" fill="black"/>
<path d="M74.8379 176.189H81.5946V182.946H74.8379V176.189Z" fill="black"/>
<path d="M88.3514 176.189H95.1081V182.946H88.3514V176.189Z" fill="black"/>
<path d="M128.892 176.189H135.649V182.946H128.892V176.189Z" fill="black"/>
<path d="M155.919 176.189H162.676V182.946H155.919V176.189Z" fill="black"/>
<path d="M162.676 176.189H169.432V182.946H162.676V176.189Z" fill="black"/>
<path d="M176.189 176.189H182.946V182.946H176.189V176.189Z" fill="black"/>
<path d="M189.703 176.189H196.46V182.946H189.703V176.189Z" fill="black"/>
<path d="M203.216 176.189H209.973V182.946H203.216V176.189Z" fill="black"/>
<path d="M0.51355 182.946H7.27031V189.703H0.51355V182.946Z" fill="black"/>
<path d="M41.0541 182.946H47.8108V189.703H41.0541V182.946Z" fill="black"/>
<path d="M68.0811 182.946H74.8379V189.703H68.0811V182.946Z" fill="black"/>
<path d="M108.622 182.946H115.378V189.703H108.622V182.946Z" fill="black"/>
<path d="M142.405 182.946H149.162V189.703H142.405V182.946Z" fill="black"/>
<path d="M149.162 182.946H155.919V189.703H149.162V182.946Z" fill="black"/>
<path d="M155.919 182.946H162.676V189.703H155.919V182.946Z" fill="black"/>
<path d="M162.676 182.946H169.432V189.703H162.676V182.946Z" fill="black"/>
<path d="M189.703 182.946H196.46V189.703H189.703V182.946Z" fill="black"/>
<path d="M196.46 182.946H203.216V189.703H196.46V182.946Z" fill="black"/>
<path d="M203.216 182.946H209.973V189.703H203.216V182.946Z" fill="black"/>
<path d="M209.973 182.946H216.73V189.703H209.973V182.946Z" fill="black"/>
<path d="M0.51355 189.703H7.27031V196.459H0.51355V189.703Z" fill="black"/>
<path d="M14.0271 189.703H20.7838V196.459H14.0271V189.703Z" fill="black"/>
<path d="M20.7838 189.703H27.5406V196.459H20.7838V189.703Z" fill="black"/>
<path d="M27.5406 189.703H34.2973V196.459H27.5406V189.703Z" fill="black"/>
<path d="M41.0541 189.703H47.8108V196.459H41.0541V189.703Z" fill="black"/>
<path d="M54.5676 189.703H61.3244V196.459H54.5676V189.703Z" fill="black"/>
<path d="M74.8379 189.703H81.5946V196.459H74.8379V189.703Z" fill="black"/>
<path d="M88.3514 189.703H95.1081V196.459H88.3514V189.703Z" fill="black"/>
<path d="M115.378 189.703H122.135V196.459H115.378V189.703Z" fill="black"/>
<path d="M122.135 189.703H128.892V196.459H122.135V189.703Z" fill="black"/>
<path d="M128.892 189.703H135.649V196.459H128.892V189.703Z" fill="black"/>
<path d="M135.649 189.703H142.405V196.459H135.649V189.703Z" fill="black"/>
<path d="M142.405 189.703H149.162V196.459H142.405V189.703Z" fill="black"/>
<path d="M149.162 189.703H155.919V196.459H149.162V189.703Z" fill="black"/>
<path d="M155.919 189.703H162.676V196.459H155.919V189.703Z" fill="black"/>
<path d="M162.676 189.703H169.432V196.459H162.676V189.703Z" fill="black"/>
<path d="M169.432 189.703H176.189V196.459H169.432V189.703Z" fill="black"/>
<path d="M176.189 189.703H182.946V196.459H176.189V189.703Z" fill="black"/>
<path d="M182.946 189.703H189.703V196.459H182.946V189.703Z" fill="black"/>
<path d="M189.703 189.703H196.46V196.459H189.703V189.703Z" fill="black"/>
<path d="M209.973 189.703H216.73V196.459H209.973V189.703Z" fill="black"/>
<path d="M0.51355 196.459H7.27031V203.216H0.51355V196.459Z" fill="black"/>
<path d="M14.0271 196.459H20.7838V203.216H14.0271V196.459Z" fill="black"/>
<path d="M20.7838 196.459H27.5406V203.216H20.7838V196.459Z" fill="black"/>
<path d="M27.5406 196.459H34.2973V203.216H27.5406V196.459Z" fill="black"/>
<path d="M41.0541 196.459H47.8108V203.216H41.0541V196.459Z" fill="black"/>
<path d="M54.5676 196.459H61.3244V203.216H54.5676V196.459Z" fill="black"/>
<path d="M61.3244 196.459H68.0811V203.216H61.3244V196.459Z" fill="black"/>
<path d="M68.0811 196.459H74.8379V203.216H68.0811V196.459Z" fill="black"/>
<path d="M74.8379 196.459H81.5946V203.216H74.8379V196.459Z" fill="black"/>
<path d="M81.5946 196.459H88.3514V203.216H81.5946V196.459Z" fill="black"/>
<path d="M88.3514 196.459H95.1081V203.216H88.3514V196.459Z" fill="black"/>
<path d="M95.1081 196.459H101.865V203.216H95.1081V196.459Z" fill="black"/>
<path d="M101.865 196.459H108.622V203.216H101.865V196.459Z" fill="black"/>
<path d="M108.622 196.459H115.378V203.216H108.622V196.459Z" fill="black"/>
<path d="M128.892 196.459H135.649V203.216H128.892V196.459Z" fill="black"/>
<path d="M135.649 196.459H142.405V203.216H135.649V196.459Z" fill="black"/>
<path d="M142.405 196.459H149.162V203.216H142.405V196.459Z" fill="black"/>
<path d="M149.162 196.459H155.919V203.216H149.162V196.459Z" fill="black"/>
<path d="M169.432 196.459H176.189V203.216H169.432V196.459Z" fill="black"/>
<path d="M182.946 196.459H189.703V203.216H182.946V196.459Z" fill="black"/>
<path d="M196.46 196.459H203.216V203.216H196.46V196.459Z" fill="black"/>
<path d="M203.216 196.459H209.973V203.216H203.216V196.459Z" fill="black"/>
<path d="M209.973 196.459H216.73V203.216H209.973V196.459Z" fill="black"/>
<path d="M0.51355 203.216H7.27031V209.973H0.51355V203.216Z" fill="black"/>
<path d="M14.0271 203.216H20.7838V209.973H14.0271V203.216Z" fill="black"/>
<path d="M20.7838 203.216H27.5406V209.973H20.7838V203.216Z" fill="black"/>
<path d="M27.5406 203.216H34.2973V209.973H27.5406V203.216Z" fill="black"/>
<path d="M41.0541 203.216H47.8108V209.973H41.0541V203.216Z" fill="black"/>
<path d="M61.3244 203.216H68.0811V209.973H61.3244V203.216Z" fill="black"/>
<path d="M95.1081 203.216H101.865V209.973H95.1081V203.216Z" fill="black"/>
<path d="M101.865 203.216H108.622V209.973H101.865V203.216Z" fill="black"/>
<path d="M108.622 203.216H115.378V209.973H108.622V203.216Z" fill="black"/>
<path d="M115.378 203.216H122.135V209.973H115.378V203.216Z" fill="black"/>
<path d="M122.135 203.216H128.892V209.973H122.135V203.216Z" fill="black"/>
<path d="M135.649 203.216H142.405V209.973H135.649V203.216Z" fill="black"/>
<path d="M149.162 203.216H155.919V209.973H149.162V203.216Z" fill="black"/>
<path d="M189.703 203.216H196.46V209.973H189.703V203.216Z" fill="black"/>
<path d="M196.46 203.216H203.216V209.973H196.46V203.216Z" fill="black"/>
<path d="M203.216 203.216H209.973V209.973H203.216V203.216Z" fill="black"/>
<path d="M209.973 203.216H216.73V209.973H209.973V203.216Z" fill="black"/>
<path d="M216.73 203.216H223.487V209.973H216.73V203.216Z" fill="black"/>
<path d="M0.51355 209.973H7.27031V216.73H0.51355V209.973Z" fill="black"/>
<path d="M41.0541 209.973H47.8108V216.73H41.0541V209.973Z" fill="black"/>
<path d="M81.5946 209.973H88.3514V216.73H81.5946V209.973Z" fill="black"/>
<path d="M88.3514 209.973H95.1081V216.73H88.3514V209.973Z" fill="black"/>
<path d="M95.1081 209.973H101.865V216.73H95.1081V209.973Z" fill="black"/>
<path d="M101.865 209.973H108.622V216.73H101.865V209.973Z" fill="black"/>
<path d="M128.892 209.973H135.649V216.73H128.892V209.973Z" fill="black"/>
<path d="M135.649 209.973H142.405V216.73H135.649V209.973Z" fill="black"/>
<path d="M142.405 209.973H149.162V216.73H142.405V209.973Z" fill="black"/>
<path d="M169.432 209.973H176.189V216.73H169.432V209.973Z" fill="black"/>
<path d="M196.46 209.973H203.216V216.73H196.46V209.973Z" fill="black"/>
<path d="M203.216 209.973H209.973V216.73H203.216V209.973Z" fill="black"/>
<path d="M209.973 209.973H216.73V216.73H209.973V209.973Z" fill="black"/>
<path d="M216.73 209.973H223.487V216.73H216.73V209.973Z" fill="black"/>
<path d="M0.51355 216.73H7.27031V223.486H0.51355V216.73Z" fill="black"/>
<path d="M7.27031 216.73H14.0271V223.486H7.27031V216.73Z" fill="black"/>
<path d="M14.0271 216.73H20.7838V223.486H14.0271V216.73Z" fill="black"/>
<path d="M20.7838 216.73H27.5406V223.486H20.7838V216.73Z" fill="black"/>
<path d="M27.5406 216.73H34.2973V223.486H27.5406V216.73Z" fill="black"/>
<path d="M34.2973 216.73H41.0541V223.486H34.2973V216.73Z" fill="black"/>
<path d="M41.0541 216.73H47.8108V223.486H41.0541V216.73Z" fill="black"/>
<path d="M61.3244 216.73H68.0811V223.486H61.3244V216.73Z" fill="black"/>
<path d="M68.0811 216.73H74.8379V223.486H68.0811V216.73Z" fill="black"/>
<path d="M81.5946 216.73H88.3514V223.486H81.5946V216.73Z" fill="black"/>
<path d="M88.3514 216.73H95.1081V223.486H88.3514V216.73Z" fill="black"/>
<path d="M122.135 216.73H128.892V223.486H122.135V216.73Z" fill="black"/>
<path d="M135.649 216.73H142.405V223.486H135.649V216.73Z" fill="black"/>
<path d="M142.405 216.73H149.162V223.486H142.405V216.73Z" fill="black"/>
<path d="M155.919 216.73H162.676V223.486H155.919V216.73Z" fill="black"/>
<path d="M162.676 216.73H169.432V223.486H162.676V216.73Z" fill="black"/>
<path d="M169.432 216.73H176.189V223.486H169.432V216.73Z" fill="black"/>
<path d="M189.703 216.73H196.46V223.486H189.703V216.73Z" fill="black"/>
<path d="M196.46 216.73H203.216V223.486H196.46V216.73Z" fill="black"/>
<path d="M7.27031 0.513519H0.51355V7.27028M7.27031 0.513519V7.27028M7.27031 0.513519H14.0271M7.27031 7.27028H0.51355M7.27031 7.27028H14.0271M7.27031 7.27028V14.027M0.51355 7.27028V14.027M14.0271 0.513519V7.27028M14.0271 0.513519H20.7838M14.0271 7.27028H20.7838M20.7838 0.513519V7.27028M20.7838 0.513519H27.5406M20.7838 7.27028H27.5406M27.5406 0.513519V7.27028M27.5406 0.513519H34.2973M27.5406 7.27028H34.2973M34.2973 0.513519V7.27028M34.2973 0.513519H41.0541M34.2973 7.27028H41.0541M41.0541 0.513519V7.27028M41.0541 0.513519H47.8108V7.27028M41.0541 7.27028H47.8108M41.0541 7.27028V14.027M47.8108 7.27028V14.027M128.892 0.513519H122.135V7.27028M128.892 0.513519V7.27028M128.892 0.513519H135.649V7.27028M128.892 7.27028H122.135M128.892 7.27028H135.649M128.892 7.27028V14.027M122.135 7.27028V14.027M135.649 7.27028H142.405M135.649 7.27028V14.027M155.919 7.27028V0.513519H149.162V7.27028M155.919 7.27028H149.162M155.919 7.27028V14.027M149.162 7.27028H142.405M149.162 7.27028V14.027M169.432 7.27028V0.513519H162.676V7.27028M169.432 7.27028H162.676M169.432 7.27028V14.027M162.676 7.27028V14.027M182.946 0.513519H176.189V7.27028M182.946 0.513519V7.27028M182.946 0.513519H189.703M182.946 7.27028H176.189M182.946 7.27028H189.703M182.946 7.27028V14.027M176.189 7.27028V14.027M189.703 0.513519V7.27028M189.703 0.513519H196.459M189.703 7.27028H196.459M196.459 0.513519V7.27028M196.459 0.513519H203.216M196.459 7.27028H203.216M203.216 0.513519V7.27028M203.216 0.513519H209.973M203.216 7.27028H209.973M209.973 0.513519V7.27028M209.973 0.513519H216.73M209.973 7.27028H216.73M216.73 0.513519V7.27028M216.73 0.513519H223.487V7.27028M216.73 7.27028H223.487M216.73 7.27028V14.027M223.487 7.27028V14.027M7.27031 14.027H0.51355M7.27031 14.027V20.7838M0.51355 14.027V20.7838M47.8108 14.027H41.0541M47.8108 14.027V20.7838M41.0541 14.027V20.7838M95.1081 14.027V7.27028H88.3514V14.027H95.1081ZM95.1081 14.027H101.865M95.1081 14.027V20.7838M108.622 14.027V7.27028H101.865V14.027M108.622 14.027H101.865M108.622 14.027V20.7838H101.865M101.865 14.027V20.7838M128.892 14.027H122.135M128.892 14.027V20.7838M128.892 14.027H135.649M122.135 14.027H115.378V20.7838H122.135M122.135 14.027V20.7838M142.405 7.27028V14.027M142.405 14.027H135.649M142.405 14.027H149.162M142.405 14.027V20.7838M135.649 14.027V20.7838M149.162 14.027H155.919M149.162 14.027V20.7838M155.919 14.027H162.676M155.919 14.027V20.7838M169.432 14.027H162.676M169.432 14.027V20.7838M162.676 14.027V20.7838M182.946 14.027H176.189M182.946 14.027V20.7838M176.189 14.027V20.7838M223.487 14.027H216.73M223.487 14.027V20.7838M216.73 14.027V20.7838M7.27031 20.7838H0.51355M7.27031 20.7838V27.5405M0.51355 20.7838V27.5405M20.7838 14.027H14.0271V20.7838M20.7838 14.027V20.7838M20.7838 14.027H27.5406M20.7838 20.7838H14.0271M20.7838 20.7838H27.5406M20.7838 20.7838V27.5405M14.0271 20.7838V27.5405M27.5406 14.027V20.7838M27.5406 14.027H34.2973V20.7838M27.5406 20.7838H34.2973M27.5406 20.7838V27.5405M34.2973 20.7838V27.5405M47.8108 20.7838H41.0541M47.8108 20.7838V27.5405M41.0541 20.7838V27.5405M61.3244 14.027H54.5676V20.7838M61.3244 14.027V20.7838M61.3244 14.027H68.0811M61.3244 20.7838H54.5676M61.3244 20.7838H68.0811M61.3244 20.7838V27.5405M54.5676 20.7838V27.5405H61.3244M68.0811 14.027V20.7838M68.0811 14.027H74.8379M68.0811 20.7838H74.8379M68.0811 20.7838V27.5405M74.8379 14.027V20.7838M74.8379 14.027H81.5946V20.7838H74.8379M74.8379 20.7838V27.5405M101.865 20.7838H95.1081M95.1081 20.7838H88.3514V27.5405M95.1081 20.7838V27.5405M122.135 20.7838H128.892M122.135 20.7838V27.5405M128.892 20.7838H135.649M128.892 20.7838V27.5405M135.649 20.7838V27.5405M149.162 20.7838H142.405M149.162 20.7838V27.5405M142.405 20.7838V27.5405M162.676 20.7838H155.919M162.676 20.7838H169.432M162.676 20.7838V27.5405M155.919 20.7838V27.5405M169.432 20.7838V27.5405H162.676M182.946 20.7838H176.189M182.946 20.7838V27.5405M176.189 20.7838V27.5405M196.459 14.027H189.703V20.7838M196.459 14.027V20.7838M196.459 14.027H203.216M196.459 20.7838H189.703M196.459 20.7838H203.216M196.459 20.7838V27.5405M189.703 20.7838V27.5405M203.216 14.027V20.7838M203.216 14.027H209.973V20.7838M203.216 20.7838H209.973M203.216 20.7838V27.5405M209.973 20.7838V27.5405M223.487 20.7838H216.73M223.487 20.7838V27.5405M216.73 20.7838V27.5405M7.27031 27.5405H0.51355M7.27031 27.5405V34.2973M0.51355 27.5405V34.2973M20.7838 27.5405H14.0271M20.7838 27.5405H27.5406M20.7838 27.5405V34.2973M14.0271 27.5405V34.2973H20.7838M27.5406 27.5405H34.2973M27.5406 27.5405V34.2973M34.2973 27.5405V34.2973H27.5406M47.8108 27.5405H41.0541M47.8108 27.5405V34.2973M41.0541 27.5405V34.2973M61.3244 27.5405H68.0811M61.3244 27.5405V34.2973H68.0811M68.0811 27.5405H74.8379M68.0811 27.5405V34.2973M74.8379 27.5405V34.2973M74.8379 27.5405H81.5946V34.2973M95.1081 27.5405H88.3514M95.1081 27.5405V34.2973H88.3514M88.3514 27.5405V34.2973M128.892 27.5405H122.135M128.892 27.5405H135.649M128.892 27.5405V34.2973M122.135 27.5405H115.378V34.2973M122.135 27.5405V34.2973M135.649 27.5405H142.405M135.649 27.5405V34.2973H142.405M149.162 27.5405H142.405M149.162 27.5405V34.2973M149.162 27.5405H155.919M142.405 27.5405V34.2973M162.676 27.5405H155.919M162.676 27.5405V34.2973M155.919 27.5405V34.2973M182.946 27.5405H176.189M182.946 27.5405V34.2973M176.189 27.5405V34.2973M196.459 27.5405H189.703M196.459 27.5405H203.216M196.459 27.5405V34.2973M189.703 27.5405V34.2973H196.459M203.216 27.5405H209.973M203.216 27.5405V34.2973M209.973 27.5405V34.2973H203.216M223.487 27.5405H216.73M223.487 27.5405V34.2973M216.73 27.5405V34.2973M7.27031 34.2973H0.51355M7.27031 34.2973V41.0541M0.51355 34.2973V41.0541M20.7838 34.2973H27.5406M47.8108 34.2973H41.0541M47.8108 34.2973V41.0541M41.0541 34.2973V41.0541M68.0811 34.2973H74.8379M74.8379 34.2973H81.5946M81.5946 34.2973H88.3514M81.5946 34.2973V41.0541M88.3514 34.2973V41.0541M108.622 34.2973V27.5405H101.865V34.2973M108.622 34.2973H101.865M108.622 34.2973V41.0541M108.622 34.2973H115.378M101.865 34.2973V41.0541M122.135 34.2973H115.378M122.135 34.2973H128.892M122.135 34.2973V41.0541M115.378 34.2973V41.0541M128.892 34.2973V41.0541M142.405 34.2973H149.162M149.162 34.2973H155.919M149.162 34.2973V41.0541M155.919 34.2973H162.676M155.919 34.2973V41.0541M162.676 34.2973H169.432V41.0541M162.676 34.2973V41.0541M182.946 34.2973H176.189M182.946 34.2973V41.0541M176.189 34.2973V41.0541M196.459 34.2973H203.216M223.487 34.2973H216.73M223.487 34.2973V41.0541M216.73 34.2973V41.0541M7.27031 41.0541H0.51355M7.27031 41.0541V47.8108M7.27031 41.0541H14.0271M0.51355 41.0541V47.8108H7.27031M47.8108 41.0541H41.0541M47.8108 41.0541V47.8108H41.0541M41.0541 41.0541H34.2973M41.0541 41.0541V47.8108M88.3514 41.0541H81.5946M88.3514 41.0541V47.8108H81.5946V41.0541M108.622 41.0541H101.865M108.622 41.0541H115.378M108.622 41.0541V47.8108M101.865 41.0541H95.1081V47.8108H101.865M101.865 41.0541V47.8108M115.378 41.0541V47.8108H108.622M128.892 41.0541H122.135M128.892 41.0541V47.8108H122.135V41.0541M155.919 41.0541H149.162M155.919 41.0541V47.8108M149.162 41.0541V47.8108M169.432 41.0541H162.676M169.432 41.0541V47.8108H162.676M162.676 41.0541V47.8108M182.946 41.0541H176.189M182.946 41.0541V47.8108M182.946 41.0541H189.703M176.189 41.0541V47.8108H182.946M223.487 41.0541H216.73M223.487 41.0541V47.8108H216.73M216.73 41.0541H209.973M216.73 41.0541V47.8108M7.27031 47.8108H14.0271M14.0271 41.0541V47.8108M14.0271 41.0541H20.7838M14.0271 47.8108H20.7838M20.7838 41.0541V47.8108M20.7838 41.0541H27.5406M20.7838 47.8108H27.5406M27.5406 41.0541V47.8108M27.5406 41.0541H34.2973M27.5406 47.8108H34.2973M34.2973 41.0541V47.8108M34.2973 47.8108H41.0541M101.865 47.8108H108.622M101.865 47.8108V54.5676M108.622 47.8108V54.5676M142.405 47.8108V41.0541H135.649V47.8108M142.405 47.8108H135.649M142.405 47.8108V54.5676H135.649V47.8108M155.919 47.8108H149.162M155.919 47.8108V54.5676M155.919 47.8108H162.676M149.162 47.8108V54.5676H155.919M162.676 47.8108V54.5676M182.946 47.8108H189.703M189.703 41.0541V47.8108M189.703 41.0541H196.459M189.703 47.8108H196.459M196.459 41.0541V47.8108M196.459 41.0541H203.216M196.459 47.8108H203.216M203.216 41.0541V47.8108M203.216 41.0541H209.973M203.216 47.8108H209.973M209.973 41.0541V47.8108M209.973 47.8108H216.73M108.622 54.5676H101.865M108.622 54.5676V61.3243M108.622 54.5676H115.378V61.3243M101.865 54.5676H95.1081M101.865 54.5676V61.3243M155.919 54.5676H162.676M155.919 54.5676V61.3243M162.676 54.5676V61.3243M162.676 54.5676H169.432V61.3243M27.5406 54.5676H20.7838V61.3243H27.5406M27.5406 54.5676V61.3243M27.5406 54.5676H34.2973V61.3243M27.5406 61.3243H34.2973M34.2973 61.3243H41.0541M34.2973 61.3243V68.0811H41.0541M47.8108 54.5676H41.0541V61.3243M47.8108 54.5676V61.3243M47.8108 54.5676H54.5676V61.3243M47.8108 61.3243H41.0541M47.8108 61.3243H54.5676M41.0541 61.3243V68.0811M54.5676 61.3243H61.3244M54.5676 61.3243V68.0811H61.3244V61.3243M61.3244 61.3243H68.0811V54.5676H61.3244V61.3243ZM95.1081 54.5676H88.3514V61.3243M95.1081 54.5676V61.3243M95.1081 61.3243H88.3514M95.1081 61.3243H101.865M95.1081 61.3243V68.0811H88.3514M88.3514 61.3243H81.5946V68.0811M88.3514 61.3243V68.0811M101.865 61.3243H108.622M101.865 61.3243V68.0811M108.622 61.3243H115.378M108.622 61.3243V68.0811M115.378 61.3243V68.0811M115.378 61.3243H122.135M162.676 61.3243H155.919M162.676 61.3243H169.432M162.676 61.3243V68.0811M155.919 61.3243H149.162V68.0811M155.919 61.3243V68.0811M169.432 61.3243H176.189V68.0811M169.432 61.3243V68.0811M203.216 54.5676H196.459V61.3243M203.216 54.5676V61.3243M203.216 54.5676H209.973V61.3243M203.216 61.3243H196.459M203.216 61.3243H209.973M203.216 61.3243V68.0811M196.459 61.3243H189.703M196.459 61.3243V68.0811H189.703M209.973 61.3243V68.0811M7.27031 61.3243H0.51355V68.0811H7.27031M7.27031 61.3243V68.0811M7.27031 61.3243H14.0271V68.0811M7.27031 68.0811H14.0271M7.27031 68.0811V74.8378H14.0271M14.0271 68.0811V74.8378M41.0541 68.0811H47.8108V74.8378H41.0541V68.0811ZM88.3514 68.0811H81.5946M81.5946 68.0811H74.8379M81.5946 68.0811V74.8378M108.622 68.0811H101.865M108.622 68.0811H115.378M108.622 68.0811V74.8378M101.865 68.0811V74.8378M115.378 68.0811H122.135M115.378 68.0811V74.8378M122.135 61.3243V68.0811M122.135 61.3243H128.892V68.0811M122.135 68.0811H128.892M122.135 68.0811V74.8378M128.892 68.0811V74.8378M128.892 68.0811H135.649M142.405 68.0811V61.3243H135.649V68.0811M142.405 68.0811H135.649M142.405 68.0811H149.162M142.405 68.0811V74.8378H149.162V68.0811M135.649 68.0811V74.8378H128.892M155.919 68.0811H149.162M155.919 68.0811H162.676M155.919 68.0811V74.8378M162.676 68.0811V74.8378M162.676 68.0811H169.432M176.189 68.0811H169.432M176.189 68.0811V74.8378M176.189 68.0811H182.946M169.432 68.0811V74.8378M189.703 61.3243H182.946V68.0811M189.703 61.3243V68.0811M189.703 68.0811H182.946M189.703 68.0811V74.8378M182.946 68.0811V74.8378M209.973 68.0811H203.216M209.973 68.0811V74.8378M209.973 68.0811H216.73M203.216 68.0811V74.8378M14.0271 74.8378H20.7838V81.5946M14.0271 74.8378V81.5946H20.7838M74.8379 68.0811H68.0811V74.8378M74.8379 68.0811V74.8378M74.8379 74.8378H68.0811M74.8379 74.8378H81.5946M74.8379 74.8378V81.5946M68.0811 74.8378V81.5946M81.5946 74.8378H88.3514V81.5946M81.5946 74.8378V81.5946M108.622 74.8378H101.865M108.622 74.8378H115.378M108.622 74.8378V81.5946H115.378M101.865 74.8378H95.1081V81.5946M101.865 74.8378V81.5946M115.378 74.8378V81.5946M115.378 74.8378H122.135M128.892 74.8378H122.135M128.892 74.8378V81.5946M122.135 74.8378V81.5946M162.676 74.8378H155.919M162.676 74.8378H169.432M162.676 74.8378V81.5946M155.919 74.8378V81.5946M169.432 74.8378H176.189M169.432 74.8378V81.5946M176.189 74.8378H182.946M176.189 74.8378V81.5946M182.946 74.8378H189.703M182.946 74.8378V81.5946M189.703 74.8378V81.5946M189.703 74.8378H196.459V81.5946M209.973 74.8378H203.216M209.973 74.8378H216.73M209.973 74.8378V81.5946H203.216V74.8378M216.73 68.0811V74.8378M216.73 68.0811H223.487V74.8378H216.73M20.7838 81.5946H27.5406V88.3514M20.7838 81.5946V88.3514H27.5406M74.8379 81.5946H68.0811M74.8379 81.5946V88.3514M68.0811 81.5946V88.3514H74.8379M88.3514 81.5946H81.5946M88.3514 81.5946V88.3514H81.5946M81.5946 81.5946V88.3514M101.865 81.5946H95.1081M101.865 81.5946V88.3514M95.1081 81.5946V88.3514M115.378 81.5946H122.135M122.135 81.5946H128.892M122.135 81.5946V88.3514M128.892 81.5946V88.3514M162.676 81.5946H155.919M162.676 81.5946H169.432M162.676 81.5946V88.3514M155.919 81.5946H149.162M155.919 81.5946V88.3514M176.189 81.5946H169.432M176.189 81.5946H182.946M176.189 81.5946V88.3514M169.432 81.5946V88.3514M182.946 81.5946H189.703M182.946 81.5946V88.3514M189.703 81.5946H196.459M189.703 81.5946V88.3514M196.459 81.5946V88.3514M27.5406 88.3514H34.2973M27.5406 88.3514V95.1081M41.0541 81.5946H34.2973V88.3514M41.0541 81.5946V88.3514M41.0541 81.5946H47.8108M41.0541 88.3514H34.2973M41.0541 88.3514H47.8108M34.2973 88.3514V95.1081M47.8108 81.5946V88.3514M47.8108 81.5946H54.5676M47.8108 88.3514H54.5676M47.8108 88.3514V95.1081M54.5676 81.5946V88.3514M54.5676 81.5946H61.3244V88.3514M54.5676 88.3514H61.3244M54.5676 88.3514V95.1081M61.3244 88.3514V95.1081M74.8379 88.3514H81.5946M74.8379 88.3514V95.1081M81.5946 88.3514V95.1081M101.865 88.3514H95.1081M101.865 88.3514V95.1081H95.1081V88.3514M128.892 88.3514H122.135M128.892 88.3514V95.1081M122.135 88.3514H115.378V95.1081H122.135M122.135 88.3514V95.1081M149.162 81.5946H142.405V88.3514M149.162 81.5946V88.3514M149.162 88.3514H142.405M149.162 88.3514H155.919M149.162 88.3514V95.1081M142.405 88.3514V95.1081H149.162M155.919 88.3514V95.1081M155.919 88.3514H162.676M169.432 88.3514H162.676M169.432 88.3514H176.189M169.432 88.3514V95.1081M162.676 88.3514V95.1081M182.946 88.3514H176.189M182.946 88.3514H189.703M176.189 88.3514V95.1081M189.703 88.3514H196.459M196.459 88.3514H203.216V95.1081M196.459 88.3514V95.1081M14.0271 95.1081V88.3514H7.27031V95.1081H14.0271ZM14.0271 95.1081H20.7838M14.0271 95.1081V101.865M34.2973 95.1081H27.5406M34.2973 95.1081H41.0541M34.2973 95.1081V101.865M27.5406 95.1081H20.7838M27.5406 95.1081V101.865M54.5676 95.1081H47.8108M54.5676 95.1081H61.3244M54.5676 95.1081V101.865M47.8108 95.1081H41.0541M47.8108 95.1081V101.865M61.3244 95.1081V101.865H54.5676M81.5946 95.1081H74.8379M81.5946 95.1081V101.865M74.8379 95.1081V101.865M122.135 95.1081H128.892M122.135 95.1081V101.865M128.892 95.1081V101.865M128.892 95.1081H135.649V101.865M149.162 95.1081H155.919M155.919 95.1081H162.676M162.676 95.1081H169.432M162.676 95.1081V101.865M176.189 95.1081H169.432M176.189 95.1081H182.946M176.189 95.1081V101.865M169.432 95.1081V101.865M203.216 95.1081H196.459M203.216 95.1081V101.865M203.216 95.1081H209.973M196.459 95.1081H189.703M196.459 95.1081V101.865M209.973 95.1081H216.73V88.3514H209.973V95.1081ZM209.973 95.1081V101.865M20.7838 95.1081V101.865M20.7838 101.865H14.0271M20.7838 101.865H27.5406M20.7838 101.865V108.622M14.0271 101.865V108.622M27.5406 101.865H34.2973M27.5406 101.865V108.622M41.0541 95.1081V101.865M41.0541 101.865H34.2973M41.0541 101.865H47.8108M41.0541 101.865V108.622M34.2973 101.865V108.622M47.8108 101.865H54.5676M81.5946 101.865H74.8379M81.5946 101.865V108.622M81.5946 101.865H88.3514M74.8379 101.865V108.622M128.892 101.865H122.135M128.892 101.865H135.649M128.892 101.865V108.622M122.135 101.865H115.378M122.135 101.865V108.622M135.649 101.865V108.622H128.892M169.432 101.865H162.676M169.432 101.865H176.189M169.432 101.865V108.622H176.189M162.676 101.865H155.919V108.622H162.676V101.865ZM182.946 95.1081V101.865M182.946 95.1081H189.703M182.946 101.865H176.189M182.946 101.865H189.703M182.946 101.865V108.622M176.189 101.865V108.622M189.703 95.1081V101.865M189.703 101.865H196.459M189.703 101.865V108.622M196.459 101.865H203.216M196.459 101.865V108.622M203.216 101.865H209.973M203.216 101.865V108.622M209.973 101.865V108.622M209.973 101.865H216.73M20.7838 108.622H14.0271M20.7838 108.622V115.378M20.7838 108.622H27.5406M14.0271 108.622V115.378M34.2973 108.622H27.5406M34.2973 108.622H41.0541M27.5406 108.622V115.378M41.0541 108.622H47.8108V115.378H41.0541V108.622ZM81.5946 108.622H74.8379M81.5946 108.622H88.3514M74.8379 108.622H68.0811M74.8379 108.622V115.378M88.3514 101.865V108.622M88.3514 101.865H95.1081M88.3514 108.622H95.1081M88.3514 108.622V115.378M95.1081 101.865V108.622M95.1081 101.865H101.865M95.1081 108.622H101.865M95.1081 108.622V115.378M101.865 101.865V108.622M101.865 101.865H108.622M101.865 108.622H108.622M108.622 101.865V108.622M108.622 101.865H115.378M108.622 108.622H115.378M108.622 108.622V115.378H115.378M115.378 101.865V108.622M115.378 108.622H122.135M115.378 108.622V115.378M122.135 108.622H128.892M122.135 108.622V115.378M128.892 108.622V115.378M176.189 108.622H182.946M176.189 108.622V115.378M189.703 108.622H182.946M189.703 108.622H196.459M189.703 108.622V115.378M182.946 108.622V115.378M196.459 108.622H203.216M196.459 108.622V115.378M203.216 108.622H209.973M209.973 108.622H216.73M209.973 108.622V115.378M216.73 101.865V108.622M216.73 101.865H223.487V108.622H216.73M216.73 108.622V115.378M20.7838 115.378H14.0271M20.7838 115.378H27.5406M20.7838 115.378V122.135M14.0271 115.378V122.135M27.5406 115.378V122.135H20.7838M61.3244 108.622H54.5676V115.378M61.3244 108.622V115.378M61.3244 108.622H68.0811M61.3244 115.378H54.5676M61.3244 115.378H68.0811M61.3244 115.378V122.135M54.5676 115.378V122.135M68.0811 108.622V115.378M68.0811 115.378H74.8379M74.8379 115.378H81.5946M74.8379 115.378V122.135M95.1081 115.378H88.3514M95.1081 115.378H101.865V122.135M95.1081 115.378V122.135H101.865M88.3514 115.378H81.5946M88.3514 115.378V122.135H81.5946M115.378 115.378H122.135M115.378 115.378V122.135H122.135M128.892 115.378H122.135M128.892 115.378V122.135M122.135 115.378V122.135M182.946 115.378H176.189M182.946 115.378H189.703M182.946 115.378V122.135M176.189 115.378H169.432M176.189 115.378V122.135M189.703 115.378H196.459M189.703 115.378V122.135M196.459 115.378V122.135M196.459 115.378H203.216V122.135M216.73 115.378H209.973M216.73 115.378V122.135M216.73 115.378H223.487V122.135M209.973 115.378V122.135M7.27031 122.135V115.378H0.51355V122.135M7.27031 122.135H0.51355M7.27031 122.135V128.892M0.51355 122.135V128.892M20.7838 122.135H14.0271M20.7838 122.135V128.892M14.0271 122.135V128.892M61.3244 122.135H54.5676M61.3244 122.135H68.0811V128.892M61.3244 122.135V128.892M54.5676 122.135H47.8108M54.5676 122.135V128.892M81.5946 115.378V122.135M81.5946 122.135H74.8379M81.5946 122.135V128.892M74.8379 122.135V128.892M101.865 122.135H108.622V128.892M101.865 122.135V128.892M122.135 122.135H128.892M122.135 122.135V128.892M128.892 122.135V128.892M142.405 122.135V115.378H135.649V122.135M142.405 122.135H135.649M142.405 122.135V128.892H135.649M135.649 122.135V128.892M155.919 122.135V115.378H149.162V122.135H155.919ZM155.919 122.135H162.676M155.919 122.135V128.892M169.432 115.378H162.676V122.135M169.432 115.378V122.135M169.432 122.135H162.676M169.432 122.135H176.189M162.676 122.135V128.892M176.189 122.135H182.946M182.946 122.135H189.703M182.946 122.135V128.892H189.703M196.459 122.135H189.703M196.459 122.135H203.216M196.459 122.135V128.892M189.703 122.135V128.892M203.216 122.135V128.892M203.216 122.135H209.973M216.73 122.135H209.973M216.73 122.135H223.487M216.73 122.135V128.892M209.973 122.135V128.892M223.487 122.135V128.892H216.73M7.27031 128.892H0.51355M7.27031 128.892V135.649M0.51355 128.892V135.649M20.7838 128.892H14.0271M20.7838 128.892V135.649H14.0271V128.892M47.8108 122.135H41.0541V128.892M47.8108 122.135V128.892M47.8108 128.892H41.0541M47.8108 128.892H54.5676M47.8108 128.892V135.649M41.0541 128.892H34.2973V135.649H41.0541M41.0541 128.892V135.649M54.5676 128.892V135.649M54.5676 128.892H61.3244M68.0811 128.892H61.3244M68.0811 128.892V135.649H61.3244M61.3244 128.892V135.649M81.5946 128.892H74.8379M81.5946 128.892V135.649M81.5946 128.892H88.3514V135.649M74.8379 128.892V135.649H81.5946M108.622 128.892H101.865M108.622 128.892V135.649M101.865 128.892H95.1081V135.649M101.865 128.892V135.649M128.892 128.892H122.135M128.892 128.892H135.649M128.892 128.892V135.649M122.135 128.892H115.378V135.649M122.135 128.892V135.649M135.649 128.892V135.649M162.676 128.892H155.919M162.676 128.892V135.649M162.676 128.892H169.432M155.919 128.892H149.162V135.649M155.919 128.892V135.649M189.703 128.892H196.459M196.459 128.892H203.216M196.459 128.892V135.649M203.216 128.892H209.973M203.216 128.892V135.649M209.973 128.892H216.73M209.973 128.892V135.649H203.216M7.27031 135.649H0.51355M7.27031 135.649V142.405M0.51355 135.649V142.405M41.0541 135.649H47.8108M41.0541 135.649V142.405M54.5676 135.649H47.8108M54.5676 135.649H61.3244M47.8108 135.649V142.405H41.0541M81.5946 135.649H88.3514M88.3514 135.649H95.1081M88.3514 135.649V142.405M101.865 135.649H95.1081M101.865 135.649H108.622M101.865 135.649V142.405M95.1081 135.649V142.405M108.622 135.649V142.405M122.135 135.649H115.378M122.135 135.649V142.405M122.135 135.649H128.892M115.378 135.649V142.405M135.649 135.649H128.892M135.649 135.649V142.405M128.892 135.649V142.405M155.919 135.649H149.162M155.919 135.649H162.676M155.919 135.649V142.405M149.162 135.649V142.405M162.676 135.649H169.432M169.432 128.892V135.649M169.432 128.892H176.189V135.649M169.432 135.649H176.189M176.189 135.649H182.946M176.189 135.649V142.405M203.216 135.649H196.459M203.216 135.649V142.405M196.459 135.649V142.405M7.27031 142.405H0.51355M7.27031 142.405V149.162M7.27031 142.405H14.0271V149.162H7.27031M0.51355 142.405V149.162M41.0541 142.405H34.2973M41.0541 142.405V149.162M95.1081 142.405H88.3514M95.1081 142.405V149.162M88.3514 142.405V149.162M108.622 142.405H101.865M108.622 142.405V149.162M108.622 142.405H115.378M101.865 142.405V149.162H108.622M122.135 142.405H115.378M122.135 142.405H128.892M115.378 142.405V149.162H108.622M128.892 142.405H135.649M128.892 142.405V149.162M135.649 142.405V149.162M155.919 142.405H149.162M155.919 142.405V149.162M149.162 142.405H142.405V149.162M149.162 142.405V149.162M182.946 135.649V142.405M182.946 135.649H189.703V142.405M182.946 142.405H176.189M182.946 142.405H189.703M182.946 142.405V149.162M176.189 142.405V149.162M189.703 142.405V149.162M189.703 142.405H196.459M203.216 142.405H196.459M203.216 142.405H209.973V149.162M203.216 142.405V149.162M196.459 142.405V149.162H189.703M7.27031 149.162H0.51355M7.27031 149.162V155.919M0.51355 149.162V155.919M34.2973 142.405H27.5406V149.162M34.2973 142.405V149.162M34.2973 149.162H27.5406M34.2973 149.162H41.0541M34.2973 149.162V155.919M27.5406 149.162V155.919M41.0541 149.162V155.919M41.0541 149.162H47.8108V155.919H41.0541M61.3244 142.405H54.5676V149.162H61.3244M61.3244 142.405V149.162M61.3244 142.405H68.0811M61.3244 149.162H68.0811M61.3244 149.162V155.919H68.0811M68.0811 142.405V149.162M68.0811 142.405H74.8379V149.162M68.0811 149.162H74.8379M68.0811 149.162V155.919M74.8379 149.162V155.919M95.1081 149.162H88.3514M95.1081 149.162V155.919H88.3514M88.3514 149.162H81.5946V155.919M88.3514 149.162V155.919M135.649 149.162H128.892M135.649 149.162H142.405M135.649 149.162V155.919M128.892 149.162H122.135V155.919M128.892 149.162V155.919H122.135M149.162 149.162H142.405M149.162 149.162H155.919M149.162 149.162V155.919M142.405 149.162V155.919M155.919 149.162V155.919M155.919 149.162H162.676M162.676 149.162H169.432V142.405H162.676V149.162ZM162.676 149.162V155.919M182.946 149.162H176.189M182.946 149.162H189.703M182.946 149.162V155.919M176.189 149.162V155.919H182.946M209.973 149.162H203.216M209.973 149.162V155.919M209.973 149.162H216.73M203.216 149.162V155.919M7.27031 155.919H0.51355M7.27031 155.919V162.676M0.51355 155.919V162.676M34.2973 155.919H27.5406M34.2973 155.919H41.0541M27.5406 155.919H20.7838V162.676M27.5406 155.919V162.676M68.0811 155.919H74.8379M74.8379 155.919H81.5946M74.8379 155.919V162.676M88.3514 155.919H81.5946M88.3514 155.919V162.676M81.5946 155.919V162.676M122.135 155.919H115.378V162.676M122.135 155.919V162.676M142.405 155.919H135.649M142.405 155.919V162.676M135.649 155.919V162.676M155.919 155.919H149.162M155.919 155.919H162.676M155.919 155.919V162.676M149.162 155.919V162.676H155.919M162.676 155.919V162.676M162.676 155.919H169.432V162.676M182.946 155.919H189.703M182.946 155.919V162.676M209.973 155.919H203.216M209.973 155.919H216.73M209.973 155.919V162.676H203.216V155.919M216.73 149.162V155.919M216.73 149.162H223.487V155.919M216.73 155.919H223.487M216.73 155.919V162.676H223.487V155.919M7.27031 162.676H0.51355M7.27031 162.676V169.432M7.27031 162.676H14.0271M0.51355 162.676V169.432H7.27031M27.5406 162.676H20.7838M27.5406 162.676V169.432M27.5406 162.676H34.2973V169.432H27.5406M20.7838 162.676H14.0271M20.7838 162.676V169.432M81.5946 162.676H74.8379M81.5946 162.676H88.3514M81.5946 162.676V169.432H88.3514M74.8379 162.676H68.0811M74.8379 162.676V169.432H68.0811M88.3514 162.676V169.432M88.3514 162.676H95.1081M108.622 162.676V155.919H101.865V162.676M108.622 162.676H101.865M108.622 162.676V169.432M108.622 162.676H115.378M101.865 162.676H95.1081M101.865 162.676V169.432M122.135 162.676H115.378M122.135 162.676V169.432M122.135 162.676H128.892M115.378 162.676V169.432M142.405 162.676H135.649M142.405 162.676V169.432M135.649 162.676H128.892M135.649 162.676V169.432M155.919 162.676H162.676M155.919 162.676V169.432H162.676M162.676 162.676H169.432M162.676 162.676V169.432M169.432 162.676V169.432M169.432 162.676H176.189M189.703 155.919V162.676M189.703 155.919H196.459V162.676M189.703 162.676H182.946M189.703 162.676H196.459M189.703 162.676V169.432M182.946 162.676H176.189M182.946 162.676V169.432M196.459 162.676V169.432M7.27031 169.432H14.0271M14.0271 162.676V169.432M14.0271 169.432H20.7838M20.7838 169.432H27.5406M68.0811 162.676H61.3244V169.432M68.0811 162.676V169.432M68.0811 169.432H61.3244M68.0811 169.432V176.189M61.3244 169.432H54.5676V176.189M61.3244 169.432V176.189M88.3514 169.432H95.1081M88.3514 169.432V176.189M95.1081 162.676V169.432M95.1081 169.432H101.865M95.1081 169.432V176.189M101.865 169.432H108.622M101.865 169.432V176.189H108.622M108.622 169.432H115.378M108.622 169.432V176.189M115.378 169.432H122.135M115.378 169.432V176.189H108.622M122.135 169.432H128.892M122.135 169.432V176.189H128.892M128.892 162.676V169.432M128.892 169.432H135.649M128.892 169.432V176.189M135.649 169.432H142.405M142.405 169.432H149.162V176.189H142.405V169.432ZM162.676 169.432H169.432M162.676 169.432V176.189M169.432 169.432H176.189M169.432 169.432V176.189M176.189 162.676V169.432M176.189 169.432H182.946M182.946 169.432H189.703M189.703 169.432H196.459M189.703 169.432V176.189M196.459 169.432V176.189M61.3244 176.189H54.5676M61.3244 176.189H68.0811M61.3244 176.189V182.946M54.5676 176.189V182.946H61.3244M68.0811 176.189V182.946M95.1081 176.189H88.3514M95.1081 176.189V182.946H88.3514V176.189M128.892 176.189H135.649V182.946H128.892V176.189ZM169.432 176.189H162.676M169.432 176.189V182.946M162.676 176.189H155.919V182.946M162.676 176.189V182.946M196.459 176.189H189.703M196.459 176.189V182.946M189.703 176.189V182.946M209.973 169.432H203.216V176.189M209.973 169.432V176.189M209.973 169.432H216.73V176.189H209.973M209.973 176.189H203.216M209.973 176.189V182.946M203.216 176.189V182.946M7.27031 176.189H0.51355V182.946M7.27031 176.189V182.946M7.27031 176.189H14.0271M7.27031 182.946H0.51355M7.27031 182.946H14.0271M7.27031 182.946V189.703M0.51355 182.946V189.703M14.0271 176.189V182.946M14.0271 176.189H20.7838M14.0271 182.946H20.7838M20.7838 176.189V182.946M20.7838 176.189H27.5406M20.7838 182.946H27.5406M27.5406 176.189V182.946M27.5406 176.189H34.2973M27.5406 182.946H34.2973M34.2973 176.189V182.946M34.2973 176.189H41.0541M34.2973 182.946H41.0541M41.0541 176.189V182.946M41.0541 176.189H47.8108V182.946M41.0541 182.946H47.8108M41.0541 182.946V189.703M47.8108 182.946V189.703M61.3244 182.946H68.0811M68.0811 182.946H74.8379M68.0811 182.946V189.703H74.8379M74.8379 182.946H81.5946V176.189H74.8379V182.946ZM74.8379 182.946V189.703M162.676 182.946H155.919M162.676 182.946H169.432M162.676 182.946V189.703M155.919 182.946H149.162M155.919 182.946V189.703M169.432 182.946V189.703M196.459 182.946H189.703M196.459 182.946V189.703M196.459 182.946H203.216M189.703 182.946V189.703M209.973 182.946H203.216M209.973 182.946V189.703M209.973 182.946H216.73V189.703M203.216 182.946V189.703M7.27031 189.703H0.51355M7.27031 189.703V196.459M0.51355 189.703V196.459M47.8108 189.703H41.0541M47.8108 189.703V196.459M41.0541 189.703V196.459M74.8379 189.703H81.5946V196.459M74.8379 189.703V196.459M115.378 189.703V182.946H108.622V189.703H115.378ZM115.378 189.703H122.135M115.378 189.703V196.459M149.162 182.946H142.405V189.703M149.162 182.946V189.703M149.162 189.703H142.405M149.162 189.703H155.919M149.162 189.703V196.459M142.405 189.703H135.649M142.405 189.703V196.459M155.919 189.703H162.676M155.919 189.703V196.459M162.676 189.703H169.432M162.676 189.703V196.459M169.432 189.703V196.459M169.432 189.703H176.189M196.459 189.703H189.703M196.459 189.703H203.216M196.459 189.703V196.459M189.703 189.703H182.946M189.703 189.703V196.459M203.216 189.703H209.973M209.973 189.703H216.73M209.973 189.703V196.459M216.73 189.703V196.459M7.27031 196.459H0.51355M7.27031 196.459V203.216M0.51355 196.459V203.216M20.7838 189.703H14.0271V196.459M20.7838 189.703V196.459M20.7838 189.703H27.5406M20.7838 196.459H14.0271M20.7838 196.459H27.5406M20.7838 196.459V203.216M14.0271 196.459V203.216M27.5406 189.703V196.459M27.5406 189.703H34.2973V196.459M27.5406 196.459H34.2973M27.5406 196.459V203.216M34.2973 196.459V203.216M47.8108 196.459H41.0541M47.8108 196.459V203.216M41.0541 196.459V203.216M61.3244 196.459V189.703H54.5676V196.459M61.3244 196.459H54.5676M61.3244 196.459V203.216M61.3244 196.459H68.0811M54.5676 196.459V203.216H61.3244M81.5946 196.459H74.8379M81.5946 196.459V203.216M81.5946 196.459H88.3514M74.8379 196.459H68.0811M74.8379 196.459V203.216M95.1081 196.459V189.703H88.3514V196.459M95.1081 196.459H88.3514M95.1081 196.459V203.216M95.1081 196.459H101.865M88.3514 196.459V203.216M122.135 189.703V196.459M122.135 189.703H128.892M122.135 196.459H115.378M122.135 196.459H128.892M115.378 196.459H108.622M115.378 196.459V203.216M128.892 189.703V196.459M128.892 189.703H135.649M128.892 196.459H135.649M128.892 196.459V203.216M135.649 189.703V196.459M135.649 196.459H142.405M135.649 196.459V203.216M142.405 196.459H149.162M142.405 196.459V203.216M149.162 196.459H155.919M149.162 196.459V203.216M155.919 196.459H162.676M155.919 196.459V203.216M162.676 196.459H169.432M169.432 196.459H176.189M169.432 196.459V203.216H176.189V196.459M176.189 189.703V196.459M176.189 189.703H182.946M176.189 196.459H182.946M182.946 189.703V196.459M182.946 196.459H189.703M182.946 196.459V203.216H189.703M189.703 196.459H196.459M189.703 196.459V203.216M196.459 196.459H203.216M196.459 196.459V203.216M216.73 196.459H209.973M216.73 196.459V203.216M209.973 196.459H203.216M209.973 196.459V203.216M7.27031 203.216H0.51355M7.27031 203.216V209.973M0.51355 203.216V209.973M20.7838 203.216H14.0271M20.7838 203.216H27.5406M20.7838 203.216V209.973M14.0271 203.216V209.973H20.7838M27.5406 203.216H34.2973M27.5406 203.216V209.973M34.2973 203.216V209.973H27.5406M47.8108 203.216H41.0541M47.8108 203.216V209.973M41.0541 203.216V209.973M61.3244 203.216H68.0811M61.3244 203.216V209.973H68.0811V203.216M68.0811 196.459V203.216M68.0811 203.216H74.8379M74.8379 203.216H81.5946M81.5946 203.216H88.3514M88.3514 203.216H95.1081M95.1081 203.216H101.865M95.1081 203.216V209.973M101.865 196.459V203.216M101.865 196.459H108.622M101.865 203.216H108.622M101.865 203.216V209.973M108.622 196.459V203.216M108.622 203.216H115.378M108.622 203.216V209.973M115.378 203.216V209.973M115.378 203.216H122.135M135.649 203.216H128.892M135.649 203.216H142.405M135.649 203.216V209.973M128.892 203.216H122.135M128.892 203.216V209.973M142.405 203.216H149.162M142.405 203.216V209.973M149.162 203.216H155.919M149.162 203.216V209.973M155.919 203.216V209.973H149.162M189.703 203.216H196.459M189.703 203.216V209.973H196.459M203.216 196.459V203.216M203.216 203.216H196.459M203.216 203.216H209.973M203.216 203.216V209.973M196.459 203.216V209.973M209.973 203.216H216.73M209.973 203.216V209.973M216.73 203.216V209.973M216.73 203.216H223.487V209.973M7.27031 209.973H0.51355M7.27031 209.973V216.73M0.51355 209.973V216.73M20.7838 209.973H27.5406M47.8108 209.973H41.0541M47.8108 209.973V216.73M41.0541 209.973V216.73M101.865 209.973H95.1081M101.865 209.973H108.622M101.865 209.973V216.73M95.1081 209.973H88.3514M95.1081 209.973V216.73M108.622 209.973H115.378M108.622 209.973V216.73H101.865M115.378 209.973H122.135M122.135 203.216V209.973M122.135 209.973H128.892M128.892 209.973H135.649M128.892 209.973V216.73M142.405 209.973H135.649M142.405 209.973V216.73M142.405 209.973H149.162M135.649 209.973V216.73M149.162 209.973V216.73M196.459 209.973H203.216M196.459 209.973V216.73M203.216 209.973H209.973M203.216 209.973V216.73M209.973 209.973H216.73M209.973 209.973V216.73M216.73 209.973H223.487M216.73 209.973V216.73M223.487 209.973V216.73H216.73M7.27031 216.73H0.51355M7.27031 216.73V223.486M7.27031 216.73H14.0271M0.51355 216.73V223.486H7.27031M47.8108 216.73H41.0541M47.8108 216.73V223.486H41.0541M41.0541 216.73H34.2973M41.0541 216.73V223.486M88.3514 209.973H81.5946V216.73M88.3514 209.973V216.73M88.3514 216.73H81.5946M88.3514 216.73H95.1081M88.3514 216.73V223.486M81.5946 216.73V223.486H88.3514M95.1081 216.73H101.865M95.1081 216.73V223.486H88.3514M135.649 216.73H128.892M135.649 216.73H142.405M135.649 216.73V223.486H142.405M128.892 216.73H122.135V223.486H128.892V216.73ZM142.405 216.73H149.162M142.405 216.73V223.486M149.162 216.73V223.486H142.405M176.189 216.73V209.973H169.432V216.73M176.189 216.73H169.432M176.189 216.73V223.486H169.432M169.432 216.73H162.676M169.432 216.73V223.486M203.216 216.73H196.459M203.216 216.73H209.973M203.216 216.73V223.486H196.459M196.459 216.73H189.703V223.486H196.459M196.459 216.73V223.486M209.973 216.73H216.73M7.27031 223.486H14.0271M14.0271 216.73V223.486M14.0271 216.73H20.7838M14.0271 223.486H20.7838M20.7838 216.73V223.486M20.7838 216.73H27.5406M20.7838 223.486H27.5406M27.5406 216.73V223.486M27.5406 216.73H34.2973M27.5406 223.486H34.2973M34.2973 216.73V223.486M34.2973 223.486H41.0541M68.0811 216.73H61.3244V223.486H68.0811M68.0811 216.73V223.486M68.0811 216.73H74.8379V223.486H68.0811M162.676 216.73H155.919V223.486H162.676M162.676 216.73V223.486M162.676 223.486H169.432M74.8379 0.513519H81.5946V7.27028H74.8379V0.513519ZM54.5676 41.0541H61.3244V47.8108H54.5676V41.0541ZM68.0811 41.0541H74.8379V47.8108H68.0811V41.0541ZM0.51355 101.865H7.27031V108.622H0.51355V101.865ZM41.0541 162.676H47.8108V169.432H41.0541V162.676ZM176.189 176.189H182.946V182.946H176.189V176.189Z" stroke="black" stroke-width="0.5"/>
</svg>
